<svg width="20" height="22" data-name="Layer 1" xmlns="http://www.w3.org/2000/svg"><path d="m1 17.22 2.19 1.24 13.6-14.92L11 .26a2 2 0 0 0-2 0L1 4.78a2 2 0 0 0-1 1.74v9a2 2 0 0 0 1 1.7z" style="fill:#7f8b99"/><path d="m19 4.78-2.21-1.24L3.21 18.46 9 21.74a2 2 0 0 0 2 0l8-4.52a2 2 0 0 0 1-1.74v-9a2 2 0 0 0-1-1.7z" style="fill:#a9b9cb"/><path d="M12.07 9.58h3.11a4.84 4.84 0 0 0-5.08-4.33A5.42 5.42 0 0 0 4.48 11a5.31 5.31 0 0 0 5.62 5.66c4 0 4.94-2.86 4.94-4.38h-3a1.73 1.73 0 0 1-2 1.75c-1.91 0-2.22-2.27-2.22-3 0-1.18.42-3 2.22-3a1.86 1.86 0 0 1 2.03 1.55z" style="fill:#fff"/></svg>