<svg width="20" height="22" id="Layer_1" data-name="Layer 1" xmlns="http://www.w3.org/2000/svg"><defs><style>.cls-4{fill:#fff}</style></defs><path d="M19.72 5.5a2 2 0 0 0-.72-.73L11 .25a2 2 0 0 0-2 0L1 4.77a2 2 0 0 0-1 1.75v9a2 2 0 0 0 .28 1z" style="fill:#659ad2"/><path d="M.28 16.5a2 2 0 0 0 .74.73l8 4.52a2 2 0 0 0 2 0l8-4.52a2 2 0 0 0 .74-.73L10 11z" style="fill:#0e4580"/><path d="M20 6.52a2 2 0 0 0-.28-1L10 11l9.72 5.5a2 2 0 0 0 .28-1z" style="fill:#035a9d"/><path class="cls-4" d="M16.67 10.69h-.74V10h-.75v.73h-.74v.73h.74v.72h.75v-.72h.74zM19.44 10.69h-.74V10H18v.73h-.74v.73H18v.72h.74v-.72h.74z"/><path class="cls-4" d="M12.86 12.62a3.3 3.3 0 1 1 0-3.24l2.8-1.58a6.5 6.5 0 1 0 0 6.4z"/></svg>