<svg width="20" height="22" id="Layer_1" data-name="Layer 1" xmlns="http://www.w3.org/2000/svg" viewBox="0 0 20 22"><defs><style>.cls-1{fill:#659ad2;}.cls-2{fill:#0e4580;}.cls-3{fill:#035a9d;}.cls-4{fill:#fff;}</style></defs><title>c++-logo-colored</title><path class="cls-1" d="M19.72,5.5A2,2,0,0,0,19,4.77L11,.25a2,2,0,0,0-2,0L1,4.77A2,2,0,0,0,0,6.52v9a2,2,0,0,0,.28,1Z"/><path class="cls-2" d="M.28,16.5a2,2,0,0,0,.74.73l8,4.52a2,2,0,0,0,2,0l8-4.52a2,2,0,0,0,.74-.73L10,11Z"/><path class="cls-3" d="M20,6.52a2,2,0,0,0-.28-1L10,11l9.72,5.5a2,2,0,0,0,.28-1Z"/><path class="cls-4" d="M16.67,10.69h-.74V10h-.75v.73h-.74v.73h.74v.72h.75v-.72h.74Z"/><path class="cls-4" d="M19.44,10.69H18.7V10H18v.73h-.74v.73H18v.72h.74v-.72h.74Z"/><path class="cls-4" d="M12.86,12.62a3.3,3.3,0,1,1,0-3.24l2.8-1.58a6.5,6.5,0,1,0,0,6.4Z"/></svg>