<svg width="20" height="20" id="Layer_1" data-name="Layer 1" xmlns="http://www.w3.org/2000/svg" viewBox="0 0 20 20"><defs><style>.cls-1{fill:#0c9438;}.cls-2{fill:#219e38;opacity:0.85;}.cls-3{opacity:0.1;isolation:isolate;}.cls-4{fill:#fff;}</style></defs><title>csharp-logo-colored</title><path class="cls-1" d="M17.07,2.93a10,10,0,0,0-14.14,0L17.07,17.07A10,10,0,0,0,17.07,2.93Z"/><path class="cls-2" d="M2.93,2.93A10,10,0,0,0,17.07,17.07Z"/><path class="cls-3" d="M1,10.23a.76.76,0,0,1,0-.15c0,.15,0,.3,0,.45Z"/><path class="cls-4" d="M9.51,13.64a4.6,4.6,0,0,1-2.19.46,3.46,3.46,0,0,1-1.46-.25A3.66,3.66,0,0,1,4.63,13a4.05,4.05,0,0,1-1-2.84,4.34,4.34,0,0,1,.26-1.64,4.2,4.2,0,0,1,.88-1.41,4,4,0,0,1,1.32-.94A3.81,3.81,0,0,1,7.65,6a4.42,4.42,0,0,1,1.84.25v1A3.72,3.72,0,0,0,7.64,6.8,2.9,2.9,0,0,0,6.44,7a2.81,2.81,0,0,0-1,.69,3.4,3.4,0,0,0-.85,2.42,3.24,3.24,0,0,0,.79,2.29,2.68,2.68,0,0,0,.94.66,2.9,2.9,0,0,0,1.13.2,4,4,0,0,0,2.05-.53Z"/><path class="cls-4" d="M16.49,8.3l-.13.58H14.93l-.35,1.65h1.55l-.15.58H14.47L14,13.3h-.69l.47-2.19H12.39l-.46,2.19h-.68l.46-2.19H10.26l.11-.58h1.46l.33-1.65H10.64l.12-.58h1.52l.46-2.21h.69L13,8.3l1.38,0,.47-2.17h.66L15.05,8.3Zm-2.24.58H12.86l-.36,1.65h1.4Z"/></svg>