<svg width="20" height="20" id="Layer_1" data-name="Layer 1" xmlns="http://www.w3.org/2000/svg"><defs><style>.cls-4{fill:#fff}</style></defs><path d="M17.07 2.93a10 10 0 0 0-14.14 0l14.14 14.14a10 10 0 0 0 0-14.14z" style="fill:#0c9438"/><path d="M2.93 2.93a10 10 0 0 0 14.14 14.14z" style="fill:#219e38;opacity:.85"/><path d="M1 10.23a.76.76 0 0 1 0-.15v.45z" style="opacity:.1;isolation:isolate"/><path class="cls-4" d="M9.51 13.64a4.6 4.6 0 0 1-2.19.46 3.46 3.46 0 0 1-1.46-.25A3.66 3.66 0 0 1 4.63 13a4.05 4.05 0 0 1-1-2.84 4.34 4.34 0 0 1 .26-1.64 4.2 4.2 0 0 1 .88-1.41 4 4 0 0 1 1.32-.94A3.81 3.81 0 0 1 7.65 6a4.42 4.42 0 0 1 1.84.25v1a3.72 3.72 0 0 0-1.85-.45 2.9 2.9 0 0 0-1.2.2 2.81 2.81 0 0 0-1 .69 3.4 3.4 0 0 0-.85 2.42 3.24 3.24 0 0 0 .79 2.29 2.68 2.68 0 0 0 .94.66 2.9 2.9 0 0 0 1.13.2 4 4 0 0 0 2.05-.53zM16.49 8.3l-.13.58h-1.43l-.35 1.65h1.55l-.15.58h-1.51L14 13.3h-.69l.47-2.19h-1.39l-.46 2.19h-.68l.46-2.19h-1.45l.11-.58h1.46l.33-1.65h-1.52l.12-.58h1.52l.46-2.21h.69L13 8.3h1.38l.47-2.17h.66l-.46 2.17zm-2.24.58h-1.39l-.36 1.65h1.4z"/></svg>