<svg xmlns="http://www.w3.org/2000/svg" xmlns:xlink="http://www.w3.org/1999/xlink" version="1.0" width="26" height="20"><defs><linearGradient id="c"><stop style="stop-color:#000;stop-opacity:.19791667" offset="0"/><stop style="stop-color:#000;stop-opacity:.82291669" offset="1"/></linearGradient><linearGradient id="b"><stop style="stop-color:#fff;stop-opacity:1" offset="0"/><stop style="stop-color:#fff;stop-opacity:.33333334" offset="1"/></linearGradient><linearGradient id="a"><stop style="stop-color:#f2f2f0;stop-opacity:.13541667" offset="0"/><stop style="stop-color:#eeeeec;stop-opacity:.39583334" offset="1"/></linearGradient><linearGradient x1="27.248" y1="33.563" x2="44.496" y2="47.031" id="d" xlink:href="#a" gradientUnits="userSpaceOnUse" gradientTransform="matrix(1 0 0 .99176 -.678 .501)" spreadMethod="reflect"/><linearGradient x1="24.482" y1="30.994" x2="104.024" y2="90.719" id="e" xlink:href="#b" gradientUnits="userSpaceOnUse" gradientTransform="matrix(.99719 0 0 .98872 -.497 .687)"/><linearGradient x1="27.248" y1="33.563" x2="44.496" y2="47.031" id="f" xlink:href="#a" gradientUnits="userSpaceOnUse" gradientTransform="matrix(1 0 0 -.99176 -.678 121.014)" spreadMethod="reflect"/></defs><g transform="matrix(.30906 0 0 .31271 -6.987 -9.286)" style="display:inline"><rect width="80.582" height="60.168" rx="7.694" ry="8.543" x="25.996" y="33.484" style="fill:#2e3436;fill-opacity:.2745098;fill-rule:nonzero;stroke:none"/><rect width="80.582" height="60.168" rx="7.694" ry="8.543" x="23.285" y="30.772" style="fill:#a40000;fill-opacity:1;fill-rule:nonzero;stroke:none"/><rect width="74.011" height="54.138" rx="5.221" ry="5.62" x="26.57" y="33.787" style="fill:url(#d);fill-opacity:1;fill-rule:nonzero;stroke:none"/><path d="M32.333 39.188c-.81.1-1.445.747-1.448 1.53l.051 39.977a1.503 1.503 0 0 0 0 .174 1.3 1.3 0 0 0 0 .27v.04c.01.037.03.077.042.115v.02c.01.038.01.078.021.115v.04c.02.038.04.078.063.115v.02c.028.039.071.079.103.115v.02c.02.038.04.078.063.116v.038c.04.03.082.05.124.077v.04c.03.029.051.049.083.076l.042.039c.03.03.05.05.083.077h.02c.076.064.162.124.25.174h.04c.04.02.083.04.125.058h.02c.04.02.084.04.125.057.06.013.125.013.187.02.1.018.208.037.31.038h.166l15.31-.062c4.376-.007 7.307-.082 9.053-.303h.041c1.67-.232 3.44-.66 5.364-1.284 3.345-1.046 6.311-2.591 8.861-4.655 2.497-2 4.432-4.366 5.792-7.029 1.36-2.663 2.046-5.478 2.04-8.397-.007-4.062-1.236-7.867-3.702-11.289-2.466-3.423-5.832-6.044-9.974-7.78-4.212-1.785-9.703-2.599-16.515-2.586l-16.533.024c-.07 0-.138-.008-.207 0zm8.898 8.226 7.127-.01c3.33-.006 5.7.095 7.044.28 1.363.187 2.855.582 4.435 1.192 1.567.597 2.932 1.328 4.105 2.238v.038c3.228 2.471 4.75 5.441 4.756 9.373.007 4.027-1.463 7.163-4.607 9.793a15.313 15.313 0 0 1-3.23 2.036c-1.12.522-2.584.972-4.431 1.36-1.742.349-4.387.547-7.83.553l-7.334.01-.035-26.863z" style="font-style:normal;font-variant:normal;font-weight:400;font-stretch:normal;font-size:64px;line-height:125%;font-family:'Gill Sans MT';text-align:start;writing-mode:lr-tb;text-anchor:start;fill:#eeeeec;fill-opacity:1;stroke:none"/><path d="M89.368 35.648a5.969 5.472 0 1 1-11.938 0 5.969 5.472 0 1 1 11.938 0z" transform="matrix(1.95002 0 0 1.95002 -82.918 -16.343)" style="fill:#eeeeec;fill-opacity:1;fill-rule:nonzero;stroke:none"/><rect width="78.006" height="57.75" rx="6.57" ry="7.306" x="24.572" y="31.981" style="fill:none;stroke:url(#e);stroke-width:1.34628034;stroke-linecap:round;stroke-linejoin:round;stroke-miterlimit:4;stroke-dasharray:none;stroke-opacity:1"/><rect width="80.582" height="60.168" rx="7.694" ry="8.543" x="23.285" y="30.772" style="fill:none;stroke:#323232;stroke-width:1.3558476;stroke-linecap:round;stroke-linejoin:round;stroke-miterlimit:4;stroke-dasharray:none;stroke-opacity:1"/><path d="M31.791 87.728H95.36c2.892 0 5.22-2.506 5.22-5.62v-9.001c-22.704-8.734-55.576-13.412-74.01-13.559v22.56c0 3.114 2.329 5.62 5.221 5.62z" style="fill:url(#f);fill-opacity:1;fill-rule:nonzero;stroke:none"/><path d="M89.368 35.648a5.969 5.472 0 1 1-11.938 0 5.969 5.472 0 1 1 11.938 0z" transform="matrix(.62657 0 0 .62657 40.72 19.11)" style="display:inline;fill:#eeeeec;fill-opacity:1;fill-rule:nonzero;stroke:none"/></g></svg>