<svg width="16" height="25" viewBox="0 0 259 398" xmlns="http://www.w3.org/2000/svg"><defs><linearGradient x1="52.258%" y1="7.389%" x2="50%" y2="100%" id="a"><stop stop-color="#D9D8DC" offset="0%"/><stop stop-color="#FFF" stop-opacity=".385" offset="100%"/></linearGradient><linearGradient x1="71.179%" y1="7.691%" x2="50%" y2="100%" id="b"><stop stop-color="#8D67AF" stop-opacity=".672" offset="0%"/><stop stop-color="#9F8DAF" offset="100%"/></linearGradient><linearGradient x1="54.233%" y1="31.435%" x2="54.233%" y2="98.228%" id="c"><stop stop-color="#26053D" stop-opacity=".762" offset="0%"/><stop stop-color="#B7B4B4" stop-opacity=".278" offset="100%"/></linearGradient><linearGradient x1="10.133%" y1="12.539%" x2="50%" y2="92.768%" id="d"><stop stop-color="#91739F" stop-opacity=".46" offset="0%"/><stop stop-color="#32054F" stop-opacity=".54" offset="100%"/></linearGradient><linearGradient x1="80.023%" y1="96.41%" x2="9.647%" y2="21.227%" id="e"><stop stop-color="#463D49" stop-opacity=".331" offset="0%"/><stop stop-color="#340A50" stop-opacity=".821" offset="100%"/></linearGradient><linearGradient x1="76.347%" y1="7.419%" x2="50%" y2="100%" id="f"><stop stop-color="#715383" stop-opacity=".145" offset="0%"/><stop stop-color="#F4F4F4" stop-opacity=".234" offset="100%"/></linearGradient><linearGradient x1="131.792%" y1="72.665%" x2="11.347%" y2="50%" id="g"><stop stop-color="#A5A1A8" stop-opacity=".356" offset="0%"/><stop stop-color="#370C50" stop-opacity=".582" offset="100%"/></linearGradient></defs><g fill="none" fill-rule="evenodd"><path d="M140.473 1c-28.87 10.233-56.74 40.102-83.608 89.605-40.303 74.255-92.356 179.773-20.678 263.318 33.16 38.65 87.911 61.461 159.764 25.333 57.723-29.023 73.776-112.312 53.053-151.45-42.748-80.737-86.118-100.65-97.732-150.719-7.742-33.38-11.342-58.742-10.8-76.087z" fill="url(#a)"/><path d="M140.473 0c-29.017 10.339-56.886 40.207-83.608 89.605-40.083 74.097-92.356 179.773-20.678 263.318 33.16 38.65 87.206 51.14 117.196 28.217 19.55-14.944 32.847-29.188 40.508-59.201 8.53-33.42 1.985-78.412-2.5-99.08-5.674-26.154-7.532-54.86-5.572-86.118l-1.548-1.89c-15.613-19.106-27.66-35.75-32.999-58.764-7.742-33.38-11.342-58.742-10.8-76.087z" fill="url(#b)"/><path d="M116.447 13C89.42 34.36 69.325 70.188 56.16 120.485 36.417 195.929 34.277 265.5 41.241 305.968c13.5 78.447 83.486 108.224 155.272 71.71 44.178-22.471 62.579-70.705 61.604-123.062-1.01-54.211-105.77-115.65-124.322-160.893-12.368-30.162-18.151-57.07-17.348-80.723z" fill="url(#c)"/><path d="M184.965 154.444c32.414 41.57 39.48 70.507 21.197 86.812-27.424 24.458-94.486 40.415-136.206 10.83-27.813-19.724-38.336-62.036-31.57-126.936-11.481 23.977-21.189 48.267-29.123 72.868-7.933 24.601-10.25 50.346-6.95 77.235 9.943 20.115 34.118 33.55 72.524 40.303 57.61 10.131 112.136 5.125 148.724-13.318 24.391-12.296 35.928-24.536 34.61-36.72.881-17.994-4.667-35.122-16.645-51.385-11.977-16.264-30.83-36.16-56.56-59.689z" fill="url(#d)"/><path d="M58.3 112.936c-.271 30.022 7.448 58.56 23.158 85.617 23.564 40.585 51.07 80.688 92.231 113.93 27.44 22.161 49.367 29.32 65.778 21.48-13.48 24.124-27.812 35.945-42.999 35.463-22.779-.723-50.554-10.678-95.058-64.158-29.669-35.654-49.965-69.38-60.89-101.177 1.733-12.615 3.57-25.18 5.511-37.694 1.942-12.515 6.031-30.335 12.269-53.46z" fill="url(#e)"/><path d="M127.916 154.136c2.517 24.456 12.034 63.578 0 89.625-12.035 26.047-67.621 73.102-52.277 114.553 15.344 41.452 52.737 32.146 76.193 13.043 23.456-19.103 36.012-50.165 38.795-72.01 2.783-21.844-6.659-63.877-9.73-100.437-2.047-24.374-.658-45.271 4.167-62.693l-7.187-9.045-42.305-12.526c-6.783 10.023-9.335 23.186-7.656 39.49z" fill="url(#f)"/><path d="M143.017 33c-13.693 5.786-26.666 17.25-38.919 34.393-18.38 25.714-27.741 41.128-20.812 92.1 4.62 33.98 7.926 65.243 9.92 93.786L152.458 81.12c-2.179-8.772-3.99-16.695-5.436-23.768-1.445-7.072-2.78-15.19-4.006-24.353z" fill="url(#g)"/><path d="M152.345 80.778c-15.042 8.78-26.697 26.767-34.966 53.962-8.269 27.195-15.834 65.212-22.695 114.052 9.15-31.064 15.221-53.564 18.21-67.499 4.485-20.903 6.017-50.462 17.923-70.53 7.938-13.378 15.114-23.373 21.528-29.985z" fill-opacity=".316" fill="#330A4C"/><path d="M82.698 372.158c24.754 3.536 37.697 6.68 38.831 9.432 1.701 4.127-3.133 7.903-16.873 5.365-9.16-1.69-16.48-6.623-21.958-14.797z" fill="#FFF"/><path d="M95.134 33C81.52 49.265 69.721 66.509 59.741 84.73c-9.98 18.223-17.111 31.817-21.394 40.784-1.327 6.687-1.975 16.555-1.943 29.603.032 13.048 1.16 27.556 3.386 43.524 1.948-31.268 7.913-61.62 17.895-91.053C67.666 78.154 80.149 53.29 95.135 33z" fill-opacity=".603" fill="#EDEDED"/></g></svg>