<?xml version="1.0" encoding="UTF-8" standalone="no"?>
<svg width="20px" height="31px" viewBox="0 0 259 398" version="1.1" xmlns="http://www.w3.org/2000/svg" xmlns:xlink="http://www.w3.org/1999/xlink">
    <!-- Generator: Sketch 47.1 (45422) - http://www.bohemiancoding.com/sketch -->
    <title>elixir</title>
    <desc>Created with Sketch.</desc>
    <defs>
        <linearGradient x1="52.257582%" y1="7.38900791%" x2="50%" y2="100%" id="linearGradient-1">
            <stop stop-color="#D9D8DC" offset="0%"></stop>
            <stop stop-color="#FFFFFF" stop-opacity="0.385275136" offset="100%"></stop>
        </linearGradient>
        <linearGradient x1="71.1793234%" y1="7.69121524%" x2="50%" y2="100%" id="linearGradient-2">
            <stop stop-color="#8D67AF" stop-opacity="0.671931612" offset="0%"></stop>
            <stop stop-color="#9F8DAF" offset="100%"></stop>
        </linearGradient>
        <linearGradient x1="54.2330909%" y1="31.4346391%" x2="54.2330921%" y2="98.2279808%" id="linearGradient-3">
            <stop stop-color="#26053D" stop-opacity="0.761633832" offset="0%"></stop>
            <stop stop-color="#B7B4B4" stop-opacity="0.277683424" offset="100%"></stop>
        </linearGradient>
        <linearGradient x1="10.1328773%" y1="12.5388606%" x2="50%" y2="92.7678007%" id="linearGradient-4">
            <stop stop-color="#91739F" stop-opacity="0.459550498" offset="0%"></stop>
            <stop stop-color="#32054F" stop-opacity="0.539911685" offset="100%"></stop>
        </linearGradient>
        <linearGradient x1="80.0227759%" y1="96.4102284%" x2="9.64747494%" y2="21.2268885%" id="linearGradient-5">
            <stop stop-color="#463D49" stop-opacity="0.331182065" offset="0%"></stop>
            <stop stop-color="#340A50" stop-opacity="0.821388134" offset="100%"></stop>
        </linearGradient>
        <linearGradient x1="76.3466744%" y1="7.41856094%" x2="50%" y2="100%" id="linearGradient-6">
            <stop stop-color="#715383" stop-opacity="0.145238904" offset="0%"></stop>
            <stop stop-color="#F4F4F4" stop-opacity="0.23363904" offset="100%"></stop>
        </linearGradient>
        <linearGradient x1="131.791875%" y1="72.6651407%" x2="11.3471758%" y2="50%" id="linearGradient-7">
            <stop stop-color="#A5A1A8" stop-opacity="0.356091486" offset="0%"></stop>
            <stop stop-color="#370C50" stop-opacity="0.581974638" offset="100%"></stop>
        </linearGradient>
    </defs>
    <g id="Page-1" stroke="none" stroke-width="1" fill="none" fill-rule="evenodd">
        <g id="elixir">
            <path d="M140.472938,1 C111.602703,11.2333466 83.7333503,41.1017508 56.8648789,90.6052125 C16.5621719,164.860405 -35.4907126,270.378412 36.186531,353.922978 C69.3465821,392.57321 124.097956,415.384333 195.950939,379.25648 C253.673562,350.233406 269.726906,266.94422 249.00363,227.805207 C206.25568,147.069292 162.885991,127.155982 151.272432,77.0870852 C143.530059,43.7078208 139.930228,18.3454591 140.472938,1 Z" id="Path" fill="url(#linearGradient-1)"></path>
            <path d="M140.472938,0 C111.456235,10.338845 83.5868817,40.2072491 56.8648789,89.6052125 C16.7818748,163.702158 -35.4907126,269.378412 36.186531,352.922978 C69.3465821,391.57321 123.393327,404.062796 153.382712,381.140016 C172.933291,366.196275 186.230052,351.951696 193.890904,321.938657 C202.421104,288.519757 195.87622,243.527427 191.391619,222.858673 C185.716848,196.704627 183.859454,167.998685 185.819438,136.740847 C185.128812,135.899437 184.612743,135.269758 184.271231,134.85181 C168.658409,115.744561 156.610662,99.1014991 151.272432,76.0870852 C143.530059,42.7078208 139.930228,17.3454591 140.472938,0 Z" id="Path" fill="url(#linearGradient-2)"></path>
            <path d="M116.446645,13 C89.4198421,34.3601182 69.3247923,70.1883786 56.1614953,120.484781 C36.4165499,195.929385 34.2769645,265.501481 41.2406841,305.968012 C54.7402677,384.414781 124.726509,414.192346 196.512885,377.678262 C240.691183,355.207006 259.091711,306.972725 258.116873,254.616461 C257.107493,200.405019 152.347946,138.965815 133.795144,93.7230375 C121.42661,63.5611858 115.643777,36.6535067 116.446645,13 Z" id="Path" fill="url(#linearGradient-3)"></path>
            <path d="M184.965347,154.444077 C217.378723,196.013393 224.444218,224.950649 206.161832,241.255845 C178.738251,265.71364 111.676176,281.671479 69.9564795,252.085746 C42.1433486,232.361923 31.6198698,190.04989 38.386043,125.149647 C26.9047822,149.127258 17.1972537,173.416734 9.26345754,198.018075 C1.32966136,222.619417 -0.987150514,248.3643 2.31302191,275.252725 C12.255885,295.36806 36.4305933,308.802651 74.8371468,315.556498 C132.446977,325.687268 186.973273,320.681493 223.560615,302.237693 C247.952177,289.941826 259.489232,277.701706 258.171782,265.517333 C259.052007,247.524433 253.503535,230.396255 241.526367,214.1328 C229.549199,197.869345 210.695526,177.973104 184.965347,154.444077 Z" id="Path-2" fill="url(#linearGradient-4)"></path>
            <path d="M58.2996617,112.936381 C58.0287192,142.957891 65.7480504,171.496927 81.4576551,198.553489 C105.022062,239.138332 132.528366,279.241309 173.689097,312.48299 C201.129585,334.64411 223.055648,341.803929 239.467288,333.962446 C225.98749,358.086951 211.654509,369.908168 196.468344,369.426095 C173.689097,368.702986 145.913563,358.747849 101.410106,305.267821 C71.741135,269.614469 51.444543,235.888753 40.5203298,204.090672 C42.2526785,191.475899 44.0896445,178.911218 46.0312278,166.396631 C47.9728111,153.882043 52.0622891,136.06196 58.2996617,112.936381 Z" id="Path-3" fill="url(#linearGradient-5)"></path>
            <path d="M127.91562,154.135924 C130.433463,178.592278 139.950118,217.713796 127.91562,243.760961 C115.881123,269.808126 60.294909,316.86301 75.6388929,358.314331 C90.9828768,399.765653 128.376316,390.459602 151.832303,371.356718 C175.28829,352.253834 187.843656,321.191668 190.626633,299.347175 C193.409611,277.502683 183.968172,235.470321 180.897494,198.909894 C178.850376,174.536277 180.239324,153.638586 185.064339,136.216822 L177.876874,127.172322 L135.57181,114.646435 C128.789122,124.668524 126.237059,137.831687 127.91562,154.135924 Z" id="Path-7" fill="url(#linearGradient-6)"></path>
            <path d="M143.016768,33 C129.324368,38.7857237 116.351491,50.2499631 104.098135,67.3927183 C85.7181024,93.106851 76.3567044,108.520862 83.2860336,159.492684 C87.9055864,193.473899 91.2120747,224.735973 93.2054984,253.278908 L152.458619,81.1207662 C150.280267,72.3485372 148.468486,64.4260957 147.023277,57.3534417 C145.578069,50.2807877 144.242566,42.1629738 143.016768,33 Z" id="Path-5" fill="url(#linearGradient-7)"></path>
            <path d="M152.344997,80.7784816 C137.303268,89.558022 125.64792,107.545139 117.378951,134.739833 C109.109983,161.934527 101.544972,199.95201 94.6839161,248.792282 C103.834869,217.727988 109.905113,195.228256 112.894649,181.293087 C117.378951,160.390333 118.910668,130.831363 130.817464,110.763568 C138.755328,97.385038 145.931173,87.3900091 152.344997,80.7784816 Z" id="Path-6" fill-opacity="0.316321332" fill="#330A4C"></path>
            <path d="M82.6983396,372.15777 C107.451693,375.694184 120.395341,378.83818 121.529283,381.589755 C123.230196,385.717119 118.395859,389.492543 104.655513,386.955483 C95.4952815,385.26411 88.1762238,380.331539 82.6983396,372.15777 Z" id="Path-4" fill="#FFFFFF"></path>
            <path d="M95.1342121,33 C81.5189761,49.2650932 69.7212284,66.5086881 59.740969,84.7307848 C49.7607096,102.952881 42.6295067,116.547199 38.3473603,125.513737 C37.020157,132.201478 36.3723613,142.069356 36.4039732,155.117369 C36.4355851,168.165383 37.5641711,182.673361 39.7897312,198.641305 C41.7382363,167.372845 47.7032097,137.021622 57.6846516,107.587638 C67.6660934,78.1536537 80.1492802,53.2911077 95.1342121,33 Z" id="Path-9" fill-opacity="0.60326087" fill="#EDEDED"></path>
        </g>
    </g>
</svg>