<svg width="32" height="12" id="Layer_1" data-name="Layer 1" xmlns="http://www.w3.org/2000/svg"><defs><style>.cls-1{fill:#38b6ac}</style></defs><path class="cls-1" d="M2.4 3.62s-.07 0 0-.09l.33-.42A.25.25 0 0 1 2.86 3h5.57c.05 0 .08 0 0 .09l-.25.4a.24.24 0 0 1-.17.09zM.06 5.06C0 5.06 0 5 0 5l.32-.42a.3.3 0 0 1 .17-.08h7.13a.08.08 0 0 1 .08.1l-.13.4a.15.15 0 0 1-.14.1zM3.84 6.49c-.06 0-.09 0-.06-.09L4 6a.2.2 0 0 1 .16-.09h3.12a.09.09 0 0 1 .09.09v.37a.13.13 0 0 1-.12.11zM31.94 4.55a4.86 4.86 0 0 0-2.2-3.49 5.72 5.72 0 0 0-4.43-.81A6.56 6.56 0 0 0 21 2.87a6.74 6.74 0 0 0-1.08 2.05h-5a.43.43 0 0 0-.38.25c-.22.41-.6 1.24-.8 1.71-.11.27 0 .47.29.47h3c-.16.22-.28.41-.43.58a2.88 2.88 0 0 1-2.65 1 2.45 2.45 0 0 1-2.15-2.44 3.36 3.36 0 0 1 1.6-3 2.69 2.69 0 0 1 2.81-.23 2 2 0 0 1 .73.6c.2.23.22.21.45.15 1-.25 1.64-.45 2.62-.69.18 0 .24-.12.18-.25a5 5 0 0 0-1.8-2.2 5.48 5.48 0 0 0-4.13-.76A6.88 6.88 0 0 0 9.9 2.82a6.12 6.12 0 0 0-1.32 4.59 4.93 4.93 0 0 0 2 3.47 5.49 5.49 0 0 0 4.18 1 6.45 6.45 0 0 0 4.44-2.66 6.88 6.88 0 0 0 .64-1.07 5 5 0 0 0 1.54 2.43A5.77 5.77 0 0 0 25.16 12c.41-.05.78-.06 1.19-.14a7.21 7.21 0 0 0 3.79-2 6.07 6.07 0 0 0 1.8-5.31zm-5 4.1a2.83 2.83 0 0 1-2.55.09 2.58 2.58 0 0 1-1.42-2.95 3.37 3.37 0 0 1 2.72-2.73 2.58 2.58 0 0 1 3.18 2.09c0 .16 0 .32.05.52a3.44 3.44 0 0 1-2.02 2.98z"/></svg>