<svg xmlns="http://www.w3.org/2000/svg" width="21.779" height="29.53" preserveAspectRatio="xMidYMid"><path fill="#5382a1" d="M7.014 22.837s-1.128.657.803.879c2.34.267 3.536.228 6.115-.26 0 0 .678.425 1.625.794-5.78 2.477-13.083-.144-8.543-1.413m-.706-3.233s-1.266.937.667 1.137c2.5.258 4.474.28 7.89-.379 0 0 .472.48 1.215.741-6.99 2.044-14.774.162-9.772-1.499"/><path fill="#e76f00" d="M12.263 14.12c1.424 1.64-.374 3.116-.374 3.116s3.617-1.867 1.956-4.206c-1.552-2.18-2.742-3.263 3.699-6.999 0 0-10.11 2.525-5.281 8.089"/><path fill="#5382a1" d="M19.909 25.229s.835.688-.92 1.22c-3.337 1.011-13.888 1.316-16.82.04-1.053-.458.923-1.094 1.545-1.227.648-.14 1.018-.115 1.018-.115-1.172-.825-7.574 1.621-3.252 2.322 11.787 1.911 21.486-.861 18.429-2.24M7.557 16.255s-5.367 1.274-1.9 1.737c1.463.196 4.38.152 7.099-.076 2.22-.187 4.451-.586 4.451-.586s-.783.336-1.35.723c-5.45 1.433-15.979.766-12.948-.7 2.564-1.239 4.648-1.099 4.648-1.099m9.628 5.382c5.54-2.879 2.979-5.645 1.19-5.273-.438.092-.633.17-.633.17s.163-.254.473-.365c3.538-1.243 6.258 3.668-1.142 5.613 0 0 .086-.076.112-.145"/><path fill="#e76f00" d="M13.845 0s3.068 3.07-2.91 7.79c-4.795 3.785-1.094 5.944-.003 8.41-2.798-2.524-4.852-4.747-3.474-6.816C9.48 6.348 15.083 4.875 13.845 0"/><path fill="#5382a1" d="M8.101 29.438c5.318.34 13.485-.19 13.678-2.706 0 0-.371.954-4.395 1.712-4.539.854-10.137.754-13.458.207 0 0 .68.563 4.175.787"/></svg>