<svg xmlns="http://www.w3.org/2000/svg" width="21.7794" height="29.5304" preserveAspectRatio="xMidYMid"><path fill="#5382a1" d="M7.0143 22.8375s-1.1285.6563.803.8783c2.3401.267 3.5361.2287 6.1149-.2594 0 0 .678.4251 1.6248.7933-5.7809 2.4777-13.0833-.1435-8.5427-1.4122m-.7064-3.2331s-1.2657.9369.6673 1.1368c2.4997.258 4.4738.279 7.8898-.3787 0 0 .4724.479 1.2154.7409-6.9895 2.0438-14.7745.1612-9.7725-1.499"/><path fill="#e76f00" d="M12.263 14.12c1.4244 1.64-.3742 3.1157-.3742 3.1157s3.6168-1.8671 1.9558-4.2052c-1.5514-2.1804-2.7411-3.2638 3.6994-6.999 0 0-10.1095 2.5249-5.281 8.0885"/><path fill="#5382a1" d="M19.9087 25.229s.8351.688-.9197 1.2203c-3.3368 1.0109-13.8882 1.3161-16.8193.0403-1.0536-.4584.9223-1.0945 1.5438-1.228.6482-.1405 1.0187-.1143 1.0187-.1143-1.1718-.8255-7.574 1.6208-3.252 2.3214 11.7866 1.9114 21.4858-.8607 18.4285-2.2398M7.557 16.2545s-5.3671 1.2748-1.9007 1.7377c1.4637.196 4.3814.1516 7.0993-.076 2.2211-.1874 4.4514-.5858 4.4514-.5858s-.7832.3354-1.3498.7223c-5.4502 1.4334-15.979.7666-12.9479-.6996 2.5634-1.2391 4.6477-1.0986 4.6477-1.0986m9.6279 5.3817c5.5404-2.879 2.9787-5.6457 1.1907-5.273-.4382.0913-.6336.1703-.6336.1703s.1627-.2549.4734-.3652c3.5372-1.2436 6.2576 3.6678-1.1419 5.613 0 0 .0857-.0766.1114-.1451"/><path fill="#e76f00" d="M13.8446 0s3.0683 3.0694-2.9102 7.7892c-4.7942 3.7862-1.0933 5.945-.002 8.4114-2.7985-2.525-4.8522-4.7476-3.4744-6.8162C9.4803 6.3478 15.0826 4.8755 13.8446 0"/><path fill="#5382a1" d="M8.1014 29.4376c5.318.3404 13.4845-.1889 13.678-2.7052 0 0-.3718.9539-4.3951 1.7115-4.5391.8542-10.1374.7544-13.4579.207.0001 0 .6798.5626 4.175.7867"/></svg>