<svg xmlns="http://www.w3.org/2000/svg" width="22" height="22" viewBox="-0.006 2.335 64.006 59.33"><path d="M14.518 61.665C6.493 61.656-.006 55.144 0 47.12s6.515-14.526 14.54-14.523 14.53 6.51 14.53 14.534c-.01 8.03-6.52 14.534-14.55 14.534z" fill="#ca3c32"/><path d="M49.45 61.665c-8.025-.01-14.524-6.52-14.518-14.545s6.515-14.526 14.54-14.523S64 39.105 64 47.13c-.01 8.03-6.52 14.534-14.55 14.534z" fill="#9259a3"/><path d="M31.992 31.404c-8.027 0-14.534-6.507-14.534-14.534S23.965 2.335 31.992 2.335 46.526 8.843 46.526 16.87a14.52 14.52 0 0 1-14.534 14.534z" fill="#399746"/></svg>