<svg version="1.1" id="Layer_1" xmlns="http://www.w3.org/2000/svg" xmlns:xlink="http://www.w3.org/1999/xlink" width="32" height="28" x="0px" y="0px"
	 viewBox="0 0 46 40" style="enable-background:new 0 0 46 40;" xml:space="preserve">
<style type="text/css">
	.st0{fill:#FFFFFF;}
	.st1{fill:#484444;}
	.st2{fill:url(#SVGID_1_);}
	.st3{fill:url(#SVGID_00000019666355307410372800000003889290272895494073_);}
	.st4{fill:url(#SVGID_00000078009838544920653140000003022816676572672415_);}
	.st5{fill:url(#SVGID_00000155143267251231807990000005331660806572861321_);}
</style>
<path class="st0" d="M23.9,35.2c-0.1-0.4,0.1-0.8-0.1-1.2c-0.1-0.3-0.3-0.4-0.5-0.6c-0.4-0.7-0.8-1.6-0.9-2.4c0-0.8-0.3-1.4-0.4-2.2
	c0-0.4,0-0.7,0-1.1c0-0.2,0-0.3-0.1-0.5c0,0,0-0.2-0.1-0.3l0.1-0.2c0-0.1,0.8-0.1,1.1-0.1c0.4,0,0.8,0,1.3,0c0.9,0,1.7,0,2.5-0.1
	c1.9-0.3,2.8-1.1,3.2-1.4c1.7-1.3,2.5-3.3,2.5-3.3c0.3-0.6,0.3-1.8,0.9-2.3c0.7-0.6,1.9-0.6,2.8-0.9c0.5-0.2,0.8-0.3,1.3-0.2
	c0.4,0.1,1,0.5,1.2-0.1c-0.1-0.1-0.2-0.2-0.2-0.3c0.7-0.1,0-1.7-0.3-2c-0.4-0.5-1.1-0.7-1.9-0.9c-0.9-0.2-1.7-0.5-2.5-0.3
	c-1.5,0.3-1.3-0.5-2.2-0.5c-1,0-2.9,0.1-3.2,1c-0.1,0.5-0.3,0.5-0.6,0.8c-0.2,0.3,0,0.6-0.1,0.9c-0.1,0.4-0.3,1.6-0.5,2.1
	c-0.3,0.7-0.6,1.7-1.3,1.7c-0.9,0.1-1.6,0.1-2.3-0.1c-0.4-0.2-1.2-0.4-1.5-0.6c-1.7-0.7-2-1.5-2-1.5c-0.2-0.3-0.7-0.8-0.8-1.4
	c-0.2-0.7-0.5-1.3-0.7-1.6c-0.1-0.4-0.5-1-0.7-1.6c-0.3-0.8-0.8-1.4-1.1-1.8c-0.5-0.5-1-1.2-2.1-1c-0.2,0-0.9,0.1-1.4,0.5
	c-0.4,0.3-0.5,0.9-0.8,1.5c-0.2,0.3-0.5,1.2-0.8,1.9c-0.2,0.5-0.3,0.9-0.5,1.1c-0.2,0.1-0.4,0.3-0.7,0.2c-0.2-0.1-0.4-0.2-0.5-0.3
	c-0.2-0.2-0.8-1.1-1.2-1.9c-0.3-0.6-0.9-1.5-1.3-2c-0.5-0.7-0.8-0.9-1.6-0.9c-1.7,0-1.8,0.9-2.5,2.3c-0.3,0.6-0.4,1.6-1.1,2.3
	c-0.4,0.4-1.6,2.2-2.4,2.5v0l0,0v12.5l0,0v-0.1c0.1-0.2,0.1-0.3,0.2-0.5c0.3-0.7,1.1-1.3,1.5-2c0.2-0.4,0.5-0.8,0.6-1.2
	c0.1-0.3,0.2-0.9,0.4-1.2c0.2-0.4,0.6-0.5,0.9-0.6c0.6-0.1,1.1,0.8,1.8,1.2c0.3,0.1,1.7,0.6,2.2,0.8c0.7,0.2,1.5,0.3,2.2,0.5
	C10.2,28,10.6,28,11,28c0.4,0,1.7,0.1,1.8,0.2c-0.7,0.3-1.1,1.3-1.3,2c-0.3,0.7-0.4,1.5-0.8,2.2c-0.4,0.8-1.1,1.1-1,2
	c0,0.4,0.1,0.7,0,1.1c-0.1,0.4-0.2,0.7-0.4,1.1c-0.2,0.5-0.3,2.2-0.6,2.7l1.5-0.2l0,0c0.2-0.4,0.3-2,0.4-2.2
	c0.3-0.8,0.6-1.5,1.2-2.1c0.6-0.6,0.5-1.4,0.8-2.1c0.3-0.8,0.8-1.4,1.3-2.1c0.8-1.3,1.3-3,3-3.3c0.2,0,1.2,0.7,1.7,1.2
	c0.5,0.5,1.1,1.1,1.5,1.8c0.7,1.4,1.2,3.3,1.5,4.4c0.1,0.6,0.2,0.7,0.6,1.2c0.2,0.2,0.6,0.9,0.7,1.2c0.1,0.3,0.3,0.9,0.5,1.3
	c0.1,0.2,0.3,0.8,0.5,1.3l1.4,0c0,0,0,0,0,0c0,0,0,0,0,0c0,0,0,0,0,0C24.6,38.3,24.1,36.7,23.9,35.2L23.9,35.2z"/>
<path class="st1" d="M23,27.1L23,27.1C23,27.1,23,27,23,27.1z"/>
<linearGradient id="SVGID_1_" gradientUnits="userSpaceOnUse" x1="23.0419" y1="14.9337" x2="23.0419" y2="14.8833" gradientTransform="matrix(1 0 0 -1 0 42)">
	<stop  offset="0" style="stop-color:#F29100"/>
	<stop  offset="1" style="stop-color:#EC670F"/>
</linearGradient>
<path class="st2" d="M23,27.1L23,27.1C23,27.1,23,27,23,27.1z"/>
<linearGradient id="SVGID_00000159432202981495199820000013440889407401948575_" gradientUnits="userSpaceOnUse" x1="16.9034" y1="14.6172" x2="16.9034" y2="2.0709" gradientTransform="matrix(1 0 0 -1 0 42)">
	<stop  offset="0" style="stop-color:#F29100"/>
	<stop  offset="1" style="stop-color:#EC670F"/>
</linearGradient>
<path style="fill:url(#SVGID_00000159432202981495199820000013440889407401948575_);" d="M23.2,38.4c-0.2-0.3-0.4-1-0.5-1.3
	c-0.1-0.3-0.5-1-0.7-1.2c-0.4-0.5-0.5-0.5-0.6-1.2c-0.2-1.1-0.8-3-1.5-4.4c-0.3-0.7-0.9-1.3-1.5-1.8c-0.5-0.4-1.5-1.2-1.7-1.2
	c-1.7,0.3-2.2,2-3,3.3c-0.4,0.7-0.9,1.3-1.3,2.1c-0.3,0.7-0.3,1.5-0.8,2.1c-0.6,0.6-0.9,1.3-1.2,2.1c-0.1,0.2-0.2,1.8-0.4,2.2l0,0
	l2.5-0.2c2.3,0.2,1.7,1.1,5.3,0.9l5.8-0.2C23.5,39.2,23.3,38.6,23.2,38.4L23.2,38.4z"/>
<linearGradient id="SVGID_00000089567650013081133770000010991480540068032155_" gradientUnits="userSpaceOnUse" x1="23.0024" y1="42" x2="23.0024" y2="2.0465" gradientTransform="matrix(1 0 0 -1 0 42)">
	<stop  offset="0" style="stop-color:#F29100"/>
	<stop  offset="1" style="stop-color:#EC670F"/>
</linearGradient>
<path style="fill:url(#SVGID_00000089567650013081133770000010991480540068032155_);" d="M40.2,0H5.9C2.7,0,0.1,2.6,0.1,5.8v12.6
	c0.8-0.3,2-2.1,2.4-2.5c0.7-0.7,0.8-1.7,1.1-2.3c0.7-1.4,0.9-2.3,2.5-2.3c0.8,0,1.1,0.2,1.6,0.9c0.4,0.5,1,1.4,1.3,2
	c0.3,0.7,0.9,1.7,1.2,1.9c0.2,0.1,0.4,0.3,0.5,0.3c0.3,0.1,0.5-0.1,0.7-0.2c0.2-0.2,0.3-0.6,0.5-1.1c0.3-0.7,0.6-1.6,0.8-1.9
	c0.3-0.5,0.4-1.1,0.8-1.5c0.5-0.4,1.2-0.5,1.4-0.5c1.1-0.2,1.6,0.5,2.1,1c0.3,0.3,0.8,0.9,1.1,1.8c0.3,0.6,0.6,1.2,0.7,1.6
	c0.1,0.4,0.5,0.9,0.7,1.6c0.2,0.6,0.7,1.1,0.8,1.4c0,0,0.3,0.8,2,1.5c0.4,0.2,1.1,0.4,1.5,0.6c0.7,0.3,1.4,0.2,2.3,0.1
	c0.6,0,1-0.9,1.3-1.7c0.2-0.4,0.3-1.7,0.5-2.1c0.1-0.3-0.1-0.6,0.1-0.9c0.3-0.4,0.4-0.4,0.6-0.8c0.3-1,2.1-1,3.2-1
	c0.9,0,0.7,0.8,2.2,0.5c0.8-0.2,1.6,0.1,2.5,0.3c0.7,0.2,1.4,0.4,1.9,0.9c0.3,0.3,0.9,1.9,0.3,2c0.1,0.1,0.1,0.2,0.2,0.3
	c-0.2,0.6-0.8,0.2-1.2,0.1c-0.5-0.1-0.8,0-1.3,0.2c-0.8,0.4-2,0.3-2.8,0.9c-0.6,0.5-0.6,1.7-0.9,2.3c0,0-0.8,2-2.5,3.3
	c-0.4,0.3-1.3,1.1-3.2,1.4c-0.8,0.1-1.6,0.1-2.5,0.1c-0.4,0-0.8,0-1.3,0c-0.3,0-1.1,0-1.1,0.1l-0.1,0.2c0,0.1,0,0.3,0.1,0.3
	c0,0.2,0,0.3,0.1,0.5c0,0.4,0,0.7,0,1.1c0,0.8,0.3,1.4,0.4,2.2c0,0.8,0.5,1.7,0.9,2.4c0.2,0.3,0.4,0.3,0.5,0.6
	c0.1,0.4,0,0.8,0.1,1.2c0.2,1.5,0.7,3.1,1.4,4.5c0,0,0,0,0,0c0.9-0.1,1.7-0.4,2.8-0.6c2-0.3,4.8-0.1,6.7-0.3
	c4.6-0.4,7.1,1.9,11.2,0.9V5.8C45.9,2.6,43.3,0,40.2,0z M23,27.1C23,27,23,27.1,23,27.1L23,27.1z"/>
<linearGradient id="SVGID_00000104673081434150911260000016506419810385994163_" gradientUnits="userSpaceOnUse" x1="6.4072" y1="16.4857" x2="6.4072" y2="2.3223" gradientTransform="matrix(1 0 0 -1 0 42)">
	<stop  offset="0" style="stop-color:#F29100"/>
	<stop  offset="1" style="stop-color:#EC670F"/>
</linearGradient>
<path style="fill:url(#SVGID_00000104673081434150911260000016506419810385994163_);" d="M10.6,32.4c0.3-0.7,0.5-1.5,0.8-2.2
	c0.3-0.7,0.6-1.7,1.3-2c-0.1-0.1-1.4-0.1-1.8-0.2c-0.4,0-0.8-0.1-1.1-0.2c-0.7-0.1-1.5-0.3-2.2-0.5c-0.4-0.1-1.9-0.6-2.2-0.8
	c-0.7-0.3-1.2-1.2-1.8-1.2c-0.4,0.1-0.7,0.2-0.9,0.6c-0.2,0.3-0.2,0.8-0.4,1.2c-0.1,0.4-0.4,0.8-0.6,1.2c-0.4,0.7-1.2,1.3-1.5,2
	c-0.1,0.1-0.1,0.3-0.2,0.5v7.8c0.4,0.1,0.8,0.1,1.2,0.3c3.2,0.9,4,0.9,7.2,0.6l0.3,0v0c0.2-0.5,0.4-2.2,0.6-2.7
	c0.1-0.4,0.3-0.7,0.4-1.1c0.1-0.4,0-0.8,0-1.1C9.5,33.5,10.3,33.2,10.6,32.4L10.6,32.4z"/>
</svg>
