<svg width="27" height="14" id="Layer_1" data-name="Layer 1" xmlns="http://www.w3.org/2000/svg" viewBox="0 0 27 14"><title>php-logo</title><path d="M2.14,2.94h4A3.05,3.05,0,0,1,8.69,4a3.59,3.59,0,0,1,.53,2.82,5.59,5.59,0,0,1-.47,1.61,4.6,4.6,0,0,1-1,1.42,3.31,3.31,0,0,1-1.6,1,6.9,6.9,0,0,1-1.76.22H2.64L2.08,14H0ZM3.88,4.7,3,9.33h.39a7.55,7.55,0,0,0,2.39-.29c.63-.22,1.06-1,1.28-2.25.18-1.08,0-1.7-.54-1.87a6.6,6.6,0,0,0-2-.23l-.35,0H3.87Z"/><path d="M11.59,0h2.06l-.59,2.94h1.86a3.72,3.72,0,0,1,2.27.65c.51.41.66,1.19.45,2.35l-1,5.13h-2.1l1-4.9a1.44,1.44,0,0,0-.09-1.1,1.26,1.26,0,0,0-1-.32l-1.66,0L11.5,11.07H9.43Z"/><path d="M19.85,2.94h4A3.08,3.08,0,0,1,26.41,4a3.59,3.59,0,0,1,.52,2.82,5.56,5.56,0,0,1-.46,1.61,4.81,4.81,0,0,1-1,1.42,3.31,3.31,0,0,1-1.6,1,6.79,6.79,0,0,1-1.76.22H20.36L19.79,14H17.71ZM21.6,4.7l-.9,4.63h.39a7.51,7.51,0,0,0,2.39-.29q1-.33,1.29-2.25c.17-1.08,0-1.7-.54-1.87a6.67,6.67,0,0,0-2-.23l-.34,0h-.32Z"/></svg>