<svg width="20" height="20" id="Layer_1" data-name="Layer 1" xmlns="http://www.w3.org/2000/svg" viewBox="0 0 20 20"><defs><style>.cls-1{fill:#387ab0;}.cls-2{fill:#feca3d;}</style></defs><title>python-logo-colored</title><path class="cls-1" d="M9.93,0C4.87,0,5.18,2.21,5.18,2.21V4.5H10v.7H3.25S0,4.82,0,10s2.84,5,2.84,5H4.53V12.56A2.71,2.71,0,0,1,7.32,9.7h4.79A2.58,2.58,0,0,0,14.8,7.08V2.67S15.23,0,9.93,0ZM7.26,1.53a.88.88,0,1,1-.87.88A.88.88,0,0,1,7.26,1.53Z"/><path class="cls-2" d="M10.07,20c5.06,0,4.75-2.21,4.75-2.21V15.5H10v-.7h6.76S20,15.18,20,10s-2.84-5-2.84-5H15.47V7.44a2.71,2.71,0,0,1-2.79,2.86H7.89A2.58,2.58,0,0,0,5.2,12.92v4.41S4.77,20,10.07,20Zm2.67-1.53a.88.88,0,1,1,.87-.88A.88.88,0,0,1,12.74,18.47Z"/></svg>