<svg width="20" height="20" data-name="Layer 1" xmlns="http://www.w3.org/2000/svg"><path d="M9.93 0C4.87 0 5.18 2.21 5.18 2.21V4.5H10v.7H3.25S0 4.82 0 10s2.84 5 2.84 5h1.69v-2.44A2.71 2.71 0 0 1 7.32 9.7h4.79a2.58 2.58 0 0 0 2.69-2.62V2.67S15.23 0 9.93 0zM7.26 1.53a.88.88 0 1 1-.87.88.88.88 0 0 1 .87-.88z" style="fill:#387ab0"/><path d="M10.07 20c5.06 0 4.75-2.21 4.75-2.21V15.5H10v-.7h6.76S20 15.18 20 10s-2.84-5-2.84-5h-1.69v2.44a2.71 2.71 0 0 1-2.79 2.86H7.89a2.58 2.58 0 0 0-2.69 2.62v4.41S4.77 20 10.07 20zm2.67-1.53a.88.88 0 1 1 .87-.88.88.88 0 0 1-.87.88z" style="fill:#feca3d"/></svg>