<svg width="20" height="20" id="Layer_1" data-name="Layer 1" xmlns="http://www.w3.org/2000/svg"><defs><style>.cls-1{fill:#b11917}</style></defs><path class="cls-1" d="m2 12.84-.42-1C1.21 11 .86 10.15.51 9.3a.08.08 0 0 1 0-.1C1.23 8 2 6.73 2.67 5.49a.61.61 0 0 1 .12-.16l3.9-3.65a.74.74 0 0 1 .21-.13L10.2.33a.11.11 0 0 1 .1 0l2.77 2v.09c-.47 1.48-.93 3-1.4 4.44a.41.41 0 0 1 0 .09l-5.28 4.87H6.3L2 12.83zM5.12 19.94Q6 16.38 6.9 12.83l6.78 2.63h-.07A22.89 22.89 0 0 1 11 17.58a14.7 14.7 0 0 1-4.29 2 13.17 13.17 0 0 1-1.54.33zM12.68 7.55l6.67-.15c-.08.19-.14.37-.22.55a18.59 18.59 0 0 1-2.54 4.3c-.54.7-1.11 1.35-1.69 2zM7.39 12.08l4.48-4.19 2.21 6.79zM15.29 15.19l.05-.05c.59-.64 1.17-1.29 1.71-2a21.07 21.07 0 0 0 2.38-3.74l.21-.4q-.37 4.79-.73 9.55M19.73 6.08l-5.34-3.9 3.22-1.8a.06.06 0 0 1 .06 0 3.5 3.5 0 0 1 2 2A4.49 4.49 0 0 1 20 3.54a6.5 6.5 0 0 1-.12 1.92c-.07.2-.11.4-.15.62zM18.46 19.09 9 19.74a21.13 21.13 0 0 0 5.66-4l.42.38M12.66 6.67c.4-1.27.8-2.53 1.19-3.8l5 3.65zM4.32 19.48c-.67-1.94-1.43-3.87-2.11-5.81L6 12.83c-.56 2.23-1.12 4.44-1.67 6.65zM1.64 14.4c.64 1.87 1.29 3.73 1.94 5.6h-.3A4.44 4.44 0 0 1 2 19.53 3.32 3.32 0 0 1 .54 18.1 4.57 4.57 0 0 1 .15 17a.19.19 0 0 1 0-.08l1.45-2.49zM11.33 0h5.15l-2.81 1.58h-.09L11.36 0zM0 15.47v-5.12.08c.39.94.79 1.89 1.18 2.84a.08.08 0 0 1 0 .1L0 15.42a.13.13 0 0 1 0 .05z"/></svg>