<svg width="20" height="20" id="Layer_1" data-name="Layer 1" xmlns="http://www.w3.org/2000/svg" viewBox="0 0 20 20"><defs><style>.cls-1{fill:#b11917;}</style></defs><title>ruby-logo-colored</title><path class="cls-1" d="M2,12.84l-.42-1C1.21,11,.86,10.15.51,9.3a.08.08,0,0,1,0-.1C1.23,8,2,6.73,2.67,5.49a.61.61,0,0,1,.12-.16l3.9-3.65a.74.74,0,0,1,.21-.13L10.2.33a.11.11,0,0,1,.1,0l2.77,2s0,0,0,.09c-.47,1.48-.93,3-1.4,4.44a.41.41,0,0,1,0,.09L6.39,11.82l-.09,0L2,12.83Z"/><path class="cls-1" d="M5.12,19.94Q6,16.38,6.9,12.83l6.78,2.63-.07,0A22.89,22.89,0,0,1,11,17.58a14.7,14.7,0,0,1-4.29,2,13.17,13.17,0,0,1-1.54.33Z"/><path class="cls-1" d="M12.68,7.55l6.67-.15c-.08.19-.14.37-.22.55a18.59,18.59,0,0,1-2.54,4.3c-.54.7-1.11,1.35-1.69,2l0,0Z"/><path class="cls-1" d="M7.39,12.08l4.48-4.19,2.21,6.79Z"/><path class="cls-1" d="M15.29,15.19l0,0,.05-.05c.59-.64,1.17-1.29,1.71-2A21.07,21.07,0,0,0,19.43,9.4L19.64,9h0q-.37,4.79-.73,9.55"/><path class="cls-1" d="M19.73,6.08l-5.34-3.9,0,0L17.61.38a.06.06,0,0,1,.06,0,3.5,3.5,0,0,1,2,2A4.49,4.49,0,0,1,20,3.54a6.5,6.5,0,0,1-.12,1.92C19.81,5.66,19.77,5.86,19.73,6.08Z"/><path class="cls-1" d="M18.46,19.09,9,19.74a21.13,21.13,0,0,0,5.66-4l.42.38"/><path class="cls-1" d="M12.66,6.67c.4-1.27.8-2.53,1.19-3.8l5,3.65h0Z"/><path class="cls-1" d="M4.32,19.48c-.67-1.94-1.43-3.87-2.11-5.81L6,12.83c-.56,2.23-1.12,4.44-1.67,6.65Z"/><path class="cls-1" d="M1.64,14.4c.64,1.87,1.29,3.73,1.94,5.6l-.3,0A4.44,4.44,0,0,1,2,19.53,3.32,3.32,0,0,1,.54,18.1,4.57,4.57,0,0,1,.15,17a.19.19,0,0,1,0-.08l1.45-2.49Z"/><path class="cls-1" d="M11.33,0h5.15l0,0L13.67,1.58s-.06,0-.09,0L11.36,0Z"/><path class="cls-1" d="M0,15.47V10.35l0,.08c.39.94.79,1.89,1.18,2.84a.08.08,0,0,1,0,.1L0,15.42A.13.13,0,0,1,0,15.47Z"/></svg>