<svg width="22" height="22" data-name="Layer 1" xmlns="http://www.w3.org/2000/svg"><path d="m21.85 10.73-.92-.57v-.27l.79-.74a.34.34 0 0 0 .1-.3.33.33 0 0 0-.2-.23l-1-.38a2 2 0 0 0-.13-.24l.64-.88a.34.34 0 0 0 0-.31.31.31 0 0 0-.24-.19l-1.07-.18c0-.08-.08-.16-.13-.24l.45-1a.31.31 0 0 0-.3-.45h-1.08l-.18-.21.25-1.06a.31.31 0 0 0-.38-.38l-1.06.25a1.73 1.73 0 0 0-.21-.17V2.09a.32.32 0 0 0-.14-.28.31.31 0 0 0-.31 0l-1 .45-.24-.13-.09-1.05a.31.31 0 0 0-.19-.24.34.34 0 0 0-.31 0l-.9.67-.26-.08-.38-1a.33.33 0 0 0-.23-.2.34.34 0 0 0-.3.1l-.74.79h-.27l-.55-.97a.32.32 0 0 0-.54 0l-.57.92h-.27L9.15.31a.32.32 0 0 0-.53.1l-.38 1-.24.1-.9-.64a.32.32 0 0 0-.5.21l-.18 1.07-.24.13-1-.45a.31.31 0 0 0-.31 0 .32.32 0 0 0-.14.28V3.2l-.21.17-1-.23a.31.31 0 0 0-.38.38l.25 1.06-.17.21H2.13a.32.32 0 0 0-.28.14.31.31 0 0 0 0 .31l.45 1-.13.24-1.09.12a.31.31 0 0 0-.24.19.34.34 0 0 0 0 .31l.67.9a2 2 0 0 0-.08.26l-1 .38a.33.33 0 0 0-.2.23.34.34 0 0 0 .1.3l.79.74v.27l-.92.57a.32.32 0 0 0 0 .54l.92.57v.27l-.79.74a.34.34 0 0 0-.1.3.33.33 0 0 0 .2.23l1 .38a2 2 0 0 0 .08.26l-.64.88a.34.34 0 0 0 0 .31.31.31 0 0 0 .24.19l1.07.18.13.24-.45 1a.31.31 0 0 0 0 .31.32.32 0 0 0 .28.14h1.09a1.73 1.73 0 0 0 .17.21l-.25 1.06a.31.31 0 0 0 .38.38l1.06-.25.21.17v1.09a.32.32 0 0 0 .14.28.31.31 0 0 0 .31 0l1-.45.24.13.18 1.07a.31.31 0 0 0 .19.24.34.34 0 0 0 .31 0l.83-.73.26.08.38 1a.33.33 0 0 0 .23.2.34.34 0 0 0 .3-.1l.74-.79h.27l.57.92a.32.32 0 0 0 .54 0l.57-.92h.27l.74.79a.34.34 0 0 0 .3.1.33.33 0 0 0 .23-.2l.38-1 .26-.08.88.64a.34.34 0 0 0 .31 0 .31.31 0 0 0 .19-.24l.18-1.07.24-.13 1 .45a.31.31 0 0 0 .31 0 .32.32 0 0 0 .14-.28v-1.09a1.73 1.73 0 0 0 .21-.17l1.06.25a.31.31 0 0 0 .38-.38l-.25-1.06.18-.21h1.08a.31.31 0 0 0 .3-.45l-.45-1c.05-.08.09-.16.13-.24l1.07-.18a.31.31 0 0 0 .24-.19.34.34 0 0 0 0-.31l-.75-.83a2 2 0 0 0 .08-.26l1-.38a.33.33 0 0 0 .2-.23.34.34 0 0 0-.1-.3l-.79-.74v-.27l.92-.57a.32.32 0 0 0 0-.54zm-6.18 7.66a.65.65 0 0 1 .27-1.28.66.66 0 0 1 .5.78.64.64 0 0 1-.77.5zm-.32-2.12a.59.59 0 0 0-.7.46l-.33 1.53A8 8 0 0 1 11 19a8.16 8.16 0 0 1-3.39-.74l-.33-1.56a.58.58 0 0 0-.7-.46l-1.35.29a7.88 7.88 0 0 1-.7-.83h6.57c.08 0 .12 0 .12-.08V13.3c0-.07 0-.08-.12-.08H9.18v-1.48h2.08a1.32 1.32 0 0 1 1.28 1.11c.08.33.26 1.38.38 1.72s.63 1.13 1.17 1.13h3.39a10.43 10.43 0 0 1-.74.88zm-9.09 2.09a.64.64 0 0 1-.77-.5.65.65 0 0 1 .5-.78.65.65 0 0 1 .27 1.28zM3.77 8.25a.65.65 0 1 1-.86-.33.64.64 0 0 1 .86.33zM3 10.07l1.41-.63a.59.59 0 0 0 .3-.79L4.42 8h1.14v5.14h-2.3A8.54 8.54 0 0 1 3 10.07zm6.18-.5V8.05h2.71c.14 0 1 .16 1 .8s-.65.72-1.18.72zM19 10.93v.6h-.8c-.09 0-.12.05-.12.13V12c0 .89-.5 1.09-.94 1.14s-.89-.18-.95-.44a2.81 2.81 0 0 0-1.31-2.2 3 3 0 0 0 1.65-2.29 2.59 2.59 0 0 0-1.26-2.12 3.63 3.63 0 0 0-1.73-.57H5A8.07 8.07 0 0 1 9.51 3l1 1.06a.6.6 0 0 0 .85 0L12.48 3A8.07 8.07 0 0 1 18 6.94l-.77 1.74a.59.59 0 0 0 .3.79l1.48.66a7 7 0 0 1-.01.8zm-8.53-8.8a.66.66 0 0 1 .93 0 .65.65 0 0 1 0 .92.66.66 0 0 1-.93 0 .65.65 0 0 1 .04-.92zm7.65 6.15A.65.65 0 0 1 19 8a.65.65 0 1 1-.86.33z"/></svg>