<svg width="20" height="18" xmlns="http://www.w3.org/2000/svg" viewBox="0 0 40 36"><defs><linearGradient id="a" x2="50%" x1="50%" y2="100%"><stop stop-color="#F88A36" offset="0"/><stop stop-color="#FD2020" offset="1"/></linearGradient></defs><path d="M29.885 33.047c-4.667 2.696-11.084 2.973-17.54.206C7.118 31.029 2.78 27.136 0 22.688c1.335 1.112 2.892 2.002 4.56 2.78 6.667 3.125 13.333 2.911 18.024.008l-.007-.008C15.904 20.352 10.232 13.679 6.006 8.23c-.89-.89-1.558-2.002-2.225-3.003 5.116 4.671 13.235 10.565 16.126 12.234C13.791 11.011 8.341 3.003 8.563 3.225c9.676 9.787 18.685 15.348 18.685 15.348.298.168.528.308.713.433.195-.496.366-1.01.51-1.545 1.557-5.672-.222-12.123-4.115-17.46 9.008 5.449 14.347 15.68 12.122 24.244-.058.231-.12.46-.189.683l.078.096c4.448 5.561 3.225 11.455 2.67 10.343-2.414-4.722-6.88-3.278-9.152-2.32z" fill="url(#a)"/></svg>