<?xml version="1.0" encoding="UTF-8" standalone="no"?><!-- Generator: Gravit.io --><svg xmlns="http://www.w3.org/2000/svg" xmlns:xlink="http://www.w3.org/1999/xlink" style="isolation:isolate" viewBox="0 0 32 32" width="24px" height="24px"><defs><clipPath id="_clipPath_ufTXO6xqzZr110CHnBiHYhaulAuRvYq4"><rect width="32" height="32"/></clipPath></defs><g clip-path="url(#_clipPath_ufTXO6xqzZr110CHnBiHYhaulAuRvYq4)"><path d=" M 20.786 30.237 L 30.948 1.978 C 31.121 1.499 30.849 1.15 30.342 1.198 L 22.35 1.968 C 21.843 2.017 21.296 2.447 21.128 2.928 L 11.722 29.935 C 11.555 30.416 11.832 30.806 12.341 30.806 L 20.12 30.806 C 20.375 30.806 20.651 30.612 20.737 30.372 L 20.786 30.237 Z " fill="rgb(83,107,138)"/><path d=" M 1.658 1.198 L 9.65 1.968 C 10.157 2.017 10.705 2.447 10.873 2.928 L 20.478 30.371 C 20.562 30.611 20.424 30.806 20.169 30.806 L 12.341 30.806 C 11.832 30.806 11.279 30.417 11.106 29.938 L 1.052 1.978 C 0.879 1.499 1.151 1.15 1.658 1.198 Z " fill="rgb(93,135,191)"/></g></svg>