<svg width="20" height="22" id="Layer_1" data-name="Layer 1" xmlns="http://www.w3.org/2000/svg" viewBox="0 0 20 22"><defs><style>.cls-1{fill:#7f8b99;}.cls-2{fill:#a9b9cb;}.cls-3{fill:#fff;}</style></defs><title>c-logo-colored</title><path class="cls-1" d="M1,17.22l2.19,1.24L16.79,3.54,11,.26a2,2,0,0,0-2,0L1,4.78A2,2,0,0,0,0,6.52v9A2,2,0,0,0,1,17.22Z"/><path class="cls-2" d="M19,4.78,16.79,3.54,3.21,18.46,9,21.74a2,2,0,0,0,2,0l8-4.52a2,2,0,0,0,1-1.74v-9A2,2,0,0,0,19,4.78Z"/><path class="cls-3" d="M12.07,9.58l3.11,0A4.84,4.84,0,0,0,10.1,5.25,5.42,5.42,0,0,0,4.48,11a5.31,5.31,0,0,0,5.62,5.66c4,0,4.94-2.86,4.94-4.38h-3a1.73,1.73,0,0,1-2,1.75c-1.91,0-2.22-2.27-2.22-3,0-1.18.42-3,2.22-3A1.86,1.86,0,0,1,12.07,9.58Z"/></svg>