<svg width="22" height="22" id="Layer_1" data-name="Layer 1" xmlns="http://www.w3.org/2000/svg" viewBox="0 0 22 22"><title>rust-logo</title><path d="M21.85,10.73l-.92-.57,0-.27.79-.74a.34.34,0,0,0,.1-.3.33.33,0,0,0-.2-.23l-1-.38A2,2,0,0,0,20.49,8l.64-.88a.34.34,0,0,0,0-.31.31.31,0,0,0-.24-.19l-1.07-.18c0-.08-.08-.16-.13-.24l.45-1a.31.31,0,0,0-.3-.45l-1.08,0-.18-.21.25-1.06a.31.31,0,0,0-.38-.38l-1.06.25a1.73,1.73,0,0,0-.21-.17l0-1.09a.32.32,0,0,0-.14-.28.31.31,0,0,0-.31,0l-1,.45-.24-.13L15.4,1.08a.31.31,0,0,0-.19-.24.34.34,0,0,0-.31,0L14,1.51l-.26-.08-.38-1a.33.33,0,0,0-.23-.2.34.34,0,0,0-.3.1l-.74.79-.27,0L11.27.15a.32.32,0,0,0-.54,0l-.57.92-.27,0L9.15.31a.32.32,0,0,0-.53.1l-.38,1L8,1.51,7.1.87a.32.32,0,0,0-.5.21L6.42,2.15l-.24.13-1-.45a.31.31,0,0,0-.31,0,.32.32,0,0,0-.14.28l0,1.09-.21.17L3.52,3.14a.31.31,0,0,0-.38.38l.25,1.06-.17.21-1.09,0a.32.32,0,0,0-.28.14.31.31,0,0,0,0,.31l.45,1-.13.24L1.08,6.6a.31.31,0,0,0-.24.19.34.34,0,0,0,0,.31L1.51,8a2,2,0,0,0-.08.26l-1,.38a.33.33,0,0,0-.2.23.34.34,0,0,0,.1.3l.79.74,0,.27-.92.57a.32.32,0,0,0,0,.54l.92.57,0,.27-.79.74a.34.34,0,0,0-.1.3.33.33,0,0,0,.2.23l1,.38a2,2,0,0,0,.08.26l-.64.88a.34.34,0,0,0,0,.31.31.31,0,0,0,.24.19l1.07.18.13.24-.45,1a.31.31,0,0,0,0,.31.32.32,0,0,0,.28.14l1.09,0a1.73,1.73,0,0,0,.17.21l-.25,1.06a.31.31,0,0,0,.38.38l1.06-.25.21.17,0,1.09a.32.32,0,0,0,.14.28.31.31,0,0,0,.31,0l1-.45.24.13.18,1.07a.31.31,0,0,0,.19.24.34.34,0,0,0,.31,0L8,20.49l.26.08.38,1a.33.33,0,0,0,.23.2.34.34,0,0,0,.3-.1l.74-.79.27,0,.57.92a.32.32,0,0,0,.54,0l.57-.92.27,0,.74.79a.34.34,0,0,0,.3.1.33.33,0,0,0,.23-.2l.38-1,.26-.08.88.64a.34.34,0,0,0,.31,0,.31.31,0,0,0,.19-.24l.18-1.07.24-.13,1,.45a.31.31,0,0,0,.31,0,.32.32,0,0,0,.14-.28l0-1.09a1.73,1.73,0,0,0,.21-.17l1.06.25a.31.31,0,0,0,.38-.38l-.25-1.06.18-.21,1.08,0a.31.31,0,0,0,.3-.45l-.45-1c.05-.08.09-.16.13-.24l1.07-.18a.31.31,0,0,0,.24-.19.34.34,0,0,0,0-.31L20.49,14a2,2,0,0,0,.08-.26l1-.38a.33.33,0,0,0,.2-.23.34.34,0,0,0-.1-.3l-.79-.74,0-.27.92-.57a.32.32,0,0,0,0-.54Zm-6.18,7.66a.65.65,0,0,1,.27-1.28.66.66,0,0,1,.5.78A.64.64,0,0,1,15.67,18.39Zm-.32-2.12a.59.59,0,0,0-.7.46l-.33,1.53A8,8,0,0,1,11,19a8.16,8.16,0,0,1-3.39-.74L7.28,16.7a.58.58,0,0,0-.7-.46l-1.35.29a7.88,7.88,0,0,1-.7-.83H11.1c.08,0,.12,0,.12-.08V13.3c0-.07,0-.08-.12-.08H9.18V11.74h2.08a1.32,1.32,0,0,1,1.28,1.11c.08.33.26,1.38.38,1.72s.63,1.13,1.17,1.13h3.39a10.43,10.43,0,0,1-.74.88ZM6.26,18.36a.64.64,0,0,1-.77-.5.65.65,0,0,1,.5-.78.65.65,0,0,1,.27,1.28ZM3.77,8.25a.65.65,0,1,1-.86-.33A.64.64,0,0,1,3.77,8.25ZM3,10.07l1.41-.63a.59.59,0,0,0,.3-.79L4.42,8H5.56v5.14H3.26A8.54,8.54,0,0,1,3,10.07Zm6.18-.5V8.05h2.71c.14,0,1,.16,1,.8s-.65.72-1.18.72ZM19,10.93c0,.2,0,.4,0,.6H18.2c-.09,0-.12.05-.12.13V12c0,.89-.5,1.09-.94,1.14s-.89-.18-.95-.44a2.81,2.81,0,0,0-1.31-2.2,3,3,0,0,0,1.65-2.29,2.59,2.59,0,0,0-1.26-2.12,3.63,3.63,0,0,0-1.73-.57H5A8.07,8.07,0,0,1,9.51,3l1,1.06a.6.6,0,0,0,.85,0L12.48,3A8.07,8.07,0,0,1,18,6.94l-.77,1.74a.59.59,0,0,0,.3.79l1.48.66A7,7,0,0,1,19,10.93Zm-8.53-8.8a.66.66,0,0,1,.93,0,.65.65,0,0,1,0,.92.66.66,0,0,1-.93,0A.65.65,0,0,1,10.51,2.13Zm7.65,6.15A.65.65,0,0,1,19,8a.65.65,0,1,1-.86.33Z"/></svg>