<?xml version="1.0" encoding="utf-8" standalone="no"?>
<!DOCTYPE svg PUBLIC "-//W3C//DTD SVG 1.1//EN"
  "http://www.w3.org/Graphics/SVG/1.1/DTD/svg11.dtd">
<svg xmlns:xlink="http://www.w3.org/1999/xlink" width="1008pt" height="576pt" viewBox="0 0 1008 576" xmlns="http://www.w3.org/2000/svg" version="1.1">
 <metadata>
  <rdf:RDF xmlns:dc="http://purl.org/dc/elements/1.1/" xmlns:cc="http://creativecommons.org/ns#" xmlns:rdf="http://www.w3.org/1999/02/22-rdf-syntax-ns#">
   <cc:Work>
    <dc:type rdf:resource="http://purl.org/dc/dcmitype/StillImage"/>
    <dc:date>2026-03-05T14:32:12.545460</dc:date>
    <dc:format>image/svg+xml</dc:format>
    <dc:creator>
     <cc:Agent>
      <dc:title>Matplotlib v3.10.8, https://matplotlib.org/</dc:title>
     </cc:Agent>
    </dc:creator>
   </cc:Work>
  </rdf:RDF>
 </metadata>
 <defs>
  <style type="text/css">*{stroke-linejoin: round; stroke-linecap: butt}</style>
 </defs>
 <g id="figure_1">
  <g id="patch_1">
   <path d="M 0 576 
L 1008 576 
L 1008 0 
L 0 0 
z
" style="fill: #ffffff"/>
  </g>
  <g id="axes_1">
   <g id="patch_2">
    <path d="M 126 512.64 
L 907.2 512.64 
L 907.2 69.12 
L 126 69.12 
z
" style="fill: #ffffff"/>
   </g>
   <g id="patch_3">
    <path d="M 161.509091 512.64 
L 266.721212 512.64 
L 266.721212 255.445335 
L 161.509091 255.445335 
z
" clip-path="url(#p8f0934e35a)" style="fill: #1f77b4"/>
   </g>
   <g id="patch_4">
    <path d="M 556.054545 512.64 
L 661.266667 512.64 
L 661.266667 255.445335 
L 556.054545 255.445335 
z
" clip-path="url(#p8f0934e35a)" style="fill: #1f77b4"/>
   </g>
   <g id="patch_5">
    <path d="M 266.721212 512.64 
L 371.933333 512.64 
L 371.933333 185.515342 
L 266.721212 185.515342 
z
" clip-path="url(#p8f0934e35a)" style="fill: #ff7f0e"/>
   </g>
   <g id="patch_6">
    <path d="M 661.266667 512.64 
L 766.478788 512.64 
L 766.478788 90.24 
L 661.266667 90.24 
z
" clip-path="url(#p8f0934e35a)" style="fill: #ff7f0e"/>
   </g>
   <g id="patch_7">
    <path d="M 371.933333 512.64 
L 477.145455 512.64 
L 477.145455 198.659457 
L 371.933333 198.659457 
z
" clip-path="url(#p8f0934e35a)" style="fill: #2ca02c"/>
   </g>
   <g id="patch_8">
    <path d="M 766.478788 512.64 
L 871.690909 512.64 
L 871.690909 133.023435 
L 766.478788 133.023435 
z
" clip-path="url(#p8f0934e35a)" style="fill: #2ca02c"/>
   </g>
   <g id="matplotlib.axis_1">
    <g id="xtick_1">
     <g id="line2d_1">
      <defs>
       <path id="m3b2e86ed86" d="M 0 0 
L 0 3.5 
" style="stroke: #000000; stroke-width: 0.8"/>
      </defs>
      <g>
       <use xlink:href="#m3b2e86ed86" x="319.327273" y="512.64" style="stroke: #000000; stroke-width: 0.8"/>
      </g>
     </g>
     <g id="text_1">
      <!-- php-benchmark -->
      <g transform="translate(279.783523 527.238438) scale(0.1 -0.1)">
       <defs>
        <path id="DejaVuSans-70" d="M 1159 525 
L 1159 -1331 
L 581 -1331 
L 581 3500 
L 1159 3500 
L 1159 2969 
Q 1341 3281 1617 3432 
Q 1894 3584 2278 3584 
Q 2916 3584 3314 3078 
Q 3713 2572 3713 1747 
Q 3713 922 3314 415 
Q 2916 -91 2278 -91 
Q 1894 -91 1617 61 
Q 1341 213 1159 525 
z
M 3116 1747 
Q 3116 2381 2855 2742 
Q 2594 3103 2138 3103 
Q 1681 3103 1420 2742 
Q 1159 2381 1159 1747 
Q 1159 1113 1420 752 
Q 1681 391 2138 391 
Q 2594 391 2855 752 
Q 3116 1113 3116 1747 
z
" transform="scale(0.015625)"/>
        <path id="DejaVuSans-68" d="M 3513 2113 
L 3513 0 
L 2938 0 
L 2938 2094 
Q 2938 2591 2744 2837 
Q 2550 3084 2163 3084 
Q 1697 3084 1428 2787 
Q 1159 2491 1159 1978 
L 1159 0 
L 581 0 
L 581 4863 
L 1159 4863 
L 1159 2956 
Q 1366 3272 1645 3428 
Q 1925 3584 2291 3584 
Q 2894 3584 3203 3211 
Q 3513 2838 3513 2113 
z
" transform="scale(0.015625)"/>
        <path id="DejaVuSans-2d" d="M 313 2009 
L 1997 2009 
L 1997 1497 
L 313 1497 
L 313 2009 
z
" transform="scale(0.015625)"/>
        <path id="DejaVuSans-62" d="M 3116 1747 
Q 3116 2381 2855 2742 
Q 2594 3103 2138 3103 
Q 1681 3103 1420 2742 
Q 1159 2381 1159 1747 
Q 1159 1113 1420 752 
Q 1681 391 2138 391 
Q 2594 391 2855 752 
Q 3116 1113 3116 1747 
z
M 1159 2969 
Q 1341 3281 1617 3432 
Q 1894 3584 2278 3584 
Q 2916 3584 3314 3078 
Q 3713 2572 3713 1747 
Q 3713 922 3314 415 
Q 2916 -91 2278 -91 
Q 1894 -91 1617 61 
Q 1341 213 1159 525 
L 1159 0 
L 581 0 
L 581 4863 
L 1159 4863 
L 1159 2969 
z
" transform="scale(0.015625)"/>
        <path id="DejaVuSans-65" d="M 3597 1894 
L 3597 1613 
L 953 1613 
Q 991 1019 1311 708 
Q 1631 397 2203 397 
Q 2534 397 2845 478 
Q 3156 559 3463 722 
L 3463 178 
Q 3153 47 2828 -22 
Q 2503 -91 2169 -91 
Q 1331 -91 842 396 
Q 353 884 353 1716 
Q 353 2575 817 3079 
Q 1281 3584 2069 3584 
Q 2775 3584 3186 3129 
Q 3597 2675 3597 1894 
z
M 3022 2063 
Q 3016 2534 2758 2815 
Q 2500 3097 2075 3097 
Q 1594 3097 1305 2825 
Q 1016 2553 972 2059 
L 3022 2063 
z
" transform="scale(0.015625)"/>
        <path id="DejaVuSans-6e" d="M 3513 2113 
L 3513 0 
L 2938 0 
L 2938 2094 
Q 2938 2591 2744 2837 
Q 2550 3084 2163 3084 
Q 1697 3084 1428 2787 
Q 1159 2491 1159 1978 
L 1159 0 
L 581 0 
L 581 3500 
L 1159 3500 
L 1159 2956 
Q 1366 3272 1645 3428 
Q 1925 3584 2291 3584 
Q 2894 3584 3203 3211 
Q 3513 2838 3513 2113 
z
" transform="scale(0.015625)"/>
        <path id="DejaVuSans-63" d="M 3122 3366 
L 3122 2828 
Q 2878 2963 2633 3030 
Q 2388 3097 2138 3097 
Q 1578 3097 1268 2742 
Q 959 2388 959 1747 
Q 959 1106 1268 751 
Q 1578 397 2138 397 
Q 2388 397 2633 464 
Q 2878 531 3122 666 
L 3122 134 
Q 2881 22 2623 -34 
Q 2366 -91 2075 -91 
Q 1284 -91 818 406 
Q 353 903 353 1747 
Q 353 2603 823 3093 
Q 1294 3584 2113 3584 
Q 2378 3584 2631 3529 
Q 2884 3475 3122 3366 
z
" transform="scale(0.015625)"/>
        <path id="DejaVuSans-6d" d="M 3328 2828 
Q 3544 3216 3844 3400 
Q 4144 3584 4550 3584 
Q 5097 3584 5394 3201 
Q 5691 2819 5691 2113 
L 5691 0 
L 5113 0 
L 5113 2094 
Q 5113 2597 4934 2840 
Q 4756 3084 4391 3084 
Q 3944 3084 3684 2787 
Q 3425 2491 3425 1978 
L 3425 0 
L 2847 0 
L 2847 2094 
Q 2847 2600 2669 2842 
Q 2491 3084 2119 3084 
Q 1678 3084 1418 2786 
Q 1159 2488 1159 1978 
L 1159 0 
L 581 0 
L 581 3500 
L 1159 3500 
L 1159 2956 
Q 1356 3278 1631 3431 
Q 1906 3584 2284 3584 
Q 2666 3584 2933 3390 
Q 3200 3197 3328 2828 
z
" transform="scale(0.015625)"/>
        <path id="DejaVuSans-61" d="M 2194 1759 
Q 1497 1759 1228 1600 
Q 959 1441 959 1056 
Q 959 750 1161 570 
Q 1363 391 1709 391 
Q 2188 391 2477 730 
Q 2766 1069 2766 1631 
L 2766 1759 
L 2194 1759 
z
M 3341 1997 
L 3341 0 
L 2766 0 
L 2766 531 
Q 2569 213 2275 61 
Q 1981 -91 1556 -91 
Q 1019 -91 701 211 
Q 384 513 384 1019 
Q 384 1609 779 1909 
Q 1175 2209 1959 2209 
L 2766 2209 
L 2766 2266 
Q 2766 2663 2505 2880 
Q 2244 3097 1772 3097 
Q 1472 3097 1187 3025 
Q 903 2953 641 2809 
L 641 3341 
Q 956 3463 1253 3523 
Q 1550 3584 1831 3584 
Q 2591 3584 2966 3190 
Q 3341 2797 3341 1997 
z
" transform="scale(0.015625)"/>
        <path id="DejaVuSans-72" d="M 2631 2963 
Q 2534 3019 2420 3045 
Q 2306 3072 2169 3072 
Q 1681 3072 1420 2755 
Q 1159 2438 1159 1844 
L 1159 0 
L 581 0 
L 581 3500 
L 1159 3500 
L 1159 2956 
Q 1341 3275 1631 3429 
Q 1922 3584 2338 3584 
Q 2397 3584 2469 3576 
Q 2541 3569 2628 3553 
L 2631 2963 
z
" transform="scale(0.015625)"/>
        <path id="DejaVuSans-6b" d="M 581 4863 
L 1159 4863 
L 1159 1991 
L 2875 3500 
L 3609 3500 
L 1753 1863 
L 3688 0 
L 2938 0 
L 1159 1709 
L 1159 0 
L 581 0 
L 581 4863 
z
" transform="scale(0.015625)"/>
       </defs>
       <use xlink:href="#DejaVuSans-70"/>
       <use xlink:href="#DejaVuSans-68" transform="translate(63.476562 0)"/>
       <use xlink:href="#DejaVuSans-70" transform="translate(126.855469 0)"/>
       <use xlink:href="#DejaVuSans-2d" transform="translate(190.332031 0)"/>
       <use xlink:href="#DejaVuSans-62" transform="translate(226.416016 0)"/>
       <use xlink:href="#DejaVuSans-65" transform="translate(289.892578 0)"/>
       <use xlink:href="#DejaVuSans-6e" transform="translate(351.416016 0)"/>
       <use xlink:href="#DejaVuSans-63" transform="translate(414.794922 0)"/>
       <use xlink:href="#DejaVuSans-68" transform="translate(469.775391 0)"/>
       <use xlink:href="#DejaVuSans-6d" transform="translate(533.154297 0)"/>
       <use xlink:href="#DejaVuSans-61" transform="translate(630.566406 0)"/>
       <use xlink:href="#DejaVuSans-72" transform="translate(691.845703 0)"/>
       <use xlink:href="#DejaVuSans-6b" transform="translate(732.958984 0)"/>
      </g>
     </g>
    </g>
    <g id="xtick_2">
     <g id="line2d_2">
      <g>
       <use xlink:href="#m3b2e86ed86" x="713.872727" y="512.64" style="stroke: #000000; stroke-width: 0.8"/>
      </g>
     </g>
     <g id="text_2">
      <!-- pystone -->
      <g transform="translate(693.869602 527.238438) scale(0.1 -0.1)">
       <defs>
        <path id="DejaVuSans-79" d="M 2059 -325 
Q 1816 -950 1584 -1140 
Q 1353 -1331 966 -1331 
L 506 -1331 
L 506 -850 
L 844 -850 
Q 1081 -850 1212 -737 
Q 1344 -625 1503 -206 
L 1606 56 
L 191 3500 
L 800 3500 
L 1894 763 
L 2988 3500 
L 3597 3500 
L 2059 -325 
z
" transform="scale(0.015625)"/>
        <path id="DejaVuSans-73" d="M 2834 3397 
L 2834 2853 
Q 2591 2978 2328 3040 
Q 2066 3103 1784 3103 
Q 1356 3103 1142 2972 
Q 928 2841 928 2578 
Q 928 2378 1081 2264 
Q 1234 2150 1697 2047 
L 1894 2003 
Q 2506 1872 2764 1633 
Q 3022 1394 3022 966 
Q 3022 478 2636 193 
Q 2250 -91 1575 -91 
Q 1294 -91 989 -36 
Q 684 19 347 128 
L 347 722 
Q 666 556 975 473 
Q 1284 391 1588 391 
Q 1994 391 2212 530 
Q 2431 669 2431 922 
Q 2431 1156 2273 1281 
Q 2116 1406 1581 1522 
L 1381 1569 
Q 847 1681 609 1914 
Q 372 2147 372 2553 
Q 372 3047 722 3315 
Q 1072 3584 1716 3584 
Q 2034 3584 2315 3537 
Q 2597 3491 2834 3397 
z
" transform="scale(0.015625)"/>
        <path id="DejaVuSans-74" d="M 1172 4494 
L 1172 3500 
L 2356 3500 
L 2356 3053 
L 1172 3053 
L 1172 1153 
Q 1172 725 1289 603 
Q 1406 481 1766 481 
L 2356 481 
L 2356 0 
L 1766 0 
Q 1100 0 847 248 
Q 594 497 594 1153 
L 594 3053 
L 172 3053 
L 172 3500 
L 594 3500 
L 594 4494 
L 1172 4494 
z
" transform="scale(0.015625)"/>
        <path id="DejaVuSans-6f" d="M 1959 3097 
Q 1497 3097 1228 2736 
Q 959 2375 959 1747 
Q 959 1119 1226 758 
Q 1494 397 1959 397 
Q 2419 397 2687 759 
Q 2956 1122 2956 1747 
Q 2956 2369 2687 2733 
Q 2419 3097 1959 3097 
z
M 1959 3584 
Q 2709 3584 3137 3096 
Q 3566 2609 3566 1747 
Q 3566 888 3137 398 
Q 2709 -91 1959 -91 
Q 1206 -91 779 398 
Q 353 888 353 1747 
Q 353 2609 779 3096 
Q 1206 3584 1959 3584 
z
" transform="scale(0.015625)"/>
       </defs>
       <use xlink:href="#DejaVuSans-70"/>
       <use xlink:href="#DejaVuSans-79" transform="translate(63.476562 0)"/>
       <use xlink:href="#DejaVuSans-73" transform="translate(122.65625 0)"/>
       <use xlink:href="#DejaVuSans-74" transform="translate(174.755859 0)"/>
       <use xlink:href="#DejaVuSans-6f" transform="translate(213.964844 0)"/>
       <use xlink:href="#DejaVuSans-6e" transform="translate(275.146484 0)"/>
       <use xlink:href="#DejaVuSans-65" transform="translate(338.525391 0)"/>
      </g>
     </g>
    </g>
   </g>
   <g id="matplotlib.axis_2">
    <g id="ytick_1">
     <g id="line2d_3">
      <path d="M 126 512.64 
L 907.2 512.64 
" clip-path="url(#p8f0934e35a)" style="fill: none; stroke-dasharray: 2.96,1.28; stroke-dashoffset: 0; stroke: #b0b0b0; stroke-opacity: 0.4; stroke-width: 0.8"/>
     </g>
     <g id="line2d_4">
      <defs>
       <path id="m4c7b7df763" d="M 0 0 
L -3.5 0 
" style="stroke: #000000; stroke-width: 0.8"/>
      </defs>
      <g>
       <use xlink:href="#m4c7b7df763" x="126" y="512.64" style="stroke: #000000; stroke-width: 0.8"/>
      </g>
     </g>
     <g id="text_3">
      <!-- 0 -->
      <g transform="translate(112.6375 516.439219) scale(0.1 -0.1)">
       <defs>
        <path id="DejaVuSans-30" d="M 2034 4250 
Q 1547 4250 1301 3770 
Q 1056 3291 1056 2328 
Q 1056 1369 1301 889 
Q 1547 409 2034 409 
Q 2525 409 2770 889 
Q 3016 1369 3016 2328 
Q 3016 3291 2770 3770 
Q 2525 4250 2034 4250 
z
M 2034 4750 
Q 2819 4750 3233 4129 
Q 3647 3509 3647 2328 
Q 3647 1150 3233 529 
Q 2819 -91 2034 -91 
Q 1250 -91 836 529 
Q 422 1150 422 2328 
Q 422 3509 836 4129 
Q 1250 4750 2034 4750 
z
" transform="scale(0.015625)"/>
       </defs>
       <use xlink:href="#DejaVuSans-30"/>
      </g>
     </g>
    </g>
    <g id="ytick_2">
     <g id="line2d_5">
      <path d="M 126 461.201067 
L 907.2 461.201067 
" clip-path="url(#p8f0934e35a)" style="fill: none; stroke-dasharray: 2.96,1.28; stroke-dashoffset: 0; stroke: #b0b0b0; stroke-opacity: 0.4; stroke-width: 0.8"/>
     </g>
     <g id="line2d_6">
      <g>
       <use xlink:href="#m4c7b7df763" x="126" y="461.201067" style="stroke: #000000; stroke-width: 0.8"/>
      </g>
     </g>
     <g id="text_4">
      <!-- 20 -->
      <g transform="translate(106.275 465.000286) scale(0.1 -0.1)">
       <defs>
        <path id="DejaVuSans-32" d="M 1228 531 
L 3431 531 
L 3431 0 
L 469 0 
L 469 531 
Q 828 903 1448 1529 
Q 2069 2156 2228 2338 
Q 2531 2678 2651 2914 
Q 2772 3150 2772 3378 
Q 2772 3750 2511 3984 
Q 2250 4219 1831 4219 
Q 1534 4219 1204 4116 
Q 875 4013 500 3803 
L 500 4441 
Q 881 4594 1212 4672 
Q 1544 4750 1819 4750 
Q 2544 4750 2975 4387 
Q 3406 4025 3406 3419 
Q 3406 3131 3298 2873 
Q 3191 2616 2906 2266 
Q 2828 2175 2409 1742 
Q 1991 1309 1228 531 
z
" transform="scale(0.015625)"/>
       </defs>
       <use xlink:href="#DejaVuSans-32"/>
       <use xlink:href="#DejaVuSans-30" transform="translate(63.623047 0)"/>
      </g>
     </g>
    </g>
    <g id="ytick_3">
     <g id="line2d_7">
      <path d="M 126 409.762134 
L 907.2 409.762134 
" clip-path="url(#p8f0934e35a)" style="fill: none; stroke-dasharray: 2.96,1.28; stroke-dashoffset: 0; stroke: #b0b0b0; stroke-opacity: 0.4; stroke-width: 0.8"/>
     </g>
     <g id="line2d_8">
      <g>
       <use xlink:href="#m4c7b7df763" x="126" y="409.762134" style="stroke: #000000; stroke-width: 0.8"/>
      </g>
     </g>
     <g id="text_5">
      <!-- 40 -->
      <g transform="translate(106.275 413.561353) scale(0.1 -0.1)">
       <defs>
        <path id="DejaVuSans-34" d="M 2419 4116 
L 825 1625 
L 2419 1625 
L 2419 4116 
z
M 2253 4666 
L 3047 4666 
L 3047 1625 
L 3713 1625 
L 3713 1100 
L 3047 1100 
L 3047 0 
L 2419 0 
L 2419 1100 
L 313 1100 
L 313 1709 
L 2253 4666 
z
" transform="scale(0.015625)"/>
       </defs>
       <use xlink:href="#DejaVuSans-34"/>
       <use xlink:href="#DejaVuSans-30" transform="translate(63.623047 0)"/>
      </g>
     </g>
    </g>
    <g id="ytick_4">
     <g id="line2d_9">
      <path d="M 126 358.323201 
L 907.2 358.323201 
" clip-path="url(#p8f0934e35a)" style="fill: none; stroke-dasharray: 2.96,1.28; stroke-dashoffset: 0; stroke: #b0b0b0; stroke-opacity: 0.4; stroke-width: 0.8"/>
     </g>
     <g id="line2d_10">
      <g>
       <use xlink:href="#m4c7b7df763" x="126" y="358.323201" style="stroke: #000000; stroke-width: 0.8"/>
      </g>
     </g>
     <g id="text_6">
      <!-- 60 -->
      <g transform="translate(106.275 362.12242) scale(0.1 -0.1)">
       <defs>
        <path id="DejaVuSans-36" d="M 2113 2584 
Q 1688 2584 1439 2293 
Q 1191 2003 1191 1497 
Q 1191 994 1439 701 
Q 1688 409 2113 409 
Q 2538 409 2786 701 
Q 3034 994 3034 1497 
Q 3034 2003 2786 2293 
Q 2538 2584 2113 2584 
z
M 3366 4563 
L 3366 3988 
Q 3128 4100 2886 4159 
Q 2644 4219 2406 4219 
Q 1781 4219 1451 3797 
Q 1122 3375 1075 2522 
Q 1259 2794 1537 2939 
Q 1816 3084 2150 3084 
Q 2853 3084 3261 2657 
Q 3669 2231 3669 1497 
Q 3669 778 3244 343 
Q 2819 -91 2113 -91 
Q 1303 -91 875 529 
Q 447 1150 447 2328 
Q 447 3434 972 4092 
Q 1497 4750 2381 4750 
Q 2619 4750 2861 4703 
Q 3103 4656 3366 4563 
z
" transform="scale(0.015625)"/>
       </defs>
       <use xlink:href="#DejaVuSans-36"/>
       <use xlink:href="#DejaVuSans-30" transform="translate(63.623047 0)"/>
      </g>
     </g>
    </g>
    <g id="ytick_5">
     <g id="line2d_11">
      <path d="M 126 306.884268 
L 907.2 306.884268 
" clip-path="url(#p8f0934e35a)" style="fill: none; stroke-dasharray: 2.96,1.28; stroke-dashoffset: 0; stroke: #b0b0b0; stroke-opacity: 0.4; stroke-width: 0.8"/>
     </g>
     <g id="line2d_12">
      <g>
       <use xlink:href="#m4c7b7df763" x="126" y="306.884268" style="stroke: #000000; stroke-width: 0.8"/>
      </g>
     </g>
     <g id="text_7">
      <!-- 80 -->
      <g transform="translate(106.275 310.683487) scale(0.1 -0.1)">
       <defs>
        <path id="DejaVuSans-38" d="M 2034 2216 
Q 1584 2216 1326 1975 
Q 1069 1734 1069 1313 
Q 1069 891 1326 650 
Q 1584 409 2034 409 
Q 2484 409 2743 651 
Q 3003 894 3003 1313 
Q 3003 1734 2745 1975 
Q 2488 2216 2034 2216 
z
M 1403 2484 
Q 997 2584 770 2862 
Q 544 3141 544 3541 
Q 544 4100 942 4425 
Q 1341 4750 2034 4750 
Q 2731 4750 3128 4425 
Q 3525 4100 3525 3541 
Q 3525 3141 3298 2862 
Q 3072 2584 2669 2484 
Q 3125 2378 3379 2068 
Q 3634 1759 3634 1313 
Q 3634 634 3220 271 
Q 2806 -91 2034 -91 
Q 1263 -91 848 271 
Q 434 634 434 1313 
Q 434 1759 690 2068 
Q 947 2378 1403 2484 
z
M 1172 3481 
Q 1172 3119 1398 2916 
Q 1625 2713 2034 2713 
Q 2441 2713 2670 2916 
Q 2900 3119 2900 3481 
Q 2900 3844 2670 4047 
Q 2441 4250 2034 4250 
Q 1625 4250 1398 4047 
Q 1172 3844 1172 3481 
z
" transform="scale(0.015625)"/>
       </defs>
       <use xlink:href="#DejaVuSans-38"/>
       <use xlink:href="#DejaVuSans-30" transform="translate(63.623047 0)"/>
      </g>
     </g>
    </g>
    <g id="ytick_6">
     <g id="line2d_13">
      <path d="M 126 255.445335 
L 907.2 255.445335 
" clip-path="url(#p8f0934e35a)" style="fill: none; stroke-dasharray: 2.96,1.28; stroke-dashoffset: 0; stroke: #b0b0b0; stroke-opacity: 0.4; stroke-width: 0.8"/>
     </g>
     <g id="line2d_14">
      <g>
       <use xlink:href="#m4c7b7df763" x="126" y="255.445335" style="stroke: #000000; stroke-width: 0.8"/>
      </g>
     </g>
     <g id="text_8">
      <!-- 100 -->
      <g transform="translate(99.9125 259.244554) scale(0.1 -0.1)">
       <defs>
        <path id="DejaVuSans-31" d="M 794 531 
L 1825 531 
L 1825 4091 
L 703 3866 
L 703 4441 
L 1819 4666 
L 2450 4666 
L 2450 531 
L 3481 531 
L 3481 0 
L 794 0 
L 794 531 
z
" transform="scale(0.015625)"/>
       </defs>
       <use xlink:href="#DejaVuSans-31"/>
       <use xlink:href="#DejaVuSans-30" transform="translate(63.623047 0)"/>
       <use xlink:href="#DejaVuSans-30" transform="translate(127.246094 0)"/>
      </g>
     </g>
    </g>
    <g id="ytick_7">
     <g id="line2d_15">
      <path d="M 126 204.006402 
L 907.2 204.006402 
" clip-path="url(#p8f0934e35a)" style="fill: none; stroke-dasharray: 2.96,1.28; stroke-dashoffset: 0; stroke: #b0b0b0; stroke-opacity: 0.4; stroke-width: 0.8"/>
     </g>
     <g id="line2d_16">
      <g>
       <use xlink:href="#m4c7b7df763" x="126" y="204.006402" style="stroke: #000000; stroke-width: 0.8"/>
      </g>
     </g>
     <g id="text_9">
      <!-- 120 -->
      <g transform="translate(99.9125 207.805621) scale(0.1 -0.1)">
       <use xlink:href="#DejaVuSans-31"/>
       <use xlink:href="#DejaVuSans-32" transform="translate(63.623047 0)"/>
       <use xlink:href="#DejaVuSans-30" transform="translate(127.246094 0)"/>
      </g>
     </g>
    </g>
    <g id="ytick_8">
     <g id="line2d_17">
      <path d="M 126 152.567469 
L 907.2 152.567469 
" clip-path="url(#p8f0934e35a)" style="fill: none; stroke-dasharray: 2.96,1.28; stroke-dashoffset: 0; stroke: #b0b0b0; stroke-opacity: 0.4; stroke-width: 0.8"/>
     </g>
     <g id="line2d_18">
      <g>
       <use xlink:href="#m4c7b7df763" x="126" y="152.567469" style="stroke: #000000; stroke-width: 0.8"/>
      </g>
     </g>
     <g id="text_10">
      <!-- 140 -->
      <g transform="translate(99.9125 156.366688) scale(0.1 -0.1)">
       <use xlink:href="#DejaVuSans-31"/>
       <use xlink:href="#DejaVuSans-34" transform="translate(63.623047 0)"/>
       <use xlink:href="#DejaVuSans-30" transform="translate(127.246094 0)"/>
      </g>
     </g>
    </g>
    <g id="ytick_9">
     <g id="line2d_19">
      <path d="M 126 101.128536 
L 907.2 101.128536 
" clip-path="url(#p8f0934e35a)" style="fill: none; stroke-dasharray: 2.96,1.28; stroke-dashoffset: 0; stroke: #b0b0b0; stroke-opacity: 0.4; stroke-width: 0.8"/>
     </g>
     <g id="line2d_20">
      <g>
       <use xlink:href="#m4c7b7df763" x="126" y="101.128536" style="stroke: #000000; stroke-width: 0.8"/>
      </g>
     </g>
     <g id="text_11">
      <!-- 160 -->
      <g transform="translate(99.9125 104.927755) scale(0.1 -0.1)">
       <use xlink:href="#DejaVuSans-31"/>
       <use xlink:href="#DejaVuSans-36" transform="translate(63.623047 0)"/>
       <use xlink:href="#DejaVuSans-30" transform="translate(127.246094 0)"/>
      </g>
     </g>
    </g>
    <g id="text_12">
     <!-- runtime as percent of native (%) -->
     <g transform="translate(93.832812 372.421406) rotate(-90) scale(0.1 -0.1)">
      <defs>
       <path id="DejaVuSans-75" d="M 544 1381 
L 544 3500 
L 1119 3500 
L 1119 1403 
Q 1119 906 1312 657 
Q 1506 409 1894 409 
Q 2359 409 2629 706 
Q 2900 1003 2900 1516 
L 2900 3500 
L 3475 3500 
L 3475 0 
L 2900 0 
L 2900 538 
Q 2691 219 2414 64 
Q 2138 -91 1772 -91 
Q 1169 -91 856 284 
Q 544 659 544 1381 
z
M 1991 3584 
L 1991 3584 
z
" transform="scale(0.015625)"/>
       <path id="DejaVuSans-69" d="M 603 3500 
L 1178 3500 
L 1178 0 
L 603 0 
L 603 3500 
z
M 603 4863 
L 1178 4863 
L 1178 4134 
L 603 4134 
L 603 4863 
z
" transform="scale(0.015625)"/>
       <path id="DejaVuSans-20" transform="scale(0.015625)"/>
       <path id="DejaVuSans-66" d="M 2375 4863 
L 2375 4384 
L 1825 4384 
Q 1516 4384 1395 4259 
Q 1275 4134 1275 3809 
L 1275 3500 
L 2222 3500 
L 2222 3053 
L 1275 3053 
L 1275 0 
L 697 0 
L 697 3053 
L 147 3053 
L 147 3500 
L 697 3500 
L 697 3744 
Q 697 4328 969 4595 
Q 1241 4863 1831 4863 
L 2375 4863 
z
" transform="scale(0.015625)"/>
       <path id="DejaVuSans-76" d="M 191 3500 
L 800 3500 
L 1894 563 
L 2988 3500 
L 3597 3500 
L 2284 0 
L 1503 0 
L 191 3500 
z
" transform="scale(0.015625)"/>
       <path id="DejaVuSans-28" d="M 1984 4856 
Q 1566 4138 1362 3434 
Q 1159 2731 1159 2009 
Q 1159 1288 1364 580 
Q 1569 -128 1984 -844 
L 1484 -844 
Q 1016 -109 783 600 
Q 550 1309 550 2009 
Q 550 2706 781 3412 
Q 1013 4119 1484 4856 
L 1984 4856 
z
" transform="scale(0.015625)"/>
       <path id="DejaVuSans-25" d="M 4653 2053 
Q 4381 2053 4226 1822 
Q 4072 1591 4072 1178 
Q 4072 772 4226 539 
Q 4381 306 4653 306 
Q 4919 306 5073 539 
Q 5228 772 5228 1178 
Q 5228 1588 5073 1820 
Q 4919 2053 4653 2053 
z
M 4653 2450 
Q 5147 2450 5437 2106 
Q 5728 1763 5728 1178 
Q 5728 594 5436 251 
Q 5144 -91 4653 -91 
Q 4153 -91 3862 251 
Q 3572 594 3572 1178 
Q 3572 1766 3864 2108 
Q 4156 2450 4653 2450 
z
M 1428 4353 
Q 1159 4353 1004 4120 
Q 850 3888 850 3481 
Q 850 3069 1003 2837 
Q 1156 2606 1428 2606 
Q 1700 2606 1854 2837 
Q 2009 3069 2009 3481 
Q 2009 3884 1853 4118 
Q 1697 4353 1428 4353 
z
M 4250 4750 
L 4750 4750 
L 1831 -91 
L 1331 -91 
L 4250 4750 
z
M 1428 4750 
Q 1922 4750 2215 4408 
Q 2509 4066 2509 3481 
Q 2509 2891 2217 2550 
Q 1925 2209 1428 2209 
Q 931 2209 642 2551 
Q 353 2894 353 3481 
Q 353 4063 643 4406 
Q 934 4750 1428 4750 
z
" transform="scale(0.015625)"/>
       <path id="DejaVuSans-29" d="M 513 4856 
L 1013 4856 
Q 1481 4119 1714 3412 
Q 1947 2706 1947 2009 
Q 1947 1309 1714 600 
Q 1481 -109 1013 -844 
L 513 -844 
Q 928 -128 1133 580 
Q 1338 1288 1338 2009 
Q 1338 2731 1133 3434 
Q 928 4138 513 4856 
z
" transform="scale(0.015625)"/>
      </defs>
      <use xlink:href="#DejaVuSans-72"/>
      <use xlink:href="#DejaVuSans-75" transform="translate(41.113281 0)"/>
      <use xlink:href="#DejaVuSans-6e" transform="translate(104.492188 0)"/>
      <use xlink:href="#DejaVuSans-74" transform="translate(167.871094 0)"/>
      <use xlink:href="#DejaVuSans-69" transform="translate(207.080078 0)"/>
      <use xlink:href="#DejaVuSans-6d" transform="translate(234.863281 0)"/>
      <use xlink:href="#DejaVuSans-65" transform="translate(332.275391 0)"/>
      <use xlink:href="#DejaVuSans-20" transform="translate(393.798828 0)"/>
      <use xlink:href="#DejaVuSans-61" transform="translate(425.585938 0)"/>
      <use xlink:href="#DejaVuSans-73" transform="translate(486.865234 0)"/>
      <use xlink:href="#DejaVuSans-20" transform="translate(538.964844 0)"/>
      <use xlink:href="#DejaVuSans-70" transform="translate(570.751953 0)"/>
      <use xlink:href="#DejaVuSans-65" transform="translate(634.228516 0)"/>
      <use xlink:href="#DejaVuSans-72" transform="translate(695.751953 0)"/>
      <use xlink:href="#DejaVuSans-63" transform="translate(734.615234 0)"/>
      <use xlink:href="#DejaVuSans-65" transform="translate(789.595703 0)"/>
      <use xlink:href="#DejaVuSans-6e" transform="translate(851.119141 0)"/>
      <use xlink:href="#DejaVuSans-74" transform="translate(914.498047 0)"/>
      <use xlink:href="#DejaVuSans-20" transform="translate(953.707031 0)"/>
      <use xlink:href="#DejaVuSans-6f" transform="translate(985.494141 0)"/>
      <use xlink:href="#DejaVuSans-66" transform="translate(1046.675781 0)"/>
      <use xlink:href="#DejaVuSans-20" transform="translate(1081.880859 0)"/>
      <use xlink:href="#DejaVuSans-6e" transform="translate(1113.667969 0)"/>
      <use xlink:href="#DejaVuSans-61" transform="translate(1177.046875 0)"/>
      <use xlink:href="#DejaVuSans-74" transform="translate(1238.326172 0)"/>
      <use xlink:href="#DejaVuSans-69" transform="translate(1277.535156 0)"/>
      <use xlink:href="#DejaVuSans-76" transform="translate(1305.318359 0)"/>
      <use xlink:href="#DejaVuSans-65" transform="translate(1364.498047 0)"/>
      <use xlink:href="#DejaVuSans-20" transform="translate(1426.021484 0)"/>
      <use xlink:href="#DejaVuSans-28" transform="translate(1457.808594 0)"/>
      <use xlink:href="#DejaVuSans-25" transform="translate(1496.822266 0)"/>
      <use xlink:href="#DejaVuSans-29" transform="translate(1591.841797 0)"/>
     </g>
    </g>
   </g>
   <g id="patch_9">
    <path d="M 126 512.64 
L 126 69.12 
" style="fill: none; stroke: #000000; stroke-width: 0.8; stroke-linejoin: miter; stroke-linecap: square"/>
   </g>
   <g id="patch_10">
    <path d="M 907.2 512.64 
L 907.2 69.12 
" style="fill: none; stroke: #000000; stroke-width: 0.8; stroke-linejoin: miter; stroke-linecap: square"/>
   </g>
   <g id="patch_11">
    <path d="M 126 512.64 
L 907.2 512.64 
" style="fill: none; stroke: #000000; stroke-width: 0.8; stroke-linejoin: miter; stroke-linecap: square"/>
   </g>
   <g id="patch_12">
    <path d="M 126 69.12 
L 907.2 69.12 
" style="fill: none; stroke: #000000; stroke-width: 0.8; stroke-linejoin: miter; stroke-linecap: square"/>
   </g>
   <g id="text_13">
    <!-- Wasmer vs Native -->
    <g transform="translate(462.32625 63.12) scale(0.12 -0.12)">
     <defs>
      <path id="DejaVuSans-57" d="M 213 4666 
L 850 4666 
L 1831 722 
L 2809 4666 
L 3519 4666 
L 4500 722 
L 5478 4666 
L 6119 4666 
L 4947 0 
L 4153 0 
L 3169 4050 
L 2175 0 
L 1381 0 
L 213 4666 
z
" transform="scale(0.015625)"/>
      <path id="DejaVuSans-4e" d="M 628 4666 
L 1478 4666 
L 3547 763 
L 3547 4666 
L 4159 4666 
L 4159 0 
L 3309 0 
L 1241 3903 
L 1241 0 
L 628 0 
L 628 4666 
z
" transform="scale(0.015625)"/>
     </defs>
     <use xlink:href="#DejaVuSans-57"/>
     <use xlink:href="#DejaVuSans-61" transform="translate(92.501953 0)"/>
     <use xlink:href="#DejaVuSans-73" transform="translate(153.78125 0)"/>
     <use xlink:href="#DejaVuSans-6d" transform="translate(205.880859 0)"/>
     <use xlink:href="#DejaVuSans-65" transform="translate(303.292969 0)"/>
     <use xlink:href="#DejaVuSans-72" transform="translate(364.816406 0)"/>
     <use xlink:href="#DejaVuSans-20" transform="translate(405.929688 0)"/>
     <use xlink:href="#DejaVuSans-76" transform="translate(437.716797 0)"/>
     <use xlink:href="#DejaVuSans-73" transform="translate(496.896484 0)"/>
     <use xlink:href="#DejaVuSans-20" transform="translate(548.996094 0)"/>
     <use xlink:href="#DejaVuSans-4e" transform="translate(580.783203 0)"/>
     <use xlink:href="#DejaVuSans-61" transform="translate(655.587891 0)"/>
     <use xlink:href="#DejaVuSans-74" transform="translate(716.867188 0)"/>
     <use xlink:href="#DejaVuSans-69" transform="translate(756.076172 0)"/>
     <use xlink:href="#DejaVuSans-76" transform="translate(783.859375 0)"/>
     <use xlink:href="#DejaVuSans-65" transform="translate(843.039062 0)"/>
    </g>
   </g>
   <g id="legend_1">
    <g id="patch_13">
     <path d="M 133 121.154375 
L 455.285937 121.154375 
Q 457.285937 121.154375 457.285937 119.154375 
L 457.285937 76.12 
Q 457.285937 74.12 455.285937 74.12 
L 133 74.12 
Q 131 74.12 131 76.12 
L 131 119.154375 
Q 131 121.154375 133 121.154375 
z
" style="fill: #ffffff; opacity: 0.8; stroke: #cccccc; stroke-linejoin: miter"/>
    </g>
    <g id="patch_14">
     <path d="M 135 85.718438 
L 155 85.718438 
L 155 78.718438 
L 135 78.718438 
z
" style="fill: #1f77b4"/>
    </g>
    <g id="text_14">
     <!-- native (PHP: 100.0% / Python: 100.0%) -->
     <g transform="translate(163 85.718438) scale(0.1 -0.1)">
      <defs>
       <path id="DejaVuSans-50" d="M 1259 4147 
L 1259 2394 
L 2053 2394 
Q 2494 2394 2734 2622 
Q 2975 2850 2975 3272 
Q 2975 3691 2734 3919 
Q 2494 4147 2053 4147 
L 1259 4147 
z
M 628 4666 
L 2053 4666 
Q 2838 4666 3239 4311 
Q 3641 3956 3641 3272 
Q 3641 2581 3239 2228 
Q 2838 1875 2053 1875 
L 1259 1875 
L 1259 0 
L 628 0 
L 628 4666 
z
" transform="scale(0.015625)"/>
       <path id="DejaVuSans-48" d="M 628 4666 
L 1259 4666 
L 1259 2753 
L 3553 2753 
L 3553 4666 
L 4184 4666 
L 4184 0 
L 3553 0 
L 3553 2222 
L 1259 2222 
L 1259 0 
L 628 0 
L 628 4666 
z
" transform="scale(0.015625)"/>
       <path id="DejaVuSans-3a" d="M 750 794 
L 1409 794 
L 1409 0 
L 750 0 
L 750 794 
z
M 750 3309 
L 1409 3309 
L 1409 2516 
L 750 2516 
L 750 3309 
z
" transform="scale(0.015625)"/>
       <path id="DejaVuSans-2e" d="M 684 794 
L 1344 794 
L 1344 0 
L 684 0 
L 684 794 
z
" transform="scale(0.015625)"/>
       <path id="DejaVuSans-2f" d="M 1625 4666 
L 2156 4666 
L 531 -594 
L 0 -594 
L 1625 4666 
z
" transform="scale(0.015625)"/>
      </defs>
      <use xlink:href="#DejaVuSans-6e"/>
      <use xlink:href="#DejaVuSans-61" transform="translate(63.378906 0)"/>
      <use xlink:href="#DejaVuSans-74" transform="translate(124.658203 0)"/>
      <use xlink:href="#DejaVuSans-69" transform="translate(163.867188 0)"/>
      <use xlink:href="#DejaVuSans-76" transform="translate(191.650391 0)"/>
      <use xlink:href="#DejaVuSans-65" transform="translate(250.830078 0)"/>
      <use xlink:href="#DejaVuSans-20" transform="translate(312.353516 0)"/>
      <use xlink:href="#DejaVuSans-28" transform="translate(344.140625 0)"/>
      <use xlink:href="#DejaVuSans-50" transform="translate(383.154297 0)"/>
      <use xlink:href="#DejaVuSans-48" transform="translate(443.457031 0)"/>
      <use xlink:href="#DejaVuSans-50" transform="translate(518.652344 0)"/>
      <use xlink:href="#DejaVuSans-3a" transform="translate(578.955078 0)"/>
      <use xlink:href="#DejaVuSans-20" transform="translate(612.646484 0)"/>
      <use xlink:href="#DejaVuSans-31" transform="translate(644.433594 0)"/>
      <use xlink:href="#DejaVuSans-30" transform="translate(708.056641 0)"/>
      <use xlink:href="#DejaVuSans-30" transform="translate(771.679688 0)"/>
      <use xlink:href="#DejaVuSans-2e" transform="translate(835.302734 0)"/>
      <use xlink:href="#DejaVuSans-30" transform="translate(867.089844 0)"/>
      <use xlink:href="#DejaVuSans-25" transform="translate(930.712891 0)"/>
      <use xlink:href="#DejaVuSans-20" transform="translate(1025.732422 0)"/>
      <use xlink:href="#DejaVuSans-2f" transform="translate(1057.519531 0)"/>
      <use xlink:href="#DejaVuSans-20" transform="translate(1091.210938 0)"/>
      <use xlink:href="#DejaVuSans-50" transform="translate(1122.998047 0)"/>
      <use xlink:href="#DejaVuSans-79" transform="translate(1183.300781 0)"/>
      <use xlink:href="#DejaVuSans-74" transform="translate(1242.480469 0)"/>
      <use xlink:href="#DejaVuSans-68" transform="translate(1281.689453 0)"/>
      <use xlink:href="#DejaVuSans-6f" transform="translate(1345.068359 0)"/>
      <use xlink:href="#DejaVuSans-6e" transform="translate(1406.25 0)"/>
      <use xlink:href="#DejaVuSans-3a" transform="translate(1469.628906 0)"/>
      <use xlink:href="#DejaVuSans-20" transform="translate(1503.320312 0)"/>
      <use xlink:href="#DejaVuSans-31" transform="translate(1535.107422 0)"/>
      <use xlink:href="#DejaVuSans-30" transform="translate(1598.730469 0)"/>
      <use xlink:href="#DejaVuSans-30" transform="translate(1662.353516 0)"/>
      <use xlink:href="#DejaVuSans-2e" transform="translate(1725.976562 0)"/>
      <use xlink:href="#DejaVuSans-30" transform="translate(1757.763672 0)"/>
      <use xlink:href="#DejaVuSans-25" transform="translate(1821.386719 0)"/>
      <use xlink:href="#DejaVuSans-29" transform="translate(1916.40625 0)"/>
     </g>
    </g>
    <g id="patch_15">
     <path d="M 135 100.396563 
L 155 100.396563 
L 155 93.396563 
L 135 93.396563 
z
" style="fill: #ff7f0e"/>
    </g>
    <g id="text_15">
     <!-- Wasmer LLVM (PHP: 127.2% / Python: 164.2%) -->
     <g transform="translate(163 100.396563) scale(0.1 -0.1)">
      <defs>
       <path id="DejaVuSans-4c" d="M 628 4666 
L 1259 4666 
L 1259 531 
L 3531 531 
L 3531 0 
L 628 0 
L 628 4666 
z
" transform="scale(0.015625)"/>
       <path id="DejaVuSans-56" d="M 1831 0 
L 50 4666 
L 709 4666 
L 2188 738 
L 3669 4666 
L 4325 4666 
L 2547 0 
L 1831 0 
z
" transform="scale(0.015625)"/>
       <path id="DejaVuSans-4d" d="M 628 4666 
L 1569 4666 
L 2759 1491 
L 3956 4666 
L 4897 4666 
L 4897 0 
L 4281 0 
L 4281 4097 
L 3078 897 
L 2444 897 
L 1241 4097 
L 1241 0 
L 628 0 
L 628 4666 
z
" transform="scale(0.015625)"/>
       <path id="DejaVuSans-37" d="M 525 4666 
L 3525 4666 
L 3525 4397 
L 1831 0 
L 1172 0 
L 2766 4134 
L 525 4134 
L 525 4666 
z
" transform="scale(0.015625)"/>
      </defs>
      <use xlink:href="#DejaVuSans-57"/>
      <use xlink:href="#DejaVuSans-61" transform="translate(92.501953 0)"/>
      <use xlink:href="#DejaVuSans-73" transform="translate(153.78125 0)"/>
      <use xlink:href="#DejaVuSans-6d" transform="translate(205.880859 0)"/>
      <use xlink:href="#DejaVuSans-65" transform="translate(303.292969 0)"/>
      <use xlink:href="#DejaVuSans-72" transform="translate(364.816406 0)"/>
      <use xlink:href="#DejaVuSans-20" transform="translate(405.929688 0)"/>
      <use xlink:href="#DejaVuSans-4c" transform="translate(437.716797 0)"/>
      <use xlink:href="#DejaVuSans-4c" transform="translate(493.429688 0)"/>
      <use xlink:href="#DejaVuSans-56" transform="translate(538.142578 0)"/>
      <use xlink:href="#DejaVuSans-4d" transform="translate(606.550781 0)"/>
      <use xlink:href="#DejaVuSans-20" transform="translate(692.830078 0)"/>
      <use xlink:href="#DejaVuSans-28" transform="translate(724.617188 0)"/>
      <use xlink:href="#DejaVuSans-50" transform="translate(763.630859 0)"/>
      <use xlink:href="#DejaVuSans-48" transform="translate(823.933594 0)"/>
      <use xlink:href="#DejaVuSans-50" transform="translate(899.128906 0)"/>
      <use xlink:href="#DejaVuSans-3a" transform="translate(959.431641 0)"/>
      <use xlink:href="#DejaVuSans-20" transform="translate(993.123047 0)"/>
      <use xlink:href="#DejaVuSans-31" transform="translate(1024.910156 0)"/>
      <use xlink:href="#DejaVuSans-32" transform="translate(1088.533203 0)"/>
      <use xlink:href="#DejaVuSans-37" transform="translate(1152.15625 0)"/>
      <use xlink:href="#DejaVuSans-2e" transform="translate(1215.779297 0)"/>
      <use xlink:href="#DejaVuSans-32" transform="translate(1247.566406 0)"/>
      <use xlink:href="#DejaVuSans-25" transform="translate(1311.189453 0)"/>
      <use xlink:href="#DejaVuSans-20" transform="translate(1406.208984 0)"/>
      <use xlink:href="#DejaVuSans-2f" transform="translate(1437.996094 0)"/>
      <use xlink:href="#DejaVuSans-20" transform="translate(1471.6875 0)"/>
      <use xlink:href="#DejaVuSans-50" transform="translate(1503.474609 0)"/>
      <use xlink:href="#DejaVuSans-79" transform="translate(1563.777344 0)"/>
      <use xlink:href="#DejaVuSans-74" transform="translate(1622.957031 0)"/>
      <use xlink:href="#DejaVuSans-68" transform="translate(1662.166016 0)"/>
      <use xlink:href="#DejaVuSans-6f" transform="translate(1725.544922 0)"/>
      <use xlink:href="#DejaVuSans-6e" transform="translate(1786.726562 0)"/>
      <use xlink:href="#DejaVuSans-3a" transform="translate(1850.105469 0)"/>
      <use xlink:href="#DejaVuSans-20" transform="translate(1883.796875 0)"/>
      <use xlink:href="#DejaVuSans-31" transform="translate(1915.583984 0)"/>
      <use xlink:href="#DejaVuSans-36" transform="translate(1979.207031 0)"/>
      <use xlink:href="#DejaVuSans-34" transform="translate(2042.830078 0)"/>
      <use xlink:href="#DejaVuSans-2e" transform="translate(2106.453125 0)"/>
      <use xlink:href="#DejaVuSans-32" transform="translate(2138.240234 0)"/>
      <use xlink:href="#DejaVuSans-25" transform="translate(2201.863281 0)"/>
      <use xlink:href="#DejaVuSans-29" transform="translate(2296.882812 0)"/>
     </g>
    </g>
    <g id="patch_16">
     <path d="M 135 115.074688 
L 155 115.074688 
L 155 108.074688 
L 135 108.074688 
z
" style="fill: #2ca02c"/>
    </g>
    <g id="text_16">
     <!-- Wasmer LLVM (balanced) (PHP: 122.1% / Python: 147.6%) -->
     <g transform="translate(163 115.074688) scale(0.1 -0.1)">
      <defs>
       <path id="DejaVuSans-6c" d="M 603 4863 
L 1178 4863 
L 1178 0 
L 603 0 
L 603 4863 
z
" transform="scale(0.015625)"/>
       <path id="DejaVuSans-64" d="M 2906 2969 
L 2906 4863 
L 3481 4863 
L 3481 0 
L 2906 0 
L 2906 525 
Q 2725 213 2448 61 
Q 2172 -91 1784 -91 
Q 1150 -91 751 415 
Q 353 922 353 1747 
Q 353 2572 751 3078 
Q 1150 3584 1784 3584 
Q 2172 3584 2448 3432 
Q 2725 3281 2906 2969 
z
M 947 1747 
Q 947 1113 1208 752 
Q 1469 391 1925 391 
Q 2381 391 2643 752 
Q 2906 1113 2906 1747 
Q 2906 2381 2643 2742 
Q 2381 3103 1925 3103 
Q 1469 3103 1208 2742 
Q 947 2381 947 1747 
z
" transform="scale(0.015625)"/>
      </defs>
      <use xlink:href="#DejaVuSans-57"/>
      <use xlink:href="#DejaVuSans-61" transform="translate(92.501953 0)"/>
      <use xlink:href="#DejaVuSans-73" transform="translate(153.78125 0)"/>
      <use xlink:href="#DejaVuSans-6d" transform="translate(205.880859 0)"/>
      <use xlink:href="#DejaVuSans-65" transform="translate(303.292969 0)"/>
      <use xlink:href="#DejaVuSans-72" transform="translate(364.816406 0)"/>
      <use xlink:href="#DejaVuSans-20" transform="translate(405.929688 0)"/>
      <use xlink:href="#DejaVuSans-4c" transform="translate(437.716797 0)"/>
      <use xlink:href="#DejaVuSans-4c" transform="translate(493.429688 0)"/>
      <use xlink:href="#DejaVuSans-56" transform="translate(538.142578 0)"/>
      <use xlink:href="#DejaVuSans-4d" transform="translate(606.550781 0)"/>
      <use xlink:href="#DejaVuSans-20" transform="translate(692.830078 0)"/>
      <use xlink:href="#DejaVuSans-28" transform="translate(724.617188 0)"/>
      <use xlink:href="#DejaVuSans-62" transform="translate(763.630859 0)"/>
      <use xlink:href="#DejaVuSans-61" transform="translate(827.107422 0)"/>
      <use xlink:href="#DejaVuSans-6c" transform="translate(888.386719 0)"/>
      <use xlink:href="#DejaVuSans-61" transform="translate(916.169922 0)"/>
      <use xlink:href="#DejaVuSans-6e" transform="translate(977.449219 0)"/>
      <use xlink:href="#DejaVuSans-63" transform="translate(1040.828125 0)"/>
      <use xlink:href="#DejaVuSans-65" transform="translate(1095.808594 0)"/>
      <use xlink:href="#DejaVuSans-64" transform="translate(1157.332031 0)"/>
      <use xlink:href="#DejaVuSans-29" transform="translate(1220.808594 0)"/>
      <use xlink:href="#DejaVuSans-20" transform="translate(1259.822266 0)"/>
      <use xlink:href="#DejaVuSans-28" transform="translate(1291.609375 0)"/>
      <use xlink:href="#DejaVuSans-50" transform="translate(1330.623047 0)"/>
      <use xlink:href="#DejaVuSans-48" transform="translate(1390.925781 0)"/>
      <use xlink:href="#DejaVuSans-50" transform="translate(1466.121094 0)"/>
      <use xlink:href="#DejaVuSans-3a" transform="translate(1526.423828 0)"/>
      <use xlink:href="#DejaVuSans-20" transform="translate(1560.115234 0)"/>
      <use xlink:href="#DejaVuSans-31" transform="translate(1591.902344 0)"/>
      <use xlink:href="#DejaVuSans-32" transform="translate(1655.525391 0)"/>
      <use xlink:href="#DejaVuSans-32" transform="translate(1719.148438 0)"/>
      <use xlink:href="#DejaVuSans-2e" transform="translate(1782.771484 0)"/>
      <use xlink:href="#DejaVuSans-31" transform="translate(1814.558594 0)"/>
      <use xlink:href="#DejaVuSans-25" transform="translate(1878.181641 0)"/>
      <use xlink:href="#DejaVuSans-20" transform="translate(1973.201172 0)"/>
      <use xlink:href="#DejaVuSans-2f" transform="translate(2004.988281 0)"/>
      <use xlink:href="#DejaVuSans-20" transform="translate(2038.679688 0)"/>
      <use xlink:href="#DejaVuSans-50" transform="translate(2070.466797 0)"/>
      <use xlink:href="#DejaVuSans-79" transform="translate(2130.769531 0)"/>
      <use xlink:href="#DejaVuSans-74" transform="translate(2189.949219 0)"/>
      <use xlink:href="#DejaVuSans-68" transform="translate(2229.158203 0)"/>
      <use xlink:href="#DejaVuSans-6f" transform="translate(2292.537109 0)"/>
      <use xlink:href="#DejaVuSans-6e" transform="translate(2353.71875 0)"/>
      <use xlink:href="#DejaVuSans-3a" transform="translate(2417.097656 0)"/>
      <use xlink:href="#DejaVuSans-20" transform="translate(2450.789062 0)"/>
      <use xlink:href="#DejaVuSans-31" transform="translate(2482.576172 0)"/>
      <use xlink:href="#DejaVuSans-34" transform="translate(2546.199219 0)"/>
      <use xlink:href="#DejaVuSans-37" transform="translate(2609.822266 0)"/>
      <use xlink:href="#DejaVuSans-2e" transform="translate(2673.445312 0)"/>
      <use xlink:href="#DejaVuSans-36" transform="translate(2705.232422 0)"/>
      <use xlink:href="#DejaVuSans-25" transform="translate(2768.855469 0)"/>
      <use xlink:href="#DejaVuSans-29" transform="translate(2863.875 0)"/>
     </g>
    </g>
   </g>
  </g>
 </g>
 <defs>
  <clipPath id="p8f0934e35a">
   <rect x="126" y="69.12" width="781.2" height="443.52"/>
  </clipPath>
 </defs>
</svg>
