<?xml version="1.0" encoding="utf-8" standalone="no"?>
<!DOCTYPE svg PUBLIC "-//W3C//DTD SVG 1.1//EN"
  "http://www.w3.org/Graphics/SVG/1.1/DTD/svg11.dtd">
<svg xmlns:xlink="http://www.w3.org/1999/xlink" width="1008pt" height="576pt" viewBox="0 0 1008 576" xmlns="http://www.w3.org/2000/svg" version="1.1">
 <metadata>
  <rdf:RDF xmlns:dc="http://purl.org/dc/elements/1.1/" xmlns:cc="http://creativecommons.org/ns#" xmlns:rdf="http://www.w3.org/1999/02/22-rdf-syntax-ns#">
   <cc:Work>
    <dc:type rdf:resource="http://purl.org/dc/dcmitype/StillImage"/>
    <dc:date>2026-02-24T14:46:23.275900</dc:date>
    <dc:format>image/svg+xml</dc:format>
    <dc:creator>
     <cc:Agent>
      <dc:title>Matplotlib v3.10.8, https://matplotlib.org/</dc:title>
     </cc:Agent>
    </dc:creator>
   </cc:Work>
  </rdf:RDF>
 </metadata>
 <defs>
  <style type="text/css">*{stroke-linejoin: round; stroke-linecap: butt}</style>
 </defs>
 <g id="figure_1">
  <g id="patch_1">
   <path d="M 0 576 
L 1008 576 
L 1008 0 
L 0 0 
z
" style="fill: #ffffff"/>
  </g>
  <g id="axes_1">
   <g id="patch_2">
    <path d="M 126 512.64 
L 907.2 512.64 
L 907.2 69.12 
L 126 69.12 
z
" style="fill: #ffffff"/>
   </g>
   <g id="patch_3">
    <path d="M 161.509091 512.64 
L 206.6 512.64 
L 206.6 269.00629 
L 161.509091 269.00629 
z
" clip-path="url(#pea25fb0148)" style="fill: #1f77b4"/>
   </g>
   <g id="patch_4">
    <path d="M 556.054545 512.64 
L 601.145455 512.64 
L 601.145455 269.00629 
L 556.054545 269.00629 
z
" clip-path="url(#pea25fb0148)" style="fill: #1f77b4"/>
   </g>
   <g id="patch_5">
    <path d="M 206.6 512.64 
L 251.690909 512.64 
L 251.690909 193.432848 
L 206.6 193.432848 
z
" clip-path="url(#pea25fb0148)" style="fill: #ff7f0e"/>
   </g>
   <g id="patch_6">
    <path d="M 601.145455 512.64 
L 646.236364 512.64 
L 646.236364 96.30344 
L 601.145455 96.30344 
z
" clip-path="url(#pea25fb0148)" style="fill: #ff7f0e"/>
   </g>
   <g id="patch_7">
    <path d="M 251.690909 512.64 
L 296.781818 512.64 
L 296.781818 180.226696 
L 251.690909 180.226696 
z
" clip-path="url(#pea25fb0148)" style="fill: #2ca02c"/>
   </g>
   <g id="patch_8">
    <path d="M 646.236364 512.64 
L 691.327273 512.64 
L 691.327273 90.24 
L 646.236364 90.24 
z
" clip-path="url(#pea25fb0148)" style="fill: #2ca02c"/>
   </g>
   <g id="patch_9">
    <path d="M 296.781818 512.64 
L 341.872727 512.64 
L 341.872727 207.427334 
L 296.781818 207.427334 
z
" clip-path="url(#pea25fb0148)" style="fill: #d62728"/>
   </g>
   <g id="patch_10">
    <path d="M 691.327273 512.64 
L 736.418182 512.64 
L 736.418182 107.052298 
L 691.327273 107.052298 
z
" clip-path="url(#pea25fb0148)" style="fill: #d62728"/>
   </g>
   <g id="patch_11">
    <path d="M 341.872727 512.64 
L 386.963636 512.64 
L 386.963636 214.277902 
L 341.872727 214.277902 
z
" clip-path="url(#pea25fb0148)" style="fill: #9467bd"/>
   </g>
   <g id="patch_12">
    <path d="M 736.418182 512.64 
L 781.509091 512.64 
L 781.509091 133.171483 
L 736.418182 133.171483 
z
" clip-path="url(#pea25fb0148)" style="fill: #9467bd"/>
   </g>
   <g id="patch_13">
    <path d="M 386.963636 512.64 
L 432.054545 512.64 
L 432.054545 208.862059 
L 386.963636 208.862059 
z
" clip-path="url(#pea25fb0148)" style="fill: #8c564b"/>
   </g>
   <g id="patch_14">
    <path d="M 781.509091 512.64 
L 826.6 512.64 
L 826.6 137.397418 
L 781.509091 137.397418 
z
" clip-path="url(#pea25fb0148)" style="fill: #8c564b"/>
   </g>
   <g id="patch_15">
    <path d="M 432.054545 512.64 
L 477.145455 512.64 
L 477.145455 219.400405 
L 432.054545 219.400405 
z
" clip-path="url(#pea25fb0148)" style="fill: #e377c2"/>
   </g>
   <g id="patch_16">
    <path d="M 826.6 512.64 
L 871.690909 512.64 
L 871.690909 162.105721 
L 826.6 162.105721 
z
" clip-path="url(#pea25fb0148)" style="fill: #e377c2"/>
   </g>
   <g id="matplotlib.axis_1">
    <g id="xtick_1">
     <g id="line2d_1">
      <defs>
       <path id="m7febfdc7e3" d="M 0 0 
L 0 3.5 
" style="stroke: #000000; stroke-width: 0.8"/>
      </defs>
      <g>
       <use xlink:href="#m7febfdc7e3" x="319.327273" y="512.64" style="stroke: #000000; stroke-width: 0.8"/>
      </g>
     </g>
     <g id="text_1">
      <!-- php-benchmark -->
      <g transform="translate(279.783523 527.238438) scale(0.1 -0.1)">
       <defs>
        <path id="DejaVuSans-70" d="M 1159 525 
L 1159 -1331 
L 581 -1331 
L 581 3500 
L 1159 3500 
L 1159 2969 
Q 1341 3281 1617 3432 
Q 1894 3584 2278 3584 
Q 2916 3584 3314 3078 
Q 3713 2572 3713 1747 
Q 3713 922 3314 415 
Q 2916 -91 2278 -91 
Q 1894 -91 1617 61 
Q 1341 213 1159 525 
z
M 3116 1747 
Q 3116 2381 2855 2742 
Q 2594 3103 2138 3103 
Q 1681 3103 1420 2742 
Q 1159 2381 1159 1747 
Q 1159 1113 1420 752 
Q 1681 391 2138 391 
Q 2594 391 2855 752 
Q 3116 1113 3116 1747 
z
" transform="scale(0.015625)"/>
        <path id="DejaVuSans-68" d="M 3513 2113 
L 3513 0 
L 2938 0 
L 2938 2094 
Q 2938 2591 2744 2837 
Q 2550 3084 2163 3084 
Q 1697 3084 1428 2787 
Q 1159 2491 1159 1978 
L 1159 0 
L 581 0 
L 581 4863 
L 1159 4863 
L 1159 2956 
Q 1366 3272 1645 3428 
Q 1925 3584 2291 3584 
Q 2894 3584 3203 3211 
Q 3513 2838 3513 2113 
z
" transform="scale(0.015625)"/>
        <path id="DejaVuSans-2d" d="M 313 2009 
L 1997 2009 
L 1997 1497 
L 313 1497 
L 313 2009 
z
" transform="scale(0.015625)"/>
        <path id="DejaVuSans-62" d="M 3116 1747 
Q 3116 2381 2855 2742 
Q 2594 3103 2138 3103 
Q 1681 3103 1420 2742 
Q 1159 2381 1159 1747 
Q 1159 1113 1420 752 
Q 1681 391 2138 391 
Q 2594 391 2855 752 
Q 3116 1113 3116 1747 
z
M 1159 2969 
Q 1341 3281 1617 3432 
Q 1894 3584 2278 3584 
Q 2916 3584 3314 3078 
Q 3713 2572 3713 1747 
Q 3713 922 3314 415 
Q 2916 -91 2278 -91 
Q 1894 -91 1617 61 
Q 1341 213 1159 525 
L 1159 0 
L 581 0 
L 581 4863 
L 1159 4863 
L 1159 2969 
z
" transform="scale(0.015625)"/>
        <path id="DejaVuSans-65" d="M 3597 1894 
L 3597 1613 
L 953 1613 
Q 991 1019 1311 708 
Q 1631 397 2203 397 
Q 2534 397 2845 478 
Q 3156 559 3463 722 
L 3463 178 
Q 3153 47 2828 -22 
Q 2503 -91 2169 -91 
Q 1331 -91 842 396 
Q 353 884 353 1716 
Q 353 2575 817 3079 
Q 1281 3584 2069 3584 
Q 2775 3584 3186 3129 
Q 3597 2675 3597 1894 
z
M 3022 2063 
Q 3016 2534 2758 2815 
Q 2500 3097 2075 3097 
Q 1594 3097 1305 2825 
Q 1016 2553 972 2059 
L 3022 2063 
z
" transform="scale(0.015625)"/>
        <path id="DejaVuSans-6e" d="M 3513 2113 
L 3513 0 
L 2938 0 
L 2938 2094 
Q 2938 2591 2744 2837 
Q 2550 3084 2163 3084 
Q 1697 3084 1428 2787 
Q 1159 2491 1159 1978 
L 1159 0 
L 581 0 
L 581 3500 
L 1159 3500 
L 1159 2956 
Q 1366 3272 1645 3428 
Q 1925 3584 2291 3584 
Q 2894 3584 3203 3211 
Q 3513 2838 3513 2113 
z
" transform="scale(0.015625)"/>
        <path id="DejaVuSans-63" d="M 3122 3366 
L 3122 2828 
Q 2878 2963 2633 3030 
Q 2388 3097 2138 3097 
Q 1578 3097 1268 2742 
Q 959 2388 959 1747 
Q 959 1106 1268 751 
Q 1578 397 2138 397 
Q 2388 397 2633 464 
Q 2878 531 3122 666 
L 3122 134 
Q 2881 22 2623 -34 
Q 2366 -91 2075 -91 
Q 1284 -91 818 406 
Q 353 903 353 1747 
Q 353 2603 823 3093 
Q 1294 3584 2113 3584 
Q 2378 3584 2631 3529 
Q 2884 3475 3122 3366 
z
" transform="scale(0.015625)"/>
        <path id="DejaVuSans-6d" d="M 3328 2828 
Q 3544 3216 3844 3400 
Q 4144 3584 4550 3584 
Q 5097 3584 5394 3201 
Q 5691 2819 5691 2113 
L 5691 0 
L 5113 0 
L 5113 2094 
Q 5113 2597 4934 2840 
Q 4756 3084 4391 3084 
Q 3944 3084 3684 2787 
Q 3425 2491 3425 1978 
L 3425 0 
L 2847 0 
L 2847 2094 
Q 2847 2600 2669 2842 
Q 2491 3084 2119 3084 
Q 1678 3084 1418 2786 
Q 1159 2488 1159 1978 
L 1159 0 
L 581 0 
L 581 3500 
L 1159 3500 
L 1159 2956 
Q 1356 3278 1631 3431 
Q 1906 3584 2284 3584 
Q 2666 3584 2933 3390 
Q 3200 3197 3328 2828 
z
" transform="scale(0.015625)"/>
        <path id="DejaVuSans-61" d="M 2194 1759 
Q 1497 1759 1228 1600 
Q 959 1441 959 1056 
Q 959 750 1161 570 
Q 1363 391 1709 391 
Q 2188 391 2477 730 
Q 2766 1069 2766 1631 
L 2766 1759 
L 2194 1759 
z
M 3341 1997 
L 3341 0 
L 2766 0 
L 2766 531 
Q 2569 213 2275 61 
Q 1981 -91 1556 -91 
Q 1019 -91 701 211 
Q 384 513 384 1019 
Q 384 1609 779 1909 
Q 1175 2209 1959 2209 
L 2766 2209 
L 2766 2266 
Q 2766 2663 2505 2880 
Q 2244 3097 1772 3097 
Q 1472 3097 1187 3025 
Q 903 2953 641 2809 
L 641 3341 
Q 956 3463 1253 3523 
Q 1550 3584 1831 3584 
Q 2591 3584 2966 3190 
Q 3341 2797 3341 1997 
z
" transform="scale(0.015625)"/>
        <path id="DejaVuSans-72" d="M 2631 2963 
Q 2534 3019 2420 3045 
Q 2306 3072 2169 3072 
Q 1681 3072 1420 2755 
Q 1159 2438 1159 1844 
L 1159 0 
L 581 0 
L 581 3500 
L 1159 3500 
L 1159 2956 
Q 1341 3275 1631 3429 
Q 1922 3584 2338 3584 
Q 2397 3584 2469 3576 
Q 2541 3569 2628 3553 
L 2631 2963 
z
" transform="scale(0.015625)"/>
        <path id="DejaVuSans-6b" d="M 581 4863 
L 1159 4863 
L 1159 1991 
L 2875 3500 
L 3609 3500 
L 1753 1863 
L 3688 0 
L 2938 0 
L 1159 1709 
L 1159 0 
L 581 0 
L 581 4863 
z
" transform="scale(0.015625)"/>
       </defs>
       <use xlink:href="#DejaVuSans-70"/>
       <use xlink:href="#DejaVuSans-68" transform="translate(63.476562 0)"/>
       <use xlink:href="#DejaVuSans-70" transform="translate(126.855469 0)"/>
       <use xlink:href="#DejaVuSans-2d" transform="translate(190.332031 0)"/>
       <use xlink:href="#DejaVuSans-62" transform="translate(226.416016 0)"/>
       <use xlink:href="#DejaVuSans-65" transform="translate(289.892578 0)"/>
       <use xlink:href="#DejaVuSans-6e" transform="translate(351.416016 0)"/>
       <use xlink:href="#DejaVuSans-63" transform="translate(414.794922 0)"/>
       <use xlink:href="#DejaVuSans-68" transform="translate(469.775391 0)"/>
       <use xlink:href="#DejaVuSans-6d" transform="translate(533.154297 0)"/>
       <use xlink:href="#DejaVuSans-61" transform="translate(630.566406 0)"/>
       <use xlink:href="#DejaVuSans-72" transform="translate(691.845703 0)"/>
       <use xlink:href="#DejaVuSans-6b" transform="translate(732.958984 0)"/>
      </g>
     </g>
    </g>
    <g id="xtick_2">
     <g id="line2d_2">
      <g>
       <use xlink:href="#m7febfdc7e3" x="713.872727" y="512.64" style="stroke: #000000; stroke-width: 0.8"/>
      </g>
     </g>
     <g id="text_2">
      <!-- pystone -->
      <g transform="translate(693.869602 527.238438) scale(0.1 -0.1)">
       <defs>
        <path id="DejaVuSans-79" d="M 2059 -325 
Q 1816 -950 1584 -1140 
Q 1353 -1331 966 -1331 
L 506 -1331 
L 506 -850 
L 844 -850 
Q 1081 -850 1212 -737 
Q 1344 -625 1503 -206 
L 1606 56 
L 191 3500 
L 800 3500 
L 1894 763 
L 2988 3500 
L 3597 3500 
L 2059 -325 
z
" transform="scale(0.015625)"/>
        <path id="DejaVuSans-73" d="M 2834 3397 
L 2834 2853 
Q 2591 2978 2328 3040 
Q 2066 3103 1784 3103 
Q 1356 3103 1142 2972 
Q 928 2841 928 2578 
Q 928 2378 1081 2264 
Q 1234 2150 1697 2047 
L 1894 2003 
Q 2506 1872 2764 1633 
Q 3022 1394 3022 966 
Q 3022 478 2636 193 
Q 2250 -91 1575 -91 
Q 1294 -91 989 -36 
Q 684 19 347 128 
L 347 722 
Q 666 556 975 473 
Q 1284 391 1588 391 
Q 1994 391 2212 530 
Q 2431 669 2431 922 
Q 2431 1156 2273 1281 
Q 2116 1406 1581 1522 
L 1381 1569 
Q 847 1681 609 1914 
Q 372 2147 372 2553 
Q 372 3047 722 3315 
Q 1072 3584 1716 3584 
Q 2034 3584 2315 3537 
Q 2597 3491 2834 3397 
z
" transform="scale(0.015625)"/>
        <path id="DejaVuSans-74" d="M 1172 4494 
L 1172 3500 
L 2356 3500 
L 2356 3053 
L 1172 3053 
L 1172 1153 
Q 1172 725 1289 603 
Q 1406 481 1766 481 
L 2356 481 
L 2356 0 
L 1766 0 
Q 1100 0 847 248 
Q 594 497 594 1153 
L 594 3053 
L 172 3053 
L 172 3500 
L 594 3500 
L 594 4494 
L 1172 4494 
z
" transform="scale(0.015625)"/>
        <path id="DejaVuSans-6f" d="M 1959 3097 
Q 1497 3097 1228 2736 
Q 959 2375 959 1747 
Q 959 1119 1226 758 
Q 1494 397 1959 397 
Q 2419 397 2687 759 
Q 2956 1122 2956 1747 
Q 2956 2369 2687 2733 
Q 2419 3097 1959 3097 
z
M 1959 3584 
Q 2709 3584 3137 3096 
Q 3566 2609 3566 1747 
Q 3566 888 3137 398 
Q 2709 -91 1959 -91 
Q 1206 -91 779 398 
Q 353 888 353 1747 
Q 353 2609 779 3096 
Q 1206 3584 1959 3584 
z
" transform="scale(0.015625)"/>
       </defs>
       <use xlink:href="#DejaVuSans-70"/>
       <use xlink:href="#DejaVuSans-79" transform="translate(63.476562 0)"/>
       <use xlink:href="#DejaVuSans-73" transform="translate(122.65625 0)"/>
       <use xlink:href="#DejaVuSans-74" transform="translate(174.755859 0)"/>
       <use xlink:href="#DejaVuSans-6f" transform="translate(213.964844 0)"/>
       <use xlink:href="#DejaVuSans-6e" transform="translate(275.146484 0)"/>
       <use xlink:href="#DejaVuSans-65" transform="translate(338.525391 0)"/>
      </g>
     </g>
    </g>
   </g>
   <g id="matplotlib.axis_2">
    <g id="ytick_1">
     <g id="line2d_3">
      <path d="M 126 512.64 
L 907.2 512.64 
" clip-path="url(#pea25fb0148)" style="fill: none; stroke-dasharray: 2.96,1.28; stroke-dashoffset: 0; stroke: #b0b0b0; stroke-opacity: 0.4; stroke-width: 0.8"/>
     </g>
     <g id="line2d_4">
      <defs>
       <path id="mf1884ecf70" d="M 0 0 
L -3.5 0 
" style="stroke: #000000; stroke-width: 0.8"/>
      </defs>
      <g>
       <use xlink:href="#mf1884ecf70" x="126" y="512.64" style="stroke: #000000; stroke-width: 0.8"/>
      </g>
     </g>
     <g id="text_3">
      <!-- 0 -->
      <g transform="translate(112.6375 516.439219) scale(0.1 -0.1)">
       <defs>
        <path id="DejaVuSans-30" d="M 2034 4250 
Q 1547 4250 1301 3770 
Q 1056 3291 1056 2328 
Q 1056 1369 1301 889 
Q 1547 409 2034 409 
Q 2525 409 2770 889 
Q 3016 1369 3016 2328 
Q 3016 3291 2770 3770 
Q 2525 4250 2034 4250 
z
M 2034 4750 
Q 2819 4750 3233 4129 
Q 3647 3509 3647 2328 
Q 3647 1150 3233 529 
Q 2819 -91 2034 -91 
Q 1250 -91 836 529 
Q 422 1150 422 2328 
Q 422 3509 836 4129 
Q 1250 4750 2034 4750 
z
" transform="scale(0.015625)"/>
       </defs>
       <use xlink:href="#DejaVuSans-30"/>
      </g>
     </g>
    </g>
    <g id="ytick_2">
     <g id="line2d_5">
      <path d="M 126 451.731573 
L 907.2 451.731573 
" clip-path="url(#pea25fb0148)" style="fill: none; stroke-dasharray: 2.96,1.28; stroke-dashoffset: 0; stroke: #b0b0b0; stroke-opacity: 0.4; stroke-width: 0.8"/>
     </g>
     <g id="line2d_6">
      <g>
       <use xlink:href="#mf1884ecf70" x="126" y="451.731573" style="stroke: #000000; stroke-width: 0.8"/>
      </g>
     </g>
     <g id="text_4">
      <!-- 25 -->
      <g transform="translate(106.275 455.530791) scale(0.1 -0.1)">
       <defs>
        <path id="DejaVuSans-32" d="M 1228 531 
L 3431 531 
L 3431 0 
L 469 0 
L 469 531 
Q 828 903 1448 1529 
Q 2069 2156 2228 2338 
Q 2531 2678 2651 2914 
Q 2772 3150 2772 3378 
Q 2772 3750 2511 3984 
Q 2250 4219 1831 4219 
Q 1534 4219 1204 4116 
Q 875 4013 500 3803 
L 500 4441 
Q 881 4594 1212 4672 
Q 1544 4750 1819 4750 
Q 2544 4750 2975 4387 
Q 3406 4025 3406 3419 
Q 3406 3131 3298 2873 
Q 3191 2616 2906 2266 
Q 2828 2175 2409 1742 
Q 1991 1309 1228 531 
z
" transform="scale(0.015625)"/>
        <path id="DejaVuSans-35" d="M 691 4666 
L 3169 4666 
L 3169 4134 
L 1269 4134 
L 1269 2991 
Q 1406 3038 1543 3061 
Q 1681 3084 1819 3084 
Q 2600 3084 3056 2656 
Q 3513 2228 3513 1497 
Q 3513 744 3044 326 
Q 2575 -91 1722 -91 
Q 1428 -91 1123 -41 
Q 819 9 494 109 
L 494 744 
Q 775 591 1075 516 
Q 1375 441 1709 441 
Q 2250 441 2565 725 
Q 2881 1009 2881 1497 
Q 2881 1984 2565 2268 
Q 2250 2553 1709 2553 
Q 1456 2553 1204 2497 
Q 953 2441 691 2322 
L 691 4666 
z
" transform="scale(0.015625)"/>
       </defs>
       <use xlink:href="#DejaVuSans-32"/>
       <use xlink:href="#DejaVuSans-35" transform="translate(63.623047 0)"/>
      </g>
     </g>
    </g>
    <g id="ytick_3">
     <g id="line2d_7">
      <path d="M 126 390.823145 
L 907.2 390.823145 
" clip-path="url(#pea25fb0148)" style="fill: none; stroke-dasharray: 2.96,1.28; stroke-dashoffset: 0; stroke: #b0b0b0; stroke-opacity: 0.4; stroke-width: 0.8"/>
     </g>
     <g id="line2d_8">
      <g>
       <use xlink:href="#mf1884ecf70" x="126" y="390.823145" style="stroke: #000000; stroke-width: 0.8"/>
      </g>
     </g>
     <g id="text_5">
      <!-- 50 -->
      <g transform="translate(106.275 394.622364) scale(0.1 -0.1)">
       <use xlink:href="#DejaVuSans-35"/>
       <use xlink:href="#DejaVuSans-30" transform="translate(63.623047 0)"/>
      </g>
     </g>
    </g>
    <g id="ytick_4">
     <g id="line2d_9">
      <path d="M 126 329.914718 
L 907.2 329.914718 
" clip-path="url(#pea25fb0148)" style="fill: none; stroke-dasharray: 2.96,1.28; stroke-dashoffset: 0; stroke: #b0b0b0; stroke-opacity: 0.4; stroke-width: 0.8"/>
     </g>
     <g id="line2d_10">
      <g>
       <use xlink:href="#mf1884ecf70" x="126" y="329.914718" style="stroke: #000000; stroke-width: 0.8"/>
      </g>
     </g>
     <g id="text_6">
      <!-- 75 -->
      <g transform="translate(106.275 333.713936) scale(0.1 -0.1)">
       <defs>
        <path id="DejaVuSans-37" d="M 525 4666 
L 3525 4666 
L 3525 4397 
L 1831 0 
L 1172 0 
L 2766 4134 
L 525 4134 
L 525 4666 
z
" transform="scale(0.015625)"/>
       </defs>
       <use xlink:href="#DejaVuSans-37"/>
       <use xlink:href="#DejaVuSans-35" transform="translate(63.623047 0)"/>
      </g>
     </g>
    </g>
    <g id="ytick_5">
     <g id="line2d_11">
      <path d="M 126 269.00629 
L 907.2 269.00629 
" clip-path="url(#pea25fb0148)" style="fill: none; stroke-dasharray: 2.96,1.28; stroke-dashoffset: 0; stroke: #b0b0b0; stroke-opacity: 0.4; stroke-width: 0.8"/>
     </g>
     <g id="line2d_12">
      <g>
       <use xlink:href="#mf1884ecf70" x="126" y="269.00629" style="stroke: #000000; stroke-width: 0.8"/>
      </g>
     </g>
     <g id="text_7">
      <!-- 100 -->
      <g transform="translate(99.9125 272.805509) scale(0.1 -0.1)">
       <defs>
        <path id="DejaVuSans-31" d="M 794 531 
L 1825 531 
L 1825 4091 
L 703 3866 
L 703 4441 
L 1819 4666 
L 2450 4666 
L 2450 531 
L 3481 531 
L 3481 0 
L 794 0 
L 794 531 
z
" transform="scale(0.015625)"/>
       </defs>
       <use xlink:href="#DejaVuSans-31"/>
       <use xlink:href="#DejaVuSans-30" transform="translate(63.623047 0)"/>
       <use xlink:href="#DejaVuSans-30" transform="translate(127.246094 0)"/>
      </g>
     </g>
    </g>
    <g id="ytick_6">
     <g id="line2d_13">
      <path d="M 126 208.097863 
L 907.2 208.097863 
" clip-path="url(#pea25fb0148)" style="fill: none; stroke-dasharray: 2.96,1.28; stroke-dashoffset: 0; stroke: #b0b0b0; stroke-opacity: 0.4; stroke-width: 0.8"/>
     </g>
     <g id="line2d_14">
      <g>
       <use xlink:href="#mf1884ecf70" x="126" y="208.097863" style="stroke: #000000; stroke-width: 0.8"/>
      </g>
     </g>
     <g id="text_8">
      <!-- 125 -->
      <g transform="translate(99.9125 211.897082) scale(0.1 -0.1)">
       <use xlink:href="#DejaVuSans-31"/>
       <use xlink:href="#DejaVuSans-32" transform="translate(63.623047 0)"/>
       <use xlink:href="#DejaVuSans-35" transform="translate(127.246094 0)"/>
      </g>
     </g>
    </g>
    <g id="ytick_7">
     <g id="line2d_15">
      <path d="M 126 147.189435 
L 907.2 147.189435 
" clip-path="url(#pea25fb0148)" style="fill: none; stroke-dasharray: 2.96,1.28; stroke-dashoffset: 0; stroke: #b0b0b0; stroke-opacity: 0.4; stroke-width: 0.8"/>
     </g>
     <g id="line2d_16">
      <g>
       <use xlink:href="#mf1884ecf70" x="126" y="147.189435" style="stroke: #000000; stroke-width: 0.8"/>
      </g>
     </g>
     <g id="text_9">
      <!-- 150 -->
      <g transform="translate(99.9125 150.988654) scale(0.1 -0.1)">
       <use xlink:href="#DejaVuSans-31"/>
       <use xlink:href="#DejaVuSans-35" transform="translate(63.623047 0)"/>
       <use xlink:href="#DejaVuSans-30" transform="translate(127.246094 0)"/>
      </g>
     </g>
    </g>
    <g id="ytick_8">
     <g id="line2d_17">
      <path d="M 126 86.281008 
L 907.2 86.281008 
" clip-path="url(#pea25fb0148)" style="fill: none; stroke-dasharray: 2.96,1.28; stroke-dashoffset: 0; stroke: #b0b0b0; stroke-opacity: 0.4; stroke-width: 0.8"/>
     </g>
     <g id="line2d_18">
      <g>
       <use xlink:href="#mf1884ecf70" x="126" y="86.281008" style="stroke: #000000; stroke-width: 0.8"/>
      </g>
     </g>
     <g id="text_10">
      <!-- 175 -->
      <g transform="translate(99.9125 90.080227) scale(0.1 -0.1)">
       <use xlink:href="#DejaVuSans-31"/>
       <use xlink:href="#DejaVuSans-37" transform="translate(63.623047 0)"/>
       <use xlink:href="#DejaVuSans-35" transform="translate(127.246094 0)"/>
      </g>
     </g>
    </g>
    <g id="text_11">
     <!-- runtime as percent of native (%) -->
     <g transform="translate(93.832812 372.421406) rotate(-90) scale(0.1 -0.1)">
      <defs>
       <path id="DejaVuSans-75" d="M 544 1381 
L 544 3500 
L 1119 3500 
L 1119 1403 
Q 1119 906 1312 657 
Q 1506 409 1894 409 
Q 2359 409 2629 706 
Q 2900 1003 2900 1516 
L 2900 3500 
L 3475 3500 
L 3475 0 
L 2900 0 
L 2900 538 
Q 2691 219 2414 64 
Q 2138 -91 1772 -91 
Q 1169 -91 856 284 
Q 544 659 544 1381 
z
M 1991 3584 
L 1991 3584 
z
" transform="scale(0.015625)"/>
       <path id="DejaVuSans-69" d="M 603 3500 
L 1178 3500 
L 1178 0 
L 603 0 
L 603 3500 
z
M 603 4863 
L 1178 4863 
L 1178 4134 
L 603 4134 
L 603 4863 
z
" transform="scale(0.015625)"/>
       <path id="DejaVuSans-20" transform="scale(0.015625)"/>
       <path id="DejaVuSans-66" d="M 2375 4863 
L 2375 4384 
L 1825 4384 
Q 1516 4384 1395 4259 
Q 1275 4134 1275 3809 
L 1275 3500 
L 2222 3500 
L 2222 3053 
L 1275 3053 
L 1275 0 
L 697 0 
L 697 3053 
L 147 3053 
L 147 3500 
L 697 3500 
L 697 3744 
Q 697 4328 969 4595 
Q 1241 4863 1831 4863 
L 2375 4863 
z
" transform="scale(0.015625)"/>
       <path id="DejaVuSans-76" d="M 191 3500 
L 800 3500 
L 1894 563 
L 2988 3500 
L 3597 3500 
L 2284 0 
L 1503 0 
L 191 3500 
z
" transform="scale(0.015625)"/>
       <path id="DejaVuSans-28" d="M 1984 4856 
Q 1566 4138 1362 3434 
Q 1159 2731 1159 2009 
Q 1159 1288 1364 580 
Q 1569 -128 1984 -844 
L 1484 -844 
Q 1016 -109 783 600 
Q 550 1309 550 2009 
Q 550 2706 781 3412 
Q 1013 4119 1484 4856 
L 1984 4856 
z
" transform="scale(0.015625)"/>
       <path id="DejaVuSans-25" d="M 4653 2053 
Q 4381 2053 4226 1822 
Q 4072 1591 4072 1178 
Q 4072 772 4226 539 
Q 4381 306 4653 306 
Q 4919 306 5073 539 
Q 5228 772 5228 1178 
Q 5228 1588 5073 1820 
Q 4919 2053 4653 2053 
z
M 4653 2450 
Q 5147 2450 5437 2106 
Q 5728 1763 5728 1178 
Q 5728 594 5436 251 
Q 5144 -91 4653 -91 
Q 4153 -91 3862 251 
Q 3572 594 3572 1178 
Q 3572 1766 3864 2108 
Q 4156 2450 4653 2450 
z
M 1428 4353 
Q 1159 4353 1004 4120 
Q 850 3888 850 3481 
Q 850 3069 1003 2837 
Q 1156 2606 1428 2606 
Q 1700 2606 1854 2837 
Q 2009 3069 2009 3481 
Q 2009 3884 1853 4118 
Q 1697 4353 1428 4353 
z
M 4250 4750 
L 4750 4750 
L 1831 -91 
L 1331 -91 
L 4250 4750 
z
M 1428 4750 
Q 1922 4750 2215 4408 
Q 2509 4066 2509 3481 
Q 2509 2891 2217 2550 
Q 1925 2209 1428 2209 
Q 931 2209 642 2551 
Q 353 2894 353 3481 
Q 353 4063 643 4406 
Q 934 4750 1428 4750 
z
" transform="scale(0.015625)"/>
       <path id="DejaVuSans-29" d="M 513 4856 
L 1013 4856 
Q 1481 4119 1714 3412 
Q 1947 2706 1947 2009 
Q 1947 1309 1714 600 
Q 1481 -109 1013 -844 
L 513 -844 
Q 928 -128 1133 580 
Q 1338 1288 1338 2009 
Q 1338 2731 1133 3434 
Q 928 4138 513 4856 
z
" transform="scale(0.015625)"/>
      </defs>
      <use xlink:href="#DejaVuSans-72"/>
      <use xlink:href="#DejaVuSans-75" transform="translate(41.113281 0)"/>
      <use xlink:href="#DejaVuSans-6e" transform="translate(104.492188 0)"/>
      <use xlink:href="#DejaVuSans-74" transform="translate(167.871094 0)"/>
      <use xlink:href="#DejaVuSans-69" transform="translate(207.080078 0)"/>
      <use xlink:href="#DejaVuSans-6d" transform="translate(234.863281 0)"/>
      <use xlink:href="#DejaVuSans-65" transform="translate(332.275391 0)"/>
      <use xlink:href="#DejaVuSans-20" transform="translate(393.798828 0)"/>
      <use xlink:href="#DejaVuSans-61" transform="translate(425.585938 0)"/>
      <use xlink:href="#DejaVuSans-73" transform="translate(486.865234 0)"/>
      <use xlink:href="#DejaVuSans-20" transform="translate(538.964844 0)"/>
      <use xlink:href="#DejaVuSans-70" transform="translate(570.751953 0)"/>
      <use xlink:href="#DejaVuSans-65" transform="translate(634.228516 0)"/>
      <use xlink:href="#DejaVuSans-72" transform="translate(695.751953 0)"/>
      <use xlink:href="#DejaVuSans-63" transform="translate(734.615234 0)"/>
      <use xlink:href="#DejaVuSans-65" transform="translate(789.595703 0)"/>
      <use xlink:href="#DejaVuSans-6e" transform="translate(851.119141 0)"/>
      <use xlink:href="#DejaVuSans-74" transform="translate(914.498047 0)"/>
      <use xlink:href="#DejaVuSans-20" transform="translate(953.707031 0)"/>
      <use xlink:href="#DejaVuSans-6f" transform="translate(985.494141 0)"/>
      <use xlink:href="#DejaVuSans-66" transform="translate(1046.675781 0)"/>
      <use xlink:href="#DejaVuSans-20" transform="translate(1081.880859 0)"/>
      <use xlink:href="#DejaVuSans-6e" transform="translate(1113.667969 0)"/>
      <use xlink:href="#DejaVuSans-61" transform="translate(1177.046875 0)"/>
      <use xlink:href="#DejaVuSans-74" transform="translate(1238.326172 0)"/>
      <use xlink:href="#DejaVuSans-69" transform="translate(1277.535156 0)"/>
      <use xlink:href="#DejaVuSans-76" transform="translate(1305.318359 0)"/>
      <use xlink:href="#DejaVuSans-65" transform="translate(1364.498047 0)"/>
      <use xlink:href="#DejaVuSans-20" transform="translate(1426.021484 0)"/>
      <use xlink:href="#DejaVuSans-28" transform="translate(1457.808594 0)"/>
      <use xlink:href="#DejaVuSans-25" transform="translate(1496.822266 0)"/>
      <use xlink:href="#DejaVuSans-29" transform="translate(1591.841797 0)"/>
     </g>
    </g>
   </g>
   <g id="patch_17">
    <path d="M 126 512.64 
L 126 69.12 
" style="fill: none; stroke: #000000; stroke-width: 0.8; stroke-linejoin: miter; stroke-linecap: square"/>
   </g>
   <g id="patch_18">
    <path d="M 907.2 512.64 
L 907.2 69.12 
" style="fill: none; stroke: #000000; stroke-width: 0.8; stroke-linejoin: miter; stroke-linecap: square"/>
   </g>
   <g id="patch_19">
    <path d="M 126 512.64 
L 907.2 512.64 
" style="fill: none; stroke: #000000; stroke-width: 0.8; stroke-linejoin: miter; stroke-linecap: square"/>
   </g>
   <g id="patch_20">
    <path d="M 126 69.12 
L 907.2 69.12 
" style="fill: none; stroke: #000000; stroke-width: 0.8; stroke-linejoin: miter; stroke-linecap: square"/>
   </g>
   <g id="text_12">
    <!-- Wasmer vs Native -->
    <g transform="translate(462.32625 63.12) scale(0.12 -0.12)">
     <defs>
      <path id="DejaVuSans-57" d="M 213 4666 
L 850 4666 
L 1831 722 
L 2809 4666 
L 3519 4666 
L 4500 722 
L 5478 4666 
L 6119 4666 
L 4947 0 
L 4153 0 
L 3169 4050 
L 2175 0 
L 1381 0 
L 213 4666 
z
" transform="scale(0.015625)"/>
      <path id="DejaVuSans-4e" d="M 628 4666 
L 1478 4666 
L 3547 763 
L 3547 4666 
L 4159 4666 
L 4159 0 
L 3309 0 
L 1241 3903 
L 1241 0 
L 628 0 
L 628 4666 
z
" transform="scale(0.015625)"/>
     </defs>
     <use xlink:href="#DejaVuSans-57"/>
     <use xlink:href="#DejaVuSans-61" transform="translate(92.501953 0)"/>
     <use xlink:href="#DejaVuSans-73" transform="translate(153.78125 0)"/>
     <use xlink:href="#DejaVuSans-6d" transform="translate(205.880859 0)"/>
     <use xlink:href="#DejaVuSans-65" transform="translate(303.292969 0)"/>
     <use xlink:href="#DejaVuSans-72" transform="translate(364.816406 0)"/>
     <use xlink:href="#DejaVuSans-20" transform="translate(405.929688 0)"/>
     <use xlink:href="#DejaVuSans-76" transform="translate(437.716797 0)"/>
     <use xlink:href="#DejaVuSans-73" transform="translate(496.896484 0)"/>
     <use xlink:href="#DejaVuSans-20" transform="translate(548.996094 0)"/>
     <use xlink:href="#DejaVuSans-4e" transform="translate(580.783203 0)"/>
     <use xlink:href="#DejaVuSans-61" transform="translate(655.587891 0)"/>
     <use xlink:href="#DejaVuSans-74" transform="translate(716.867188 0)"/>
     <use xlink:href="#DejaVuSans-69" transform="translate(756.076172 0)"/>
     <use xlink:href="#DejaVuSans-76" transform="translate(783.859375 0)"/>
     <use xlink:href="#DejaVuSans-65" transform="translate(843.039062 0)"/>
    </g>
   </g>
   <g id="legend_1">
    <g id="patch_21">
     <path d="M 133 179.866875 
L 676.835938 179.866875 
Q 678.835938 179.866875 678.835938 177.866875 
L 678.835938 76.12 
Q 678.835938 74.12 676.835938 74.12 
L 133 74.12 
Q 131 74.12 131 76.12 
L 131 177.866875 
Q 131 179.866875 133 179.866875 
z
" style="fill: #ffffff; opacity: 0.8; stroke: #cccccc; stroke-linejoin: miter"/>
    </g>
    <g id="patch_22">
     <path d="M 135 85.718438 
L 155 85.718438 
L 155 78.718438 
L 135 78.718438 
z
" style="fill: #1f77b4"/>
    </g>
    <g id="text_13">
     <!-- native (PHP: 100.0% / Python: 100.0%) -->
     <g transform="translate(163 85.718438) scale(0.1 -0.1)">
      <defs>
       <path id="DejaVuSans-50" d="M 1259 4147 
L 1259 2394 
L 2053 2394 
Q 2494 2394 2734 2622 
Q 2975 2850 2975 3272 
Q 2975 3691 2734 3919 
Q 2494 4147 2053 4147 
L 1259 4147 
z
M 628 4666 
L 2053 4666 
Q 2838 4666 3239 4311 
Q 3641 3956 3641 3272 
Q 3641 2581 3239 2228 
Q 2838 1875 2053 1875 
L 1259 1875 
L 1259 0 
L 628 0 
L 628 4666 
z
" transform="scale(0.015625)"/>
       <path id="DejaVuSans-48" d="M 628 4666 
L 1259 4666 
L 1259 2753 
L 3553 2753 
L 3553 4666 
L 4184 4666 
L 4184 0 
L 3553 0 
L 3553 2222 
L 1259 2222 
L 1259 0 
L 628 0 
L 628 4666 
z
" transform="scale(0.015625)"/>
       <path id="DejaVuSans-3a" d="M 750 794 
L 1409 794 
L 1409 0 
L 750 0 
L 750 794 
z
M 750 3309 
L 1409 3309 
L 1409 2516 
L 750 2516 
L 750 3309 
z
" transform="scale(0.015625)"/>
       <path id="DejaVuSans-2e" d="M 684 794 
L 1344 794 
L 1344 0 
L 684 0 
L 684 794 
z
" transform="scale(0.015625)"/>
       <path id="DejaVuSans-2f" d="M 1625 4666 
L 2156 4666 
L 531 -594 
L 0 -594 
L 1625 4666 
z
" transform="scale(0.015625)"/>
      </defs>
      <use xlink:href="#DejaVuSans-6e"/>
      <use xlink:href="#DejaVuSans-61" transform="translate(63.378906 0)"/>
      <use xlink:href="#DejaVuSans-74" transform="translate(124.658203 0)"/>
      <use xlink:href="#DejaVuSans-69" transform="translate(163.867188 0)"/>
      <use xlink:href="#DejaVuSans-76" transform="translate(191.650391 0)"/>
      <use xlink:href="#DejaVuSans-65" transform="translate(250.830078 0)"/>
      <use xlink:href="#DejaVuSans-20" transform="translate(312.353516 0)"/>
      <use xlink:href="#DejaVuSans-28" transform="translate(344.140625 0)"/>
      <use xlink:href="#DejaVuSans-50" transform="translate(383.154297 0)"/>
      <use xlink:href="#DejaVuSans-48" transform="translate(443.457031 0)"/>
      <use xlink:href="#DejaVuSans-50" transform="translate(518.652344 0)"/>
      <use xlink:href="#DejaVuSans-3a" transform="translate(578.955078 0)"/>
      <use xlink:href="#DejaVuSans-20" transform="translate(612.646484 0)"/>
      <use xlink:href="#DejaVuSans-31" transform="translate(644.433594 0)"/>
      <use xlink:href="#DejaVuSans-30" transform="translate(708.056641 0)"/>
      <use xlink:href="#DejaVuSans-30" transform="translate(771.679688 0)"/>
      <use xlink:href="#DejaVuSans-2e" transform="translate(835.302734 0)"/>
      <use xlink:href="#DejaVuSans-30" transform="translate(867.089844 0)"/>
      <use xlink:href="#DejaVuSans-25" transform="translate(930.712891 0)"/>
      <use xlink:href="#DejaVuSans-20" transform="translate(1025.732422 0)"/>
      <use xlink:href="#DejaVuSans-2f" transform="translate(1057.519531 0)"/>
      <use xlink:href="#DejaVuSans-20" transform="translate(1091.210938 0)"/>
      <use xlink:href="#DejaVuSans-50" transform="translate(1122.998047 0)"/>
      <use xlink:href="#DejaVuSans-79" transform="translate(1183.300781 0)"/>
      <use xlink:href="#DejaVuSans-74" transform="translate(1242.480469 0)"/>
      <use xlink:href="#DejaVuSans-68" transform="translate(1281.689453 0)"/>
      <use xlink:href="#DejaVuSans-6f" transform="translate(1345.068359 0)"/>
      <use xlink:href="#DejaVuSans-6e" transform="translate(1406.25 0)"/>
      <use xlink:href="#DejaVuSans-3a" transform="translate(1469.628906 0)"/>
      <use xlink:href="#DejaVuSans-20" transform="translate(1503.320312 0)"/>
      <use xlink:href="#DejaVuSans-31" transform="translate(1535.107422 0)"/>
      <use xlink:href="#DejaVuSans-30" transform="translate(1598.730469 0)"/>
      <use xlink:href="#DejaVuSans-30" transform="translate(1662.353516 0)"/>
      <use xlink:href="#DejaVuSans-2e" transform="translate(1725.976562 0)"/>
      <use xlink:href="#DejaVuSans-30" transform="translate(1757.763672 0)"/>
      <use xlink:href="#DejaVuSans-25" transform="translate(1821.386719 0)"/>
      <use xlink:href="#DejaVuSans-29" transform="translate(1916.40625 0)"/>
     </g>
    </g>
    <g id="patch_23">
     <path d="M 135 100.396563 
L 155 100.396563 
L 155 93.396563 
L 135 93.396563 
z
" style="fill: #ff7f0e"/>
    </g>
    <g id="text_14">
     <!-- Wasmer 7 LLVM (w/ pass-params) (PHP: 131.0% / Python: 170.9%) -->
     <g transform="translate(163 100.396563) scale(0.1 -0.1)">
      <defs>
       <path id="DejaVuSans-4c" d="M 628 4666 
L 1259 4666 
L 1259 531 
L 3531 531 
L 3531 0 
L 628 0 
L 628 4666 
z
" transform="scale(0.015625)"/>
       <path id="DejaVuSans-56" d="M 1831 0 
L 50 4666 
L 709 4666 
L 2188 738 
L 3669 4666 
L 4325 4666 
L 2547 0 
L 1831 0 
z
" transform="scale(0.015625)"/>
       <path id="DejaVuSans-4d" d="M 628 4666 
L 1569 4666 
L 2759 1491 
L 3956 4666 
L 4897 4666 
L 4897 0 
L 4281 0 
L 4281 4097 
L 3078 897 
L 2444 897 
L 1241 4097 
L 1241 0 
L 628 0 
L 628 4666 
z
" transform="scale(0.015625)"/>
       <path id="DejaVuSans-77" d="M 269 3500 
L 844 3500 
L 1563 769 
L 2278 3500 
L 2956 3500 
L 3675 769 
L 4391 3500 
L 4966 3500 
L 4050 0 
L 3372 0 
L 2619 2869 
L 1863 0 
L 1184 0 
L 269 3500 
z
" transform="scale(0.015625)"/>
       <path id="DejaVuSans-33" d="M 2597 2516 
Q 3050 2419 3304 2112 
Q 3559 1806 3559 1356 
Q 3559 666 3084 287 
Q 2609 -91 1734 -91 
Q 1441 -91 1130 -33 
Q 819 25 488 141 
L 488 750 
Q 750 597 1062 519 
Q 1375 441 1716 441 
Q 2309 441 2620 675 
Q 2931 909 2931 1356 
Q 2931 1769 2642 2001 
Q 2353 2234 1838 2234 
L 1294 2234 
L 1294 2753 
L 1863 2753 
Q 2328 2753 2575 2939 
Q 2822 3125 2822 3475 
Q 2822 3834 2567 4026 
Q 2313 4219 1838 4219 
Q 1578 4219 1281 4162 
Q 984 4106 628 3988 
L 628 4550 
Q 988 4650 1302 4700 
Q 1616 4750 1894 4750 
Q 2613 4750 3031 4423 
Q 3450 4097 3450 3541 
Q 3450 3153 3228 2886 
Q 3006 2619 2597 2516 
z
" transform="scale(0.015625)"/>
       <path id="DejaVuSans-39" d="M 703 97 
L 703 672 
Q 941 559 1184 500 
Q 1428 441 1663 441 
Q 2288 441 2617 861 
Q 2947 1281 2994 2138 
Q 2813 1869 2534 1725 
Q 2256 1581 1919 1581 
Q 1219 1581 811 2004 
Q 403 2428 403 3163 
Q 403 3881 828 4315 
Q 1253 4750 1959 4750 
Q 2769 4750 3195 4129 
Q 3622 3509 3622 2328 
Q 3622 1225 3098 567 
Q 2575 -91 1691 -91 
Q 1453 -91 1209 -44 
Q 966 3 703 97 
z
M 1959 2075 
Q 2384 2075 2632 2365 
Q 2881 2656 2881 3163 
Q 2881 3666 2632 3958 
Q 2384 4250 1959 4250 
Q 1534 4250 1286 3958 
Q 1038 3666 1038 3163 
Q 1038 2656 1286 2365 
Q 1534 2075 1959 2075 
z
" transform="scale(0.015625)"/>
      </defs>
      <use xlink:href="#DejaVuSans-57"/>
      <use xlink:href="#DejaVuSans-61" transform="translate(92.501953 0)"/>
      <use xlink:href="#DejaVuSans-73" transform="translate(153.78125 0)"/>
      <use xlink:href="#DejaVuSans-6d" transform="translate(205.880859 0)"/>
      <use xlink:href="#DejaVuSans-65" transform="translate(303.292969 0)"/>
      <use xlink:href="#DejaVuSans-72" transform="translate(364.816406 0)"/>
      <use xlink:href="#DejaVuSans-20" transform="translate(405.929688 0)"/>
      <use xlink:href="#DejaVuSans-37" transform="translate(437.716797 0)"/>
      <use xlink:href="#DejaVuSans-20" transform="translate(501.339844 0)"/>
      <use xlink:href="#DejaVuSans-4c" transform="translate(533.126953 0)"/>
      <use xlink:href="#DejaVuSans-4c" transform="translate(588.839844 0)"/>
      <use xlink:href="#DejaVuSans-56" transform="translate(633.552734 0)"/>
      <use xlink:href="#DejaVuSans-4d" transform="translate(701.960938 0)"/>
      <use xlink:href="#DejaVuSans-20" transform="translate(788.240234 0)"/>
      <use xlink:href="#DejaVuSans-28" transform="translate(820.027344 0)"/>
      <use xlink:href="#DejaVuSans-77" transform="translate(859.041016 0)"/>
      <use xlink:href="#DejaVuSans-2f" transform="translate(940.828125 0)"/>
      <use xlink:href="#DejaVuSans-20" transform="translate(974.519531 0)"/>
      <use xlink:href="#DejaVuSans-70" transform="translate(1006.306641 0)"/>
      <use xlink:href="#DejaVuSans-61" transform="translate(1069.783203 0)"/>
      <use xlink:href="#DejaVuSans-73" transform="translate(1131.0625 0)"/>
      <use xlink:href="#DejaVuSans-73" transform="translate(1183.162109 0)"/>
      <use xlink:href="#DejaVuSans-2d" transform="translate(1235.261719 0)"/>
      <use xlink:href="#DejaVuSans-70" transform="translate(1271.345703 0)"/>
      <use xlink:href="#DejaVuSans-61" transform="translate(1334.822266 0)"/>
      <use xlink:href="#DejaVuSans-72" transform="translate(1396.101562 0)"/>
      <use xlink:href="#DejaVuSans-61" transform="translate(1437.214844 0)"/>
      <use xlink:href="#DejaVuSans-6d" transform="translate(1498.494141 0)"/>
      <use xlink:href="#DejaVuSans-73" transform="translate(1595.90625 0)"/>
      <use xlink:href="#DejaVuSans-29" transform="translate(1648.005859 0)"/>
      <use xlink:href="#DejaVuSans-20" transform="translate(1687.019531 0)"/>
      <use xlink:href="#DejaVuSans-28" transform="translate(1718.806641 0)"/>
      <use xlink:href="#DejaVuSans-50" transform="translate(1757.820312 0)"/>
      <use xlink:href="#DejaVuSans-48" transform="translate(1818.123047 0)"/>
      <use xlink:href="#DejaVuSans-50" transform="translate(1893.318359 0)"/>
      <use xlink:href="#DejaVuSans-3a" transform="translate(1953.621094 0)"/>
      <use xlink:href="#DejaVuSans-20" transform="translate(1987.3125 0)"/>
      <use xlink:href="#DejaVuSans-31" transform="translate(2019.099609 0)"/>
      <use xlink:href="#DejaVuSans-33" transform="translate(2082.722656 0)"/>
      <use xlink:href="#DejaVuSans-31" transform="translate(2146.345703 0)"/>
      <use xlink:href="#DejaVuSans-2e" transform="translate(2209.96875 0)"/>
      <use xlink:href="#DejaVuSans-30" transform="translate(2241.755859 0)"/>
      <use xlink:href="#DejaVuSans-25" transform="translate(2305.378906 0)"/>
      <use xlink:href="#DejaVuSans-20" transform="translate(2400.398438 0)"/>
      <use xlink:href="#DejaVuSans-2f" transform="translate(2432.185547 0)"/>
      <use xlink:href="#DejaVuSans-20" transform="translate(2465.876953 0)"/>
      <use xlink:href="#DejaVuSans-50" transform="translate(2497.664062 0)"/>
      <use xlink:href="#DejaVuSans-79" transform="translate(2557.966797 0)"/>
      <use xlink:href="#DejaVuSans-74" transform="translate(2617.146484 0)"/>
      <use xlink:href="#DejaVuSans-68" transform="translate(2656.355469 0)"/>
      <use xlink:href="#DejaVuSans-6f" transform="translate(2719.734375 0)"/>
      <use xlink:href="#DejaVuSans-6e" transform="translate(2780.916016 0)"/>
      <use xlink:href="#DejaVuSans-3a" transform="translate(2844.294922 0)"/>
      <use xlink:href="#DejaVuSans-20" transform="translate(2877.986328 0)"/>
      <use xlink:href="#DejaVuSans-31" transform="translate(2909.773438 0)"/>
      <use xlink:href="#DejaVuSans-37" transform="translate(2973.396484 0)"/>
      <use xlink:href="#DejaVuSans-30" transform="translate(3037.019531 0)"/>
      <use xlink:href="#DejaVuSans-2e" transform="translate(3100.642578 0)"/>
      <use xlink:href="#DejaVuSans-39" transform="translate(3132.429688 0)"/>
      <use xlink:href="#DejaVuSans-25" transform="translate(3196.052734 0)"/>
      <use xlink:href="#DejaVuSans-29" transform="translate(3291.072266 0)"/>
     </g>
    </g>
    <g id="patch_24">
     <path d="M 135 115.074688 
L 155 115.074688 
L 155 108.074688 
L 135 108.074688 
z
" style="fill: #2ca02c"/>
    </g>
    <g id="text_15">
     <!-- Wasmer LLVM (PHP: 136.4% / Python: 173.4%) -->
     <g transform="translate(163 115.074688) scale(0.1 -0.1)">
      <defs>
       <path id="DejaVuSans-36" d="M 2113 2584 
Q 1688 2584 1439 2293 
Q 1191 2003 1191 1497 
Q 1191 994 1439 701 
Q 1688 409 2113 409 
Q 2538 409 2786 701 
Q 3034 994 3034 1497 
Q 3034 2003 2786 2293 
Q 2538 2584 2113 2584 
z
M 3366 4563 
L 3366 3988 
Q 3128 4100 2886 4159 
Q 2644 4219 2406 4219 
Q 1781 4219 1451 3797 
Q 1122 3375 1075 2522 
Q 1259 2794 1537 2939 
Q 1816 3084 2150 3084 
Q 2853 3084 3261 2657 
Q 3669 2231 3669 1497 
Q 3669 778 3244 343 
Q 2819 -91 2113 -91 
Q 1303 -91 875 529 
Q 447 1150 447 2328 
Q 447 3434 972 4092 
Q 1497 4750 2381 4750 
Q 2619 4750 2861 4703 
Q 3103 4656 3366 4563 
z
" transform="scale(0.015625)"/>
       <path id="DejaVuSans-34" d="M 2419 4116 
L 825 1625 
L 2419 1625 
L 2419 4116 
z
M 2253 4666 
L 3047 4666 
L 3047 1625 
L 3713 1625 
L 3713 1100 
L 3047 1100 
L 3047 0 
L 2419 0 
L 2419 1100 
L 313 1100 
L 313 1709 
L 2253 4666 
z
" transform="scale(0.015625)"/>
      </defs>
      <use xlink:href="#DejaVuSans-57"/>
      <use xlink:href="#DejaVuSans-61" transform="translate(92.501953 0)"/>
      <use xlink:href="#DejaVuSans-73" transform="translate(153.78125 0)"/>
      <use xlink:href="#DejaVuSans-6d" transform="translate(205.880859 0)"/>
      <use xlink:href="#DejaVuSans-65" transform="translate(303.292969 0)"/>
      <use xlink:href="#DejaVuSans-72" transform="translate(364.816406 0)"/>
      <use xlink:href="#DejaVuSans-20" transform="translate(405.929688 0)"/>
      <use xlink:href="#DejaVuSans-4c" transform="translate(437.716797 0)"/>
      <use xlink:href="#DejaVuSans-4c" transform="translate(493.429688 0)"/>
      <use xlink:href="#DejaVuSans-56" transform="translate(538.142578 0)"/>
      <use xlink:href="#DejaVuSans-4d" transform="translate(606.550781 0)"/>
      <use xlink:href="#DejaVuSans-20" transform="translate(692.830078 0)"/>
      <use xlink:href="#DejaVuSans-28" transform="translate(724.617188 0)"/>
      <use xlink:href="#DejaVuSans-50" transform="translate(763.630859 0)"/>
      <use xlink:href="#DejaVuSans-48" transform="translate(823.933594 0)"/>
      <use xlink:href="#DejaVuSans-50" transform="translate(899.128906 0)"/>
      <use xlink:href="#DejaVuSans-3a" transform="translate(959.431641 0)"/>
      <use xlink:href="#DejaVuSans-20" transform="translate(993.123047 0)"/>
      <use xlink:href="#DejaVuSans-31" transform="translate(1024.910156 0)"/>
      <use xlink:href="#DejaVuSans-33" transform="translate(1088.533203 0)"/>
      <use xlink:href="#DejaVuSans-36" transform="translate(1152.15625 0)"/>
      <use xlink:href="#DejaVuSans-2e" transform="translate(1215.779297 0)"/>
      <use xlink:href="#DejaVuSans-34" transform="translate(1247.566406 0)"/>
      <use xlink:href="#DejaVuSans-25" transform="translate(1311.189453 0)"/>
      <use xlink:href="#DejaVuSans-20" transform="translate(1406.208984 0)"/>
      <use xlink:href="#DejaVuSans-2f" transform="translate(1437.996094 0)"/>
      <use xlink:href="#DejaVuSans-20" transform="translate(1471.6875 0)"/>
      <use xlink:href="#DejaVuSans-50" transform="translate(1503.474609 0)"/>
      <use xlink:href="#DejaVuSans-79" transform="translate(1563.777344 0)"/>
      <use xlink:href="#DejaVuSans-74" transform="translate(1622.957031 0)"/>
      <use xlink:href="#DejaVuSans-68" transform="translate(1662.166016 0)"/>
      <use xlink:href="#DejaVuSans-6f" transform="translate(1725.544922 0)"/>
      <use xlink:href="#DejaVuSans-6e" transform="translate(1786.726562 0)"/>
      <use xlink:href="#DejaVuSans-3a" transform="translate(1850.105469 0)"/>
      <use xlink:href="#DejaVuSans-20" transform="translate(1883.796875 0)"/>
      <use xlink:href="#DejaVuSans-31" transform="translate(1915.583984 0)"/>
      <use xlink:href="#DejaVuSans-37" transform="translate(1979.207031 0)"/>
      <use xlink:href="#DejaVuSans-33" transform="translate(2042.830078 0)"/>
      <use xlink:href="#DejaVuSans-2e" transform="translate(2106.453125 0)"/>
      <use xlink:href="#DejaVuSans-34" transform="translate(2138.240234 0)"/>
      <use xlink:href="#DejaVuSans-25" transform="translate(2201.863281 0)"/>
      <use xlink:href="#DejaVuSans-29" transform="translate(2296.882812 0)"/>
     </g>
    </g>
    <g id="patch_25">
     <path d="M 135 129.752813 
L 155 129.752813 
L 155 122.752813 
L 135 122.752813 
z
" style="fill: #d62728"/>
    </g>
    <g id="text_16">
     <!-- Wasmer LLVM (w/ non-volatile) (PHP: 125.3% / Python: 166.5%) -->
     <g transform="translate(163 129.752813) scale(0.1 -0.1)">
      <defs>
       <path id="DejaVuSans-6c" d="M 603 4863 
L 1178 4863 
L 1178 0 
L 603 0 
L 603 4863 
z
" transform="scale(0.015625)"/>
      </defs>
      <use xlink:href="#DejaVuSans-57"/>
      <use xlink:href="#DejaVuSans-61" transform="translate(92.501953 0)"/>
      <use xlink:href="#DejaVuSans-73" transform="translate(153.78125 0)"/>
      <use xlink:href="#DejaVuSans-6d" transform="translate(205.880859 0)"/>
      <use xlink:href="#DejaVuSans-65" transform="translate(303.292969 0)"/>
      <use xlink:href="#DejaVuSans-72" transform="translate(364.816406 0)"/>
      <use xlink:href="#DejaVuSans-20" transform="translate(405.929688 0)"/>
      <use xlink:href="#DejaVuSans-4c" transform="translate(437.716797 0)"/>
      <use xlink:href="#DejaVuSans-4c" transform="translate(493.429688 0)"/>
      <use xlink:href="#DejaVuSans-56" transform="translate(538.142578 0)"/>
      <use xlink:href="#DejaVuSans-4d" transform="translate(606.550781 0)"/>
      <use xlink:href="#DejaVuSans-20" transform="translate(692.830078 0)"/>
      <use xlink:href="#DejaVuSans-28" transform="translate(724.617188 0)"/>
      <use xlink:href="#DejaVuSans-77" transform="translate(763.630859 0)"/>
      <use xlink:href="#DejaVuSans-2f" transform="translate(845.417969 0)"/>
      <use xlink:href="#DejaVuSans-20" transform="translate(879.109375 0)"/>
      <use xlink:href="#DejaVuSans-6e" transform="translate(910.896484 0)"/>
      <use xlink:href="#DejaVuSans-6f" transform="translate(974.275391 0)"/>
      <use xlink:href="#DejaVuSans-6e" transform="translate(1035.457031 0)"/>
      <use xlink:href="#DejaVuSans-2d" transform="translate(1098.835938 0)"/>
      <use xlink:href="#DejaVuSans-76" transform="translate(1132.294922 0)"/>
      <use xlink:href="#DejaVuSans-6f" transform="translate(1191.474609 0)"/>
      <use xlink:href="#DejaVuSans-6c" transform="translate(1252.65625 0)"/>
      <use xlink:href="#DejaVuSans-61" transform="translate(1280.439453 0)"/>
      <use xlink:href="#DejaVuSans-74" transform="translate(1341.71875 0)"/>
      <use xlink:href="#DejaVuSans-69" transform="translate(1380.927734 0)"/>
      <use xlink:href="#DejaVuSans-6c" transform="translate(1408.710938 0)"/>
      <use xlink:href="#DejaVuSans-65" transform="translate(1436.494141 0)"/>
      <use xlink:href="#DejaVuSans-29" transform="translate(1498.017578 0)"/>
      <use xlink:href="#DejaVuSans-20" transform="translate(1537.03125 0)"/>
      <use xlink:href="#DejaVuSans-28" transform="translate(1568.818359 0)"/>
      <use xlink:href="#DejaVuSans-50" transform="translate(1607.832031 0)"/>
      <use xlink:href="#DejaVuSans-48" transform="translate(1668.134766 0)"/>
      <use xlink:href="#DejaVuSans-50" transform="translate(1743.330078 0)"/>
      <use xlink:href="#DejaVuSans-3a" transform="translate(1803.632812 0)"/>
      <use xlink:href="#DejaVuSans-20" transform="translate(1837.324219 0)"/>
      <use xlink:href="#DejaVuSans-31" transform="translate(1869.111328 0)"/>
      <use xlink:href="#DejaVuSans-32" transform="translate(1932.734375 0)"/>
      <use xlink:href="#DejaVuSans-35" transform="translate(1996.357422 0)"/>
      <use xlink:href="#DejaVuSans-2e" transform="translate(2059.980469 0)"/>
      <use xlink:href="#DejaVuSans-33" transform="translate(2091.767578 0)"/>
      <use xlink:href="#DejaVuSans-25" transform="translate(2155.390625 0)"/>
      <use xlink:href="#DejaVuSans-20" transform="translate(2250.410156 0)"/>
      <use xlink:href="#DejaVuSans-2f" transform="translate(2282.197266 0)"/>
      <use xlink:href="#DejaVuSans-20" transform="translate(2315.888672 0)"/>
      <use xlink:href="#DejaVuSans-50" transform="translate(2347.675781 0)"/>
      <use xlink:href="#DejaVuSans-79" transform="translate(2407.978516 0)"/>
      <use xlink:href="#DejaVuSans-74" transform="translate(2467.158203 0)"/>
      <use xlink:href="#DejaVuSans-68" transform="translate(2506.367188 0)"/>
      <use xlink:href="#DejaVuSans-6f" transform="translate(2569.746094 0)"/>
      <use xlink:href="#DejaVuSans-6e" transform="translate(2630.927734 0)"/>
      <use xlink:href="#DejaVuSans-3a" transform="translate(2694.306641 0)"/>
      <use xlink:href="#DejaVuSans-20" transform="translate(2727.998047 0)"/>
      <use xlink:href="#DejaVuSans-31" transform="translate(2759.785156 0)"/>
      <use xlink:href="#DejaVuSans-36" transform="translate(2823.408203 0)"/>
      <use xlink:href="#DejaVuSans-36" transform="translate(2887.03125 0)"/>
      <use xlink:href="#DejaVuSans-2e" transform="translate(2950.654297 0)"/>
      <use xlink:href="#DejaVuSans-35" transform="translate(2982.441406 0)"/>
      <use xlink:href="#DejaVuSans-25" transform="translate(3046.064453 0)"/>
      <use xlink:href="#DejaVuSans-29" transform="translate(3141.083984 0)"/>
     </g>
    </g>
    <g id="patch_26">
     <path d="M 135 144.430938 
L 155 144.430938 
L 155 137.430938 
L 135 137.430938 
z
" style="fill: #9467bd"/>
    </g>
    <g id="text_17">
     <!-- Wasmer LLVM (w/ non-volatile + -O2) (PHP: 122.5% / Python: 155.8%) -->
     <g transform="translate(163 144.430938) scale(0.1 -0.1)">
      <defs>
       <path id="DejaVuSans-2b" d="M 2944 4013 
L 2944 2272 
L 4684 2272 
L 4684 1741 
L 2944 1741 
L 2944 0 
L 2419 0 
L 2419 1741 
L 678 1741 
L 678 2272 
L 2419 2272 
L 2419 4013 
L 2944 4013 
z
" transform="scale(0.015625)"/>
       <path id="DejaVuSans-4f" d="M 2522 4238 
Q 1834 4238 1429 3725 
Q 1025 3213 1025 2328 
Q 1025 1447 1429 934 
Q 1834 422 2522 422 
Q 3209 422 3611 934 
Q 4013 1447 4013 2328 
Q 4013 3213 3611 3725 
Q 3209 4238 2522 4238 
z
M 2522 4750 
Q 3503 4750 4090 4092 
Q 4678 3434 4678 2328 
Q 4678 1225 4090 567 
Q 3503 -91 2522 -91 
Q 1538 -91 948 565 
Q 359 1222 359 2328 
Q 359 3434 948 4092 
Q 1538 4750 2522 4750 
z
" transform="scale(0.015625)"/>
       <path id="DejaVuSans-38" d="M 2034 2216 
Q 1584 2216 1326 1975 
Q 1069 1734 1069 1313 
Q 1069 891 1326 650 
Q 1584 409 2034 409 
Q 2484 409 2743 651 
Q 3003 894 3003 1313 
Q 3003 1734 2745 1975 
Q 2488 2216 2034 2216 
z
M 1403 2484 
Q 997 2584 770 2862 
Q 544 3141 544 3541 
Q 544 4100 942 4425 
Q 1341 4750 2034 4750 
Q 2731 4750 3128 4425 
Q 3525 4100 3525 3541 
Q 3525 3141 3298 2862 
Q 3072 2584 2669 2484 
Q 3125 2378 3379 2068 
Q 3634 1759 3634 1313 
Q 3634 634 3220 271 
Q 2806 -91 2034 -91 
Q 1263 -91 848 271 
Q 434 634 434 1313 
Q 434 1759 690 2068 
Q 947 2378 1403 2484 
z
M 1172 3481 
Q 1172 3119 1398 2916 
Q 1625 2713 2034 2713 
Q 2441 2713 2670 2916 
Q 2900 3119 2900 3481 
Q 2900 3844 2670 4047 
Q 2441 4250 2034 4250 
Q 1625 4250 1398 4047 
Q 1172 3844 1172 3481 
z
" transform="scale(0.015625)"/>
      </defs>
      <use xlink:href="#DejaVuSans-57"/>
      <use xlink:href="#DejaVuSans-61" transform="translate(92.501953 0)"/>
      <use xlink:href="#DejaVuSans-73" transform="translate(153.78125 0)"/>
      <use xlink:href="#DejaVuSans-6d" transform="translate(205.880859 0)"/>
      <use xlink:href="#DejaVuSans-65" transform="translate(303.292969 0)"/>
      <use xlink:href="#DejaVuSans-72" transform="translate(364.816406 0)"/>
      <use xlink:href="#DejaVuSans-20" transform="translate(405.929688 0)"/>
      <use xlink:href="#DejaVuSans-4c" transform="translate(437.716797 0)"/>
      <use xlink:href="#DejaVuSans-4c" transform="translate(493.429688 0)"/>
      <use xlink:href="#DejaVuSans-56" transform="translate(538.142578 0)"/>
      <use xlink:href="#DejaVuSans-4d" transform="translate(606.550781 0)"/>
      <use xlink:href="#DejaVuSans-20" transform="translate(692.830078 0)"/>
      <use xlink:href="#DejaVuSans-28" transform="translate(724.617188 0)"/>
      <use xlink:href="#DejaVuSans-77" transform="translate(763.630859 0)"/>
      <use xlink:href="#DejaVuSans-2f" transform="translate(845.417969 0)"/>
      <use xlink:href="#DejaVuSans-20" transform="translate(879.109375 0)"/>
      <use xlink:href="#DejaVuSans-6e" transform="translate(910.896484 0)"/>
      <use xlink:href="#DejaVuSans-6f" transform="translate(974.275391 0)"/>
      <use xlink:href="#DejaVuSans-6e" transform="translate(1035.457031 0)"/>
      <use xlink:href="#DejaVuSans-2d" transform="translate(1098.835938 0)"/>
      <use xlink:href="#DejaVuSans-76" transform="translate(1132.294922 0)"/>
      <use xlink:href="#DejaVuSans-6f" transform="translate(1191.474609 0)"/>
      <use xlink:href="#DejaVuSans-6c" transform="translate(1252.65625 0)"/>
      <use xlink:href="#DejaVuSans-61" transform="translate(1280.439453 0)"/>
      <use xlink:href="#DejaVuSans-74" transform="translate(1341.71875 0)"/>
      <use xlink:href="#DejaVuSans-69" transform="translate(1380.927734 0)"/>
      <use xlink:href="#DejaVuSans-6c" transform="translate(1408.710938 0)"/>
      <use xlink:href="#DejaVuSans-65" transform="translate(1436.494141 0)"/>
      <use xlink:href="#DejaVuSans-20" transform="translate(1498.017578 0)"/>
      <use xlink:href="#DejaVuSans-2b" transform="translate(1529.804688 0)"/>
      <use xlink:href="#DejaVuSans-20" transform="translate(1613.59375 0)"/>
      <use xlink:href="#DejaVuSans-2d" transform="translate(1645.380859 0)"/>
      <use xlink:href="#DejaVuSans-4f" transform="translate(1684.214844 0)"/>
      <use xlink:href="#DejaVuSans-32" transform="translate(1762.925781 0)"/>
      <use xlink:href="#DejaVuSans-29" transform="translate(1826.548828 0)"/>
      <use xlink:href="#DejaVuSans-20" transform="translate(1865.5625 0)"/>
      <use xlink:href="#DejaVuSans-28" transform="translate(1897.349609 0)"/>
      <use xlink:href="#DejaVuSans-50" transform="translate(1936.363281 0)"/>
      <use xlink:href="#DejaVuSans-48" transform="translate(1996.666016 0)"/>
      <use xlink:href="#DejaVuSans-50" transform="translate(2071.861328 0)"/>
      <use xlink:href="#DejaVuSans-3a" transform="translate(2132.164062 0)"/>
      <use xlink:href="#DejaVuSans-20" transform="translate(2165.855469 0)"/>
      <use xlink:href="#DejaVuSans-31" transform="translate(2197.642578 0)"/>
      <use xlink:href="#DejaVuSans-32" transform="translate(2261.265625 0)"/>
      <use xlink:href="#DejaVuSans-32" transform="translate(2324.888672 0)"/>
      <use xlink:href="#DejaVuSans-2e" transform="translate(2388.511719 0)"/>
      <use xlink:href="#DejaVuSans-35" transform="translate(2420.298828 0)"/>
      <use xlink:href="#DejaVuSans-25" transform="translate(2483.921875 0)"/>
      <use xlink:href="#DejaVuSans-20" transform="translate(2578.941406 0)"/>
      <use xlink:href="#DejaVuSans-2f" transform="translate(2610.728516 0)"/>
      <use xlink:href="#DejaVuSans-20" transform="translate(2644.419922 0)"/>
      <use xlink:href="#DejaVuSans-50" transform="translate(2676.207031 0)"/>
      <use xlink:href="#DejaVuSans-79" transform="translate(2736.509766 0)"/>
      <use xlink:href="#DejaVuSans-74" transform="translate(2795.689453 0)"/>
      <use xlink:href="#DejaVuSans-68" transform="translate(2834.898438 0)"/>
      <use xlink:href="#DejaVuSans-6f" transform="translate(2898.277344 0)"/>
      <use xlink:href="#DejaVuSans-6e" transform="translate(2959.458984 0)"/>
      <use xlink:href="#DejaVuSans-3a" transform="translate(3022.837891 0)"/>
      <use xlink:href="#DejaVuSans-20" transform="translate(3056.529297 0)"/>
      <use xlink:href="#DejaVuSans-31" transform="translate(3088.316406 0)"/>
      <use xlink:href="#DejaVuSans-35" transform="translate(3151.939453 0)"/>
      <use xlink:href="#DejaVuSans-35" transform="translate(3215.5625 0)"/>
      <use xlink:href="#DejaVuSans-2e" transform="translate(3279.185547 0)"/>
      <use xlink:href="#DejaVuSans-38" transform="translate(3310.972656 0)"/>
      <use xlink:href="#DejaVuSans-25" transform="translate(3374.595703 0)"/>
      <use xlink:href="#DejaVuSans-29" transform="translate(3469.615234 0)"/>
     </g>
    </g>
    <g id="patch_27">
     <path d="M 135 159.109063 
L 155 159.109063 
L 155 152.109063 
L 135 152.109063 
z
" style="fill: #8c564b"/>
    </g>
    <g id="text_18">
     <!-- Wasmer LLVM (w/ non-volatile + embedded Globals and Tables) (PHP: 124.7% / Python: 154.0%) -->
     <g transform="translate(163 159.109063) scale(0.1 -0.1)">
      <defs>
       <path id="DejaVuSans-64" d="M 2906 2969 
L 2906 4863 
L 3481 4863 
L 3481 0 
L 2906 0 
L 2906 525 
Q 2725 213 2448 61 
Q 2172 -91 1784 -91 
Q 1150 -91 751 415 
Q 353 922 353 1747 
Q 353 2572 751 3078 
Q 1150 3584 1784 3584 
Q 2172 3584 2448 3432 
Q 2725 3281 2906 2969 
z
M 947 1747 
Q 947 1113 1208 752 
Q 1469 391 1925 391 
Q 2381 391 2643 752 
Q 2906 1113 2906 1747 
Q 2906 2381 2643 2742 
Q 2381 3103 1925 3103 
Q 1469 3103 1208 2742 
Q 947 2381 947 1747 
z
" transform="scale(0.015625)"/>
       <path id="DejaVuSans-47" d="M 3809 666 
L 3809 1919 
L 2778 1919 
L 2778 2438 
L 4434 2438 
L 4434 434 
Q 4069 175 3628 42 
Q 3188 -91 2688 -91 
Q 1594 -91 976 548 
Q 359 1188 359 2328 
Q 359 3472 976 4111 
Q 1594 4750 2688 4750 
Q 3144 4750 3555 4637 
Q 3966 4525 4313 4306 
L 4313 3634 
Q 3963 3931 3569 4081 
Q 3175 4231 2741 4231 
Q 1884 4231 1454 3753 
Q 1025 3275 1025 2328 
Q 1025 1384 1454 906 
Q 1884 428 2741 428 
Q 3075 428 3337 486 
Q 3600 544 3809 666 
z
" transform="scale(0.015625)"/>
       <path id="DejaVuSans-54" d="M -19 4666 
L 3928 4666 
L 3928 4134 
L 2272 4134 
L 2272 0 
L 1638 0 
L 1638 4134 
L -19 4134 
L -19 4666 
z
" transform="scale(0.015625)"/>
      </defs>
      <use xlink:href="#DejaVuSans-57"/>
      <use xlink:href="#DejaVuSans-61" transform="translate(92.501953 0)"/>
      <use xlink:href="#DejaVuSans-73" transform="translate(153.78125 0)"/>
      <use xlink:href="#DejaVuSans-6d" transform="translate(205.880859 0)"/>
      <use xlink:href="#DejaVuSans-65" transform="translate(303.292969 0)"/>
      <use xlink:href="#DejaVuSans-72" transform="translate(364.816406 0)"/>
      <use xlink:href="#DejaVuSans-20" transform="translate(405.929688 0)"/>
      <use xlink:href="#DejaVuSans-4c" transform="translate(437.716797 0)"/>
      <use xlink:href="#DejaVuSans-4c" transform="translate(493.429688 0)"/>
      <use xlink:href="#DejaVuSans-56" transform="translate(538.142578 0)"/>
      <use xlink:href="#DejaVuSans-4d" transform="translate(606.550781 0)"/>
      <use xlink:href="#DejaVuSans-20" transform="translate(692.830078 0)"/>
      <use xlink:href="#DejaVuSans-28" transform="translate(724.617188 0)"/>
      <use xlink:href="#DejaVuSans-77" transform="translate(763.630859 0)"/>
      <use xlink:href="#DejaVuSans-2f" transform="translate(845.417969 0)"/>
      <use xlink:href="#DejaVuSans-20" transform="translate(879.109375 0)"/>
      <use xlink:href="#DejaVuSans-6e" transform="translate(910.896484 0)"/>
      <use xlink:href="#DejaVuSans-6f" transform="translate(974.275391 0)"/>
      <use xlink:href="#DejaVuSans-6e" transform="translate(1035.457031 0)"/>
      <use xlink:href="#DejaVuSans-2d" transform="translate(1098.835938 0)"/>
      <use xlink:href="#DejaVuSans-76" transform="translate(1132.294922 0)"/>
      <use xlink:href="#DejaVuSans-6f" transform="translate(1191.474609 0)"/>
      <use xlink:href="#DejaVuSans-6c" transform="translate(1252.65625 0)"/>
      <use xlink:href="#DejaVuSans-61" transform="translate(1280.439453 0)"/>
      <use xlink:href="#DejaVuSans-74" transform="translate(1341.71875 0)"/>
      <use xlink:href="#DejaVuSans-69" transform="translate(1380.927734 0)"/>
      <use xlink:href="#DejaVuSans-6c" transform="translate(1408.710938 0)"/>
      <use xlink:href="#DejaVuSans-65" transform="translate(1436.494141 0)"/>
      <use xlink:href="#DejaVuSans-20" transform="translate(1498.017578 0)"/>
      <use xlink:href="#DejaVuSans-2b" transform="translate(1529.804688 0)"/>
      <use xlink:href="#DejaVuSans-20" transform="translate(1613.59375 0)"/>
      <use xlink:href="#DejaVuSans-65" transform="translate(1645.380859 0)"/>
      <use xlink:href="#DejaVuSans-6d" transform="translate(1706.904297 0)"/>
      <use xlink:href="#DejaVuSans-62" transform="translate(1804.316406 0)"/>
      <use xlink:href="#DejaVuSans-65" transform="translate(1867.792969 0)"/>
      <use xlink:href="#DejaVuSans-64" transform="translate(1929.316406 0)"/>
      <use xlink:href="#DejaVuSans-64" transform="translate(1992.792969 0)"/>
      <use xlink:href="#DejaVuSans-65" transform="translate(2056.269531 0)"/>
      <use xlink:href="#DejaVuSans-64" transform="translate(2117.792969 0)"/>
      <use xlink:href="#DejaVuSans-20" transform="translate(2181.269531 0)"/>
      <use xlink:href="#DejaVuSans-47" transform="translate(2213.056641 0)"/>
      <use xlink:href="#DejaVuSans-6c" transform="translate(2290.546875 0)"/>
      <use xlink:href="#DejaVuSans-6f" transform="translate(2318.330078 0)"/>
      <use xlink:href="#DejaVuSans-62" transform="translate(2379.511719 0)"/>
      <use xlink:href="#DejaVuSans-61" transform="translate(2442.988281 0)"/>
      <use xlink:href="#DejaVuSans-6c" transform="translate(2504.267578 0)"/>
      <use xlink:href="#DejaVuSans-73" transform="translate(2532.050781 0)"/>
      <use xlink:href="#DejaVuSans-20" transform="translate(2584.150391 0)"/>
      <use xlink:href="#DejaVuSans-61" transform="translate(2615.9375 0)"/>
      <use xlink:href="#DejaVuSans-6e" transform="translate(2677.216797 0)"/>
      <use xlink:href="#DejaVuSans-64" transform="translate(2740.595703 0)"/>
      <use xlink:href="#DejaVuSans-20" transform="translate(2804.072266 0)"/>
      <use xlink:href="#DejaVuSans-54" transform="translate(2835.859375 0)"/>
      <use xlink:href="#DejaVuSans-61" transform="translate(2880.443359 0)"/>
      <use xlink:href="#DejaVuSans-62" transform="translate(2941.722656 0)"/>
      <use xlink:href="#DejaVuSans-6c" transform="translate(3005.199219 0)"/>
      <use xlink:href="#DejaVuSans-65" transform="translate(3032.982422 0)"/>
      <use xlink:href="#DejaVuSans-73" transform="translate(3094.505859 0)"/>
      <use xlink:href="#DejaVuSans-29" transform="translate(3146.605469 0)"/>
      <use xlink:href="#DejaVuSans-20" transform="translate(3185.619141 0)"/>
      <use xlink:href="#DejaVuSans-28" transform="translate(3217.40625 0)"/>
      <use xlink:href="#DejaVuSans-50" transform="translate(3256.419922 0)"/>
      <use xlink:href="#DejaVuSans-48" transform="translate(3316.722656 0)"/>
      <use xlink:href="#DejaVuSans-50" transform="translate(3391.917969 0)"/>
      <use xlink:href="#DejaVuSans-3a" transform="translate(3452.220703 0)"/>
      <use xlink:href="#DejaVuSans-20" transform="translate(3485.912109 0)"/>
      <use xlink:href="#DejaVuSans-31" transform="translate(3517.699219 0)"/>
      <use xlink:href="#DejaVuSans-32" transform="translate(3581.322266 0)"/>
      <use xlink:href="#DejaVuSans-34" transform="translate(3644.945312 0)"/>
      <use xlink:href="#DejaVuSans-2e" transform="translate(3708.568359 0)"/>
      <use xlink:href="#DejaVuSans-37" transform="translate(3740.355469 0)"/>
      <use xlink:href="#DejaVuSans-25" transform="translate(3803.978516 0)"/>
      <use xlink:href="#DejaVuSans-20" transform="translate(3898.998047 0)"/>
      <use xlink:href="#DejaVuSans-2f" transform="translate(3930.785156 0)"/>
      <use xlink:href="#DejaVuSans-20" transform="translate(3964.476562 0)"/>
      <use xlink:href="#DejaVuSans-50" transform="translate(3996.263672 0)"/>
      <use xlink:href="#DejaVuSans-79" transform="translate(4056.566406 0)"/>
      <use xlink:href="#DejaVuSans-74" transform="translate(4115.746094 0)"/>
      <use xlink:href="#DejaVuSans-68" transform="translate(4154.955078 0)"/>
      <use xlink:href="#DejaVuSans-6f" transform="translate(4218.333984 0)"/>
      <use xlink:href="#DejaVuSans-6e" transform="translate(4279.515625 0)"/>
      <use xlink:href="#DejaVuSans-3a" transform="translate(4342.894531 0)"/>
      <use xlink:href="#DejaVuSans-20" transform="translate(4376.585938 0)"/>
      <use xlink:href="#DejaVuSans-31" transform="translate(4408.373047 0)"/>
      <use xlink:href="#DejaVuSans-35" transform="translate(4471.996094 0)"/>
      <use xlink:href="#DejaVuSans-34" transform="translate(4535.619141 0)"/>
      <use xlink:href="#DejaVuSans-2e" transform="translate(4599.242188 0)"/>
      <use xlink:href="#DejaVuSans-30" transform="translate(4631.029297 0)"/>
      <use xlink:href="#DejaVuSans-25" transform="translate(4694.652344 0)"/>
      <use xlink:href="#DejaVuSans-29" transform="translate(4789.671875 0)"/>
     </g>
    </g>
    <g id="patch_28">
     <path d="M 135 173.787188 
L 155 173.787188 
L 155 166.787188 
L 135 166.787188 
z
" style="fill: #e377c2"/>
    </g>
    <g id="text_19">
     <!-- Wasmer LLVM (w/ non-volatile + embedded Globals and Tables + O2) (PHP: 120.4% / Python: 143.9%) -->
     <g transform="translate(163 173.787188) scale(0.1 -0.1)">
      <use xlink:href="#DejaVuSans-57"/>
      <use xlink:href="#DejaVuSans-61" transform="translate(92.501953 0)"/>
      <use xlink:href="#DejaVuSans-73" transform="translate(153.78125 0)"/>
      <use xlink:href="#DejaVuSans-6d" transform="translate(205.880859 0)"/>
      <use xlink:href="#DejaVuSans-65" transform="translate(303.292969 0)"/>
      <use xlink:href="#DejaVuSans-72" transform="translate(364.816406 0)"/>
      <use xlink:href="#DejaVuSans-20" transform="translate(405.929688 0)"/>
      <use xlink:href="#DejaVuSans-4c" transform="translate(437.716797 0)"/>
      <use xlink:href="#DejaVuSans-4c" transform="translate(493.429688 0)"/>
      <use xlink:href="#DejaVuSans-56" transform="translate(538.142578 0)"/>
      <use xlink:href="#DejaVuSans-4d" transform="translate(606.550781 0)"/>
      <use xlink:href="#DejaVuSans-20" transform="translate(692.830078 0)"/>
      <use xlink:href="#DejaVuSans-28" transform="translate(724.617188 0)"/>
      <use xlink:href="#DejaVuSans-77" transform="translate(763.630859 0)"/>
      <use xlink:href="#DejaVuSans-2f" transform="translate(845.417969 0)"/>
      <use xlink:href="#DejaVuSans-20" transform="translate(879.109375 0)"/>
      <use xlink:href="#DejaVuSans-6e" transform="translate(910.896484 0)"/>
      <use xlink:href="#DejaVuSans-6f" transform="translate(974.275391 0)"/>
      <use xlink:href="#DejaVuSans-6e" transform="translate(1035.457031 0)"/>
      <use xlink:href="#DejaVuSans-2d" transform="translate(1098.835938 0)"/>
      <use xlink:href="#DejaVuSans-76" transform="translate(1132.294922 0)"/>
      <use xlink:href="#DejaVuSans-6f" transform="translate(1191.474609 0)"/>
      <use xlink:href="#DejaVuSans-6c" transform="translate(1252.65625 0)"/>
      <use xlink:href="#DejaVuSans-61" transform="translate(1280.439453 0)"/>
      <use xlink:href="#DejaVuSans-74" transform="translate(1341.71875 0)"/>
      <use xlink:href="#DejaVuSans-69" transform="translate(1380.927734 0)"/>
      <use xlink:href="#DejaVuSans-6c" transform="translate(1408.710938 0)"/>
      <use xlink:href="#DejaVuSans-65" transform="translate(1436.494141 0)"/>
      <use xlink:href="#DejaVuSans-20" transform="translate(1498.017578 0)"/>
      <use xlink:href="#DejaVuSans-2b" transform="translate(1529.804688 0)"/>
      <use xlink:href="#DejaVuSans-20" transform="translate(1613.59375 0)"/>
      <use xlink:href="#DejaVuSans-65" transform="translate(1645.380859 0)"/>
      <use xlink:href="#DejaVuSans-6d" transform="translate(1706.904297 0)"/>
      <use xlink:href="#DejaVuSans-62" transform="translate(1804.316406 0)"/>
      <use xlink:href="#DejaVuSans-65" transform="translate(1867.792969 0)"/>
      <use xlink:href="#DejaVuSans-64" transform="translate(1929.316406 0)"/>
      <use xlink:href="#DejaVuSans-64" transform="translate(1992.792969 0)"/>
      <use xlink:href="#DejaVuSans-65" transform="translate(2056.269531 0)"/>
      <use xlink:href="#DejaVuSans-64" transform="translate(2117.792969 0)"/>
      <use xlink:href="#DejaVuSans-20" transform="translate(2181.269531 0)"/>
      <use xlink:href="#DejaVuSans-47" transform="translate(2213.056641 0)"/>
      <use xlink:href="#DejaVuSans-6c" transform="translate(2290.546875 0)"/>
      <use xlink:href="#DejaVuSans-6f" transform="translate(2318.330078 0)"/>
      <use xlink:href="#DejaVuSans-62" transform="translate(2379.511719 0)"/>
      <use xlink:href="#DejaVuSans-61" transform="translate(2442.988281 0)"/>
      <use xlink:href="#DejaVuSans-6c" transform="translate(2504.267578 0)"/>
      <use xlink:href="#DejaVuSans-73" transform="translate(2532.050781 0)"/>
      <use xlink:href="#DejaVuSans-20" transform="translate(2584.150391 0)"/>
      <use xlink:href="#DejaVuSans-61" transform="translate(2615.9375 0)"/>
      <use xlink:href="#DejaVuSans-6e" transform="translate(2677.216797 0)"/>
      <use xlink:href="#DejaVuSans-64" transform="translate(2740.595703 0)"/>
      <use xlink:href="#DejaVuSans-20" transform="translate(2804.072266 0)"/>
      <use xlink:href="#DejaVuSans-54" transform="translate(2835.859375 0)"/>
      <use xlink:href="#DejaVuSans-61" transform="translate(2880.443359 0)"/>
      <use xlink:href="#DejaVuSans-62" transform="translate(2941.722656 0)"/>
      <use xlink:href="#DejaVuSans-6c" transform="translate(3005.199219 0)"/>
      <use xlink:href="#DejaVuSans-65" transform="translate(3032.982422 0)"/>
      <use xlink:href="#DejaVuSans-73" transform="translate(3094.505859 0)"/>
      <use xlink:href="#DejaVuSans-20" transform="translate(3146.605469 0)"/>
      <use xlink:href="#DejaVuSans-2b" transform="translate(3178.392578 0)"/>
      <use xlink:href="#DejaVuSans-20" transform="translate(3262.181641 0)"/>
      <use xlink:href="#DejaVuSans-4f" transform="translate(3293.96875 0)"/>
      <use xlink:href="#DejaVuSans-32" transform="translate(3372.679688 0)"/>
      <use xlink:href="#DejaVuSans-29" transform="translate(3436.302734 0)"/>
      <use xlink:href="#DejaVuSans-20" transform="translate(3475.316406 0)"/>
      <use xlink:href="#DejaVuSans-28" transform="translate(3507.103516 0)"/>
      <use xlink:href="#DejaVuSans-50" transform="translate(3546.117188 0)"/>
      <use xlink:href="#DejaVuSans-48" transform="translate(3606.419922 0)"/>
      <use xlink:href="#DejaVuSans-50" transform="translate(3681.615234 0)"/>
      <use xlink:href="#DejaVuSans-3a" transform="translate(3741.917969 0)"/>
      <use xlink:href="#DejaVuSans-20" transform="translate(3775.609375 0)"/>
      <use xlink:href="#DejaVuSans-31" transform="translate(3807.396484 0)"/>
      <use xlink:href="#DejaVuSans-32" transform="translate(3871.019531 0)"/>
      <use xlink:href="#DejaVuSans-30" transform="translate(3934.642578 0)"/>
      <use xlink:href="#DejaVuSans-2e" transform="translate(3998.265625 0)"/>
      <use xlink:href="#DejaVuSans-34" transform="translate(4030.052734 0)"/>
      <use xlink:href="#DejaVuSans-25" transform="translate(4093.675781 0)"/>
      <use xlink:href="#DejaVuSans-20" transform="translate(4188.695312 0)"/>
      <use xlink:href="#DejaVuSans-2f" transform="translate(4220.482422 0)"/>
      <use xlink:href="#DejaVuSans-20" transform="translate(4254.173828 0)"/>
      <use xlink:href="#DejaVuSans-50" transform="translate(4285.960938 0)"/>
      <use xlink:href="#DejaVuSans-79" transform="translate(4346.263672 0)"/>
      <use xlink:href="#DejaVuSans-74" transform="translate(4405.443359 0)"/>
      <use xlink:href="#DejaVuSans-68" transform="translate(4444.652344 0)"/>
      <use xlink:href="#DejaVuSans-6f" transform="translate(4508.03125 0)"/>
      <use xlink:href="#DejaVuSans-6e" transform="translate(4569.212891 0)"/>
      <use xlink:href="#DejaVuSans-3a" transform="translate(4632.591797 0)"/>
      <use xlink:href="#DejaVuSans-20" transform="translate(4666.283203 0)"/>
      <use xlink:href="#DejaVuSans-31" transform="translate(4698.070312 0)"/>
      <use xlink:href="#DejaVuSans-34" transform="translate(4761.693359 0)"/>
      <use xlink:href="#DejaVuSans-33" transform="translate(4825.316406 0)"/>
      <use xlink:href="#DejaVuSans-2e" transform="translate(4888.939453 0)"/>
      <use xlink:href="#DejaVuSans-39" transform="translate(4920.726562 0)"/>
      <use xlink:href="#DejaVuSans-25" transform="translate(4984.349609 0)"/>
      <use xlink:href="#DejaVuSans-29" transform="translate(5079.369141 0)"/>
     </g>
    </g>
   </g>
  </g>
 </g>
 <defs>
  <clipPath id="pea25fb0148">
   <rect x="126" y="69.12" width="781.2" height="443.52"/>
  </clipPath>
 </defs>
</svg>
