<?xml version="1.0" encoding="utf-8" standalone="no"?>
<!DOCTYPE svg PUBLIC "-//W3C//DTD SVG 1.1//EN"
  "http://www.w3.org/Graphics/SVG/1.1/DTD/svg11.dtd">
<svg xmlns:xlink="http://www.w3.org/1999/xlink" width="864pt" height="432pt" viewBox="0 0 864 432" xmlns="http://www.w3.org/2000/svg" version="1.1">
 <metadata>
  <rdf:RDF xmlns:dc="http://purl.org/dc/elements/1.1/" xmlns:cc="http://creativecommons.org/ns#" xmlns:rdf="http://www.w3.org/1999/02/22-rdf-syntax-ns#">
   <cc:Work>
    <dc:type rdf:resource="http://purl.org/dc/dcmitype/StillImage"/>
    <dc:date>2026-02-26T17:14:39.958786</dc:date>
    <dc:format>image/svg+xml</dc:format>
    <dc:creator>
     <cc:Agent>
      <dc:title>Matplotlib v3.10.8, https://matplotlib.org/</dc:title>
     </cc:Agent>
    </dc:creator>
   </cc:Work>
  </rdf:RDF>
 </metadata>
 <defs>
  <style type="text/css">*{stroke-linejoin: round; stroke-linecap: butt}</style>
 </defs>
 <g id="figure_1">
  <g id="patch_1">
   <path d="M 0 432 
L 864 432 
L 864 0 
L 0 0 
z
" style="fill: #ffffff"/>
  </g>
  <g id="axes_1">
   <g id="patch_2">
    <path d="M 51.05 328.914967 
L 853.2 328.914967 
L 853.2 25.44 
L 51.05 25.44 
z
" style="fill: #ffffff"/>
   </g>
   <g id="patch_3">
    <path d="M 87.511364 328.914967 
L 94.456385 328.914967 
L 94.456385 161.577557 
L 87.511364 161.577557 
z
" clip-path="url(#p85fc561b74)" style="fill: #1f77b4"/>
   </g>
   <g id="patch_4">
    <path d="M 130.917749 328.914967 
L 137.862771 328.914967 
L 137.862771 161.577557 
L 130.917749 161.577557 
z
" clip-path="url(#p85fc561b74)" style="fill: #1f77b4"/>
   </g>
   <g id="patch_5">
    <path d="M 174.324134 328.914967 
L 181.269156 328.914967 
L 181.269156 161.577557 
L 174.324134 161.577557 
z
" clip-path="url(#p85fc561b74)" style="fill: #1f77b4"/>
   </g>
   <g id="patch_6">
    <path d="M 217.730519 328.914967 
L 224.675541 328.914967 
L 224.675541 161.577557 
L 217.730519 161.577557 
z
" clip-path="url(#p85fc561b74)" style="fill: #1f77b4"/>
   </g>
   <g id="patch_7">
    <path d="M 261.136905 328.914967 
L 268.081926 328.914967 
L 268.081926 161.577557 
L 261.136905 161.577557 
z
" clip-path="url(#p85fc561b74)" style="fill: #1f77b4"/>
   </g>
   <g id="patch_8">
    <path d="M 304.54329 328.914967 
L 311.488312 328.914967 
L 311.488312 161.577557 
L 304.54329 161.577557 
z
" clip-path="url(#p85fc561b74)" style="fill: #1f77b4"/>
   </g>
   <g id="patch_9">
    <path d="M 347.949675 328.914967 
L 354.894697 328.914967 
L 354.894697 161.577557 
L 347.949675 161.577557 
z
" clip-path="url(#p85fc561b74)" style="fill: #1f77b4"/>
   </g>
   <g id="patch_10">
    <path d="M 391.356061 328.914967 
L 398.301082 328.914967 
L 398.301082 161.577557 
L 391.356061 161.577557 
z
" clip-path="url(#p85fc561b74)" style="fill: #1f77b4"/>
   </g>
   <g id="patch_11">
    <path d="M 434.762446 328.914967 
L 441.707468 328.914967 
L 441.707468 161.577557 
L 434.762446 161.577557 
z
" clip-path="url(#p85fc561b74)" style="fill: #1f77b4"/>
   </g>
   <g id="patch_12">
    <path d="M 478.168831 328.914967 
L 485.113853 328.914967 
L 485.113853 161.577557 
L 478.168831 161.577557 
z
" clip-path="url(#p85fc561b74)" style="fill: #1f77b4"/>
   </g>
   <g id="patch_13">
    <path d="M 521.575216 328.914967 
L 528.520238 328.914967 
L 528.520238 161.577557 
L 521.575216 161.577557 
z
" clip-path="url(#p85fc561b74)" style="fill: #1f77b4"/>
   </g>
   <g id="patch_14">
    <path d="M 564.981602 328.914967 
L 571.926623 328.914967 
L 571.926623 161.577557 
L 564.981602 161.577557 
z
" clip-path="url(#p85fc561b74)" style="fill: #1f77b4"/>
   </g>
   <g id="patch_15">
    <path d="M 608.387987 328.914967 
L 615.333009 328.914967 
L 615.333009 161.577557 
L 608.387987 161.577557 
z
" clip-path="url(#p85fc561b74)" style="fill: #1f77b4"/>
   </g>
   <g id="patch_16">
    <path d="M 651.794372 328.914967 
L 658.739394 328.914967 
L 658.739394 161.577557 
L 651.794372 161.577557 
z
" clip-path="url(#p85fc561b74)" style="fill: #1f77b4"/>
   </g>
   <g id="patch_17">
    <path d="M 695.200758 328.914967 
L 702.145779 328.914967 
L 702.145779 161.577557 
L 695.200758 161.577557 
z
" clip-path="url(#p85fc561b74)" style="fill: #1f77b4"/>
   </g>
   <g id="patch_18">
    <path d="M 738.607143 328.914967 
L 745.552165 328.914967 
L 745.552165 161.577557 
L 738.607143 161.577557 
z
" clip-path="url(#p85fc561b74)" style="fill: #1f77b4"/>
   </g>
   <g id="patch_19">
    <path d="M 782.013528 328.914967 
L 788.95855 328.914967 
L 788.95855 161.577557 
L 782.013528 161.577557 
z
" clip-path="url(#p85fc561b74)" style="fill: #1f77b4"/>
   </g>
   <g id="patch_20">
    <path d="M 94.456385 328.914967 
L 101.401407 328.914967 
L 101.401407 134.381849 
L 94.456385 134.381849 
z
" clip-path="url(#p85fc561b74)" style="fill: #ff7f0e"/>
   </g>
   <g id="patch_21">
    <path d="M 137.862771 328.914967 
L 144.807792 328.914967 
L 144.807792 142.656506 
L 137.862771 142.656506 
z
" clip-path="url(#p85fc561b74)" style="fill: #ff7f0e"/>
   </g>
   <g id="patch_22">
    <path d="M 181.269156 328.914967 
L 188.214177 328.914967 
L 188.214177 117.468902 
L 181.269156 117.468902 
z
" clip-path="url(#p85fc561b74)" style="fill: #ff7f0e"/>
   </g>
   <g id="patch_23">
    <path d="M 224.675541 328.914967 
L 231.620563 328.914967 
L 231.620563 178.444235 
L 224.675541 178.444235 
z
" clip-path="url(#p85fc561b74)" style="fill: #ff7f0e"/>
   </g>
   <g id="patch_24">
    <path d="M 268.081926 328.914967 
L 275.026948 328.914967 
L 275.026948 72.410054 
L 268.081926 72.410054 
z
" clip-path="url(#p85fc561b74)" style="fill: #ff7f0e"/>
   </g>
   <g id="patch_25">
    <path d="M 311.488312 328.914967 
L 318.433333 328.914967 
L 318.433333 52.653781 
L 311.488312 52.653781 
z
" clip-path="url(#p85fc561b74)" style="fill: #ff7f0e"/>
   </g>
   <g id="patch_26">
    <path d="M 354.894697 328.914967 
L 361.839719 328.914967 
L 361.839719 135.735045 
L 354.894697 135.735045 
z
" clip-path="url(#p85fc561b74)" style="fill: #ff7f0e"/>
   </g>
   <g id="patch_27">
    <path d="M 398.301082 328.914967 
L 405.246104 328.914967 
L 405.246104 117.82968 
L 398.301082 117.82968 
z
" clip-path="url(#p85fc561b74)" style="fill: #ff7f0e"/>
   </g>
   <g id="patch_28">
    <path d="M 441.707468 328.914967 
L 448.652489 328.914967 
L 448.652489 115.556861 
L 441.707468 115.556861 
z
" clip-path="url(#p85fc561b74)" style="fill: #ff7f0e"/>
   </g>
   <g id="patch_29">
    <path d="M 485.113853 328.914967 
L 492.058874 328.914967 
L 492.058874 98.308578 
L 485.113853 98.308578 
z
" clip-path="url(#p85fc561b74)" style="fill: #ff7f0e"/>
   </g>
   <g id="patch_30">
    <path d="M 528.520238 328.914967 
L 535.46526 328.914967 
L 535.46526 100.406806 
L 528.520238 100.406806 
z
" clip-path="url(#p85fc561b74)" style="fill: #ff7f0e"/>
   </g>
   <g id="patch_31">
    <path d="M 571.926623 328.914967 
L 578.871645 328.914967 
L 578.871645 126.01587 
L 571.926623 126.01587 
z
" clip-path="url(#p85fc561b74)" style="fill: #ff7f0e"/>
   </g>
   <g id="patch_32">
    <path d="M 615.333009 328.914967 
L 622.27803 328.914967 
L 622.27803 97.825022 
L 615.333009 97.825022 
z
" clip-path="url(#p85fc561b74)" style="fill: #ff7f0e"/>
   </g>
   <g id="patch_33">
    <path d="M 658.739394 328.914967 
L 665.684416 328.914967 
L 665.684416 160.269881 
L 658.739394 160.269881 
z
" clip-path="url(#p85fc561b74)" style="fill: #ff7f0e"/>
   </g>
   <g id="patch_34">
    <path d="M 702.145779 328.914967 
L 709.090801 328.914967 
L 709.090801 110.458667 
L 702.145779 110.458667 
z
" clip-path="url(#p85fc561b74)" style="fill: #ff7f0e"/>
   </g>
   <g id="patch_35">
    <path d="M 745.552165 328.914967 
L 752.497186 328.914967 
L 752.497186 39.891189 
L 745.552165 39.891189 
z
" clip-path="url(#p85fc561b74)" style="fill: #ff7f0e"/>
   </g>
   <g id="patch_36">
    <path d="M 788.95855 328.914967 
L 795.903571 328.914967 
L 795.903571 115.370539 
L 788.95855 115.370539 
z
" clip-path="url(#p85fc561b74)" style="fill: #ff7f0e"/>
   </g>
   <g id="patch_37">
    <path d="M 101.401407 328.914967 
L 108.346429 328.914967 
L 108.346429 141.817932 
L 101.401407 141.817932 
z
" clip-path="url(#p85fc561b74)" style="fill: #2ca02c"/>
   </g>
   <g id="patch_38">
    <path d="M 144.807792 328.914967 
L 151.752814 328.914967 
L 151.752814 154.543585 
L 144.807792 154.543585 
z
" clip-path="url(#p85fc561b74)" style="fill: #2ca02c"/>
   </g>
   <g id="patch_39">
    <path d="M 188.214177 328.914967 
L 195.159199 328.914967 
L 195.159199 136.794725 
L 188.214177 136.794725 
z
" clip-path="url(#p85fc561b74)" style="fill: #2ca02c"/>
   </g>
   <g id="patch_40">
    <path d="M 231.620563 328.914967 
L 238.565584 328.914967 
L 238.565584 177.984221 
L 231.620563 177.984221 
z
" clip-path="url(#p85fc561b74)" style="fill: #2ca02c"/>
   </g>
   <g id="patch_41">
    <path d="M 275.026948 328.914967 
L 281.97197 328.914967 
L 281.97197 67.963046 
L 275.026948 67.963046 
z
" clip-path="url(#p85fc561b74)" style="fill: #2ca02c"/>
   </g>
   <g id="patch_42">
    <path d="M 318.433333 328.914967 
L 325.378355 328.914967 
L 325.378355 48.781037 
L 318.433333 48.781037 
z
" clip-path="url(#p85fc561b74)" style="fill: #2ca02c"/>
   </g>
   <g id="patch_43">
    <path d="M 361.839719 328.914967 
L 368.78474 328.914967 
L 368.78474 119.274143 
L 361.839719 119.274143 
z
" clip-path="url(#p85fc561b74)" style="fill: #2ca02c"/>
   </g>
   <g id="patch_44">
    <path d="M 405.246104 328.914967 
L 412.191126 328.914967 
L 412.191126 183.015736 
L 405.246104 183.015736 
z
" clip-path="url(#p85fc561b74)" style="fill: #2ca02c"/>
   </g>
   <g id="patch_45">
    <path d="M 448.652489 328.914967 
L 455.597511 328.914967 
L 455.597511 111.090198 
L 448.652489 111.090198 
z
" clip-path="url(#p85fc561b74)" style="fill: #2ca02c"/>
   </g>
   <g id="patch_46">
    <path d="M 492.058874 328.914967 
L 499.003896 328.914967 
L 499.003896 81.71744 
L 492.058874 81.71744 
z
" clip-path="url(#p85fc561b74)" style="fill: #2ca02c"/>
   </g>
   <g id="patch_47">
    <path d="M 535.46526 328.914967 
L 542.410281 328.914967 
L 542.410281 99.070937 
L 535.46526 99.070937 
z
" clip-path="url(#p85fc561b74)" style="fill: #2ca02c"/>
   </g>
   <g id="patch_48">
    <path d="M 578.871645 328.914967 
L 585.816667 328.914967 
L 585.816667 130.272362 
L 578.871645 130.272362 
z
" clip-path="url(#p85fc561b74)" style="fill: #2ca02c"/>
   </g>
   <g id="patch_49">
    <path d="M 622.27803 328.914967 
L 629.223052 328.914967 
L 629.223052 115.1048 
L 622.27803 115.1048 
z
" clip-path="url(#p85fc561b74)" style="fill: #2ca02c"/>
   </g>
   <g id="patch_50">
    <path d="M 665.684416 328.914967 
L 672.629437 328.914967 
L 672.629437 167.787997 
L 665.684416 167.787997 
z
" clip-path="url(#p85fc561b74)" style="fill: #2ca02c"/>
   </g>
   <g id="patch_51">
    <path d="M 709.090801 328.914967 
L 716.035823 328.914967 
L 716.035823 114.128574 
L 709.090801 114.128574 
z
" clip-path="url(#p85fc561b74)" style="fill: #2ca02c"/>
   </g>
   <g id="patch_52">
    <path d="M 752.497186 328.914967 
L 759.442208 328.914967 
L 759.442208 71.310606 
L 752.497186 71.310606 
z
" clip-path="url(#p85fc561b74)" style="fill: #2ca02c"/>
   </g>
   <g id="patch_53">
    <path d="M 795.903571 328.914967 
L 802.848593 328.914967 
L 802.848593 123.675867 
L 795.903571 123.675867 
z
" clip-path="url(#p85fc561b74)" style="fill: #2ca02c"/>
   </g>
   <g id="patch_54">
    <path d="M 108.346429 328.914967 
L 115.29145 328.914967 
L 115.29145 131.782107 
L 108.346429 131.782107 
z
" clip-path="url(#p85fc561b74)" style="fill: #d62728"/>
   </g>
   <g id="patch_55">
    <path d="M 151.752814 328.914967 
L 158.697835 328.914967 
L 158.697835 141.842865 
L 151.752814 141.842865 
z
" clip-path="url(#p85fc561b74)" style="fill: #d62728"/>
   </g>
   <g id="patch_56">
    <path d="M 195.159199 328.914967 
L 202.104221 328.914967 
L 202.104221 122.310756 
L 195.159199 122.310756 
z
" clip-path="url(#p85fc561b74)" style="fill: #d62728"/>
   </g>
   <g id="patch_57">
    <path d="M 238.565584 328.914967 
L 245.510606 328.914967 
L 245.510606 179.122344 
L 238.565584 179.122344 
z
" clip-path="url(#p85fc561b74)" style="fill: #d62728"/>
   </g>
   <g id="patch_58">
    <path d="M 281.97197 328.914967 
L 288.916991 328.914967 
L 288.916991 66.527611 
L 281.97197 66.527611 
z
" clip-path="url(#p85fc561b74)" style="fill: #d62728"/>
   </g>
   <g id="patch_59">
    <path d="M 325.378355 328.914967 
L 332.323377 328.914967 
L 332.323377 48.809042 
L 325.378355 48.809042 
z
" clip-path="url(#p85fc561b74)" style="fill: #d62728"/>
   </g>
   <g id="patch_60">
    <path d="M 368.78474 328.914967 
L 375.729762 328.914967 
L 375.729762 129.39221 
L 368.78474 129.39221 
z
" clip-path="url(#p85fc561b74)" style="fill: #d62728"/>
   </g>
   <g id="patch_61">
    <path d="M 412.191126 328.914967 
L 419.136147 328.914967 
L 419.136147 111.397497 
L 412.191126 111.397497 
z
" clip-path="url(#p85fc561b74)" style="fill: #d62728"/>
   </g>
   <g id="patch_62">
    <path d="M 455.597511 328.914967 
L 462.542532 328.914967 
L 462.542532 108.554154 
L 455.597511 108.554154 
z
" clip-path="url(#p85fc561b74)" style="fill: #d62728"/>
   </g>
   <g id="patch_63">
    <path d="M 499.003896 328.914967 
L 505.948918 328.914967 
L 505.948918 102.386388 
L 499.003896 102.386388 
z
" clip-path="url(#p85fc561b74)" style="fill: #d62728"/>
   </g>
   <g id="patch_64">
    <path d="M 542.410281 328.914967 
L 549.355303 328.914967 
L 549.355303 102.083492 
L 542.410281 102.083492 
z
" clip-path="url(#p85fc561b74)" style="fill: #d62728"/>
   </g>
   <g id="patch_65">
    <path d="M 585.816667 328.914967 
L 592.761688 328.914967 
L 592.761688 127.629109 
L 585.816667 127.629109 
z
" clip-path="url(#p85fc561b74)" style="fill: #d62728"/>
   </g>
   <g id="patch_66">
    <path d="M 629.223052 328.914967 
L 636.168074 328.914967 
L 636.168074 96.555258 
L 629.223052 96.555258 
z
" clip-path="url(#p85fc561b74)" style="fill: #d62728"/>
   </g>
   <g id="patch_67">
    <path d="M 672.629437 328.914967 
L 679.574459 328.914967 
L 679.574459 113.623653 
L 672.629437 113.623653 
z
" clip-path="url(#p85fc561b74)" style="fill: #d62728"/>
   </g>
   <g id="patch_68">
    <path d="M 716.035823 328.914967 
L 722.980844 328.914967 
L 722.980844 87.986514 
L 716.035823 87.986514 
z
" clip-path="url(#p85fc561b74)" style="fill: #d62728"/>
   </g>
   <g id="patch_69">
    <path d="M 759.442208 328.914967 
L 766.387229 328.914967 
L 766.387229 86.922393 
L 759.442208 86.922393 
z
" clip-path="url(#p85fc561b74)" style="fill: #d62728"/>
   </g>
   <g id="patch_70">
    <path d="M 802.848593 328.914967 
L 809.793615 328.914967 
L 809.793615 111.901067 
L 802.848593 111.901067 
z
" clip-path="url(#p85fc561b74)" style="fill: #d62728"/>
   </g>
   <g id="patch_71">
    <path d="M 115.29145 328.914967 
L 122.236472 328.914967 
L 122.236472 138.938495 
L 115.29145 138.938495 
z
" clip-path="url(#p85fc561b74)" style="fill: #9467bd"/>
   </g>
   <g id="patch_72">
    <path d="M 158.697835 328.914967 
L 165.642857 328.914967 
L 165.642857 154.372595 
L 158.697835 154.372595 
z
" clip-path="url(#p85fc561b74)" style="fill: #9467bd"/>
   </g>
   <g id="patch_73">
    <path d="M 202.104221 328.914967 
L 209.049242 328.914967 
L 209.049242 111.312617 
L 202.104221 111.312617 
z
" clip-path="url(#p85fc561b74)" style="fill: #9467bd"/>
   </g>
   <g id="patch_74">
    <path d="M 245.510606 328.914967 
L 252.455628 328.914967 
L 252.455628 139.182283 
L 245.510606 139.182283 
z
" clip-path="url(#p85fc561b74)" style="fill: #9467bd"/>
   </g>
   <g id="patch_75">
    <path d="M 288.916991 328.914967 
L 295.862013 328.914967 
L 295.862013 70.055411 
L 288.916991 70.055411 
z
" clip-path="url(#p85fc561b74)" style="fill: #9467bd"/>
   </g>
   <g id="patch_76">
    <path d="M 332.323377 328.914967 
L 339.268398 328.914967 
L 339.268398 51.347237 
L 332.323377 51.347237 
z
" clip-path="url(#p85fc561b74)" style="fill: #9467bd"/>
   </g>
   <g id="patch_77">
    <path d="M 375.729762 328.914967 
L 382.674784 328.914967 
L 382.674784 129.254597 
L 375.729762 129.254597 
z
" clip-path="url(#p85fc561b74)" style="fill: #9467bd"/>
   </g>
   <g id="patch_78">
    <path d="M 419.136147 328.914967 
L 426.081169 328.914967 
L 426.081169 181.598112 
L 419.136147 181.598112 
z
" clip-path="url(#p85fc561b74)" style="fill: #9467bd"/>
   </g>
   <g id="patch_79">
    <path d="M 462.542532 328.914967 
L 469.487554 328.914967 
L 469.487554 110.94921 
L 462.542532 110.94921 
z
" clip-path="url(#p85fc561b74)" style="fill: #9467bd"/>
   </g>
   <g id="patch_80">
    <path d="M 505.948918 328.914967 
L 512.893939 328.914967 
L 512.893939 94.325342 
L 505.948918 94.325342 
z
" clip-path="url(#p85fc561b74)" style="fill: #9467bd"/>
   </g>
   <g id="patch_81">
    <path d="M 549.355303 328.914967 
L 556.300325 328.914967 
L 556.300325 101.973664 
L 549.355303 101.973664 
z
" clip-path="url(#p85fc561b74)" style="fill: #9467bd"/>
   </g>
   <g id="patch_82">
    <path d="M 592.761688 328.914967 
L 599.70671 328.914967 
L 599.70671 129.41136 
L 592.761688 129.41136 
z
" clip-path="url(#p85fc561b74)" style="fill: #9467bd"/>
   </g>
   <g id="patch_83">
    <path d="M 636.168074 328.914967 
L 643.113095 328.914967 
L 643.113095 115.288055 
L 636.168074 115.288055 
z
" clip-path="url(#p85fc561b74)" style="fill: #9467bd"/>
   </g>
   <g id="patch_84">
    <path d="M 679.574459 328.914967 
L 686.519481 328.914967 
L 686.519481 126.311051 
L 679.574459 126.311051 
z
" clip-path="url(#p85fc561b74)" style="fill: #9467bd"/>
   </g>
   <g id="patch_85">
    <path d="M 722.980844 328.914967 
L 729.925866 328.914967 
L 729.925866 75.794128 
L 722.980844 75.794128 
z
" clip-path="url(#p85fc561b74)" style="fill: #9467bd"/>
   </g>
   <g id="patch_86">
    <path d="M 766.387229 328.914967 
L 773.332251 328.914967 
L 773.332251 110.682759 
L 766.387229 110.682759 
z
" clip-path="url(#p85fc561b74)" style="fill: #9467bd"/>
   </g>
   <g id="patch_87">
    <path d="M 809.793615 328.914967 
L 816.738636 328.914967 
L 816.738636 117.429276 
L 809.793615 117.429276 
z
" clip-path="url(#p85fc561b74)" style="fill: #9467bd"/>
   </g>
   <g id="matplotlib.axis_1">
    <g id="xtick_1">
     <g id="line2d_1">
      <defs>
       <path id="m90d0e2594a" d="M 0 0 
L 0 3.5 
" style="stroke: #000000; stroke-width: 0.8"/>
      </defs>
      <g>
       <use xlink:href="#m90d0e2594a" x="104.873918" y="328.914967" style="stroke: #000000; stroke-width: 0.8"/>
      </g>
     </g>
     <g id="text_1">
      <!-- brotli-compress -->
      <g transform="translate(48.530766 396.160465) rotate(-45) scale(0.1 -0.1)">
       <defs>
        <path id="DejaVuSans-62" d="M 3116 1747 
Q 3116 2381 2855 2742 
Q 2594 3103 2138 3103 
Q 1681 3103 1420 2742 
Q 1159 2381 1159 1747 
Q 1159 1113 1420 752 
Q 1681 391 2138 391 
Q 2594 391 2855 752 
Q 3116 1113 3116 1747 
z
M 1159 2969 
Q 1341 3281 1617 3432 
Q 1894 3584 2278 3584 
Q 2916 3584 3314 3078 
Q 3713 2572 3713 1747 
Q 3713 922 3314 415 
Q 2916 -91 2278 -91 
Q 1894 -91 1617 61 
Q 1341 213 1159 525 
L 1159 0 
L 581 0 
L 581 4863 
L 1159 4863 
L 1159 2969 
z
" transform="scale(0.015625)"/>
        <path id="DejaVuSans-72" d="M 2631 2963 
Q 2534 3019 2420 3045 
Q 2306 3072 2169 3072 
Q 1681 3072 1420 2755 
Q 1159 2438 1159 1844 
L 1159 0 
L 581 0 
L 581 3500 
L 1159 3500 
L 1159 2956 
Q 1341 3275 1631 3429 
Q 1922 3584 2338 3584 
Q 2397 3584 2469 3576 
Q 2541 3569 2628 3553 
L 2631 2963 
z
" transform="scale(0.015625)"/>
        <path id="DejaVuSans-6f" d="M 1959 3097 
Q 1497 3097 1228 2736 
Q 959 2375 959 1747 
Q 959 1119 1226 758 
Q 1494 397 1959 397 
Q 2419 397 2687 759 
Q 2956 1122 2956 1747 
Q 2956 2369 2687 2733 
Q 2419 3097 1959 3097 
z
M 1959 3584 
Q 2709 3584 3137 3096 
Q 3566 2609 3566 1747 
Q 3566 888 3137 398 
Q 2709 -91 1959 -91 
Q 1206 -91 779 398 
Q 353 888 353 1747 
Q 353 2609 779 3096 
Q 1206 3584 1959 3584 
z
" transform="scale(0.015625)"/>
        <path id="DejaVuSans-74" d="M 1172 4494 
L 1172 3500 
L 2356 3500 
L 2356 3053 
L 1172 3053 
L 1172 1153 
Q 1172 725 1289 603 
Q 1406 481 1766 481 
L 2356 481 
L 2356 0 
L 1766 0 
Q 1100 0 847 248 
Q 594 497 594 1153 
L 594 3053 
L 172 3053 
L 172 3500 
L 594 3500 
L 594 4494 
L 1172 4494 
z
" transform="scale(0.015625)"/>
        <path id="DejaVuSans-6c" d="M 603 4863 
L 1178 4863 
L 1178 0 
L 603 0 
L 603 4863 
z
" transform="scale(0.015625)"/>
        <path id="DejaVuSans-69" d="M 603 3500 
L 1178 3500 
L 1178 0 
L 603 0 
L 603 3500 
z
M 603 4863 
L 1178 4863 
L 1178 4134 
L 603 4134 
L 603 4863 
z
" transform="scale(0.015625)"/>
        <path id="DejaVuSans-2d" d="M 313 2009 
L 1997 2009 
L 1997 1497 
L 313 1497 
L 313 2009 
z
" transform="scale(0.015625)"/>
        <path id="DejaVuSans-63" d="M 3122 3366 
L 3122 2828 
Q 2878 2963 2633 3030 
Q 2388 3097 2138 3097 
Q 1578 3097 1268 2742 
Q 959 2388 959 1747 
Q 959 1106 1268 751 
Q 1578 397 2138 397 
Q 2388 397 2633 464 
Q 2878 531 3122 666 
L 3122 134 
Q 2881 22 2623 -34 
Q 2366 -91 2075 -91 
Q 1284 -91 818 406 
Q 353 903 353 1747 
Q 353 2603 823 3093 
Q 1294 3584 2113 3584 
Q 2378 3584 2631 3529 
Q 2884 3475 3122 3366 
z
" transform="scale(0.015625)"/>
        <path id="DejaVuSans-6d" d="M 3328 2828 
Q 3544 3216 3844 3400 
Q 4144 3584 4550 3584 
Q 5097 3584 5394 3201 
Q 5691 2819 5691 2113 
L 5691 0 
L 5113 0 
L 5113 2094 
Q 5113 2597 4934 2840 
Q 4756 3084 4391 3084 
Q 3944 3084 3684 2787 
Q 3425 2491 3425 1978 
L 3425 0 
L 2847 0 
L 2847 2094 
Q 2847 2600 2669 2842 
Q 2491 3084 2119 3084 
Q 1678 3084 1418 2786 
Q 1159 2488 1159 1978 
L 1159 0 
L 581 0 
L 581 3500 
L 1159 3500 
L 1159 2956 
Q 1356 3278 1631 3431 
Q 1906 3584 2284 3584 
Q 2666 3584 2933 3390 
Q 3200 3197 3328 2828 
z
" transform="scale(0.015625)"/>
        <path id="DejaVuSans-70" d="M 1159 525 
L 1159 -1331 
L 581 -1331 
L 581 3500 
L 1159 3500 
L 1159 2969 
Q 1341 3281 1617 3432 
Q 1894 3584 2278 3584 
Q 2916 3584 3314 3078 
Q 3713 2572 3713 1747 
Q 3713 922 3314 415 
Q 2916 -91 2278 -91 
Q 1894 -91 1617 61 
Q 1341 213 1159 525 
z
M 3116 1747 
Q 3116 2381 2855 2742 
Q 2594 3103 2138 3103 
Q 1681 3103 1420 2742 
Q 1159 2381 1159 1747 
Q 1159 1113 1420 752 
Q 1681 391 2138 391 
Q 2594 391 2855 752 
Q 3116 1113 3116 1747 
z
" transform="scale(0.015625)"/>
        <path id="DejaVuSans-65" d="M 3597 1894 
L 3597 1613 
L 953 1613 
Q 991 1019 1311 708 
Q 1631 397 2203 397 
Q 2534 397 2845 478 
Q 3156 559 3463 722 
L 3463 178 
Q 3153 47 2828 -22 
Q 2503 -91 2169 -91 
Q 1331 -91 842 396 
Q 353 884 353 1716 
Q 353 2575 817 3079 
Q 1281 3584 2069 3584 
Q 2775 3584 3186 3129 
Q 3597 2675 3597 1894 
z
M 3022 2063 
Q 3016 2534 2758 2815 
Q 2500 3097 2075 3097 
Q 1594 3097 1305 2825 
Q 1016 2553 972 2059 
L 3022 2063 
z
" transform="scale(0.015625)"/>
        <path id="DejaVuSans-73" d="M 2834 3397 
L 2834 2853 
Q 2591 2978 2328 3040 
Q 2066 3103 1784 3103 
Q 1356 3103 1142 2972 
Q 928 2841 928 2578 
Q 928 2378 1081 2264 
Q 1234 2150 1697 2047 
L 1894 2003 
Q 2506 1872 2764 1633 
Q 3022 1394 3022 966 
Q 3022 478 2636 193 
Q 2250 -91 1575 -91 
Q 1294 -91 989 -36 
Q 684 19 347 128 
L 347 722 
Q 666 556 975 473 
Q 1284 391 1588 391 
Q 1994 391 2212 530 
Q 2431 669 2431 922 
Q 2431 1156 2273 1281 
Q 2116 1406 1581 1522 
L 1381 1569 
Q 847 1681 609 1914 
Q 372 2147 372 2553 
Q 372 3047 722 3315 
Q 1072 3584 1716 3584 
Q 2034 3584 2315 3537 
Q 2597 3491 2834 3397 
z
" transform="scale(0.015625)"/>
       </defs>
       <use xlink:href="#DejaVuSans-62"/>
       <use xlink:href="#DejaVuSans-72" transform="translate(63.476562 0)"/>
       <use xlink:href="#DejaVuSans-6f" transform="translate(102.339844 0)"/>
       <use xlink:href="#DejaVuSans-74" transform="translate(163.521484 0)"/>
       <use xlink:href="#DejaVuSans-6c" transform="translate(202.730469 0)"/>
       <use xlink:href="#DejaVuSans-69" transform="translate(230.513672 0)"/>
       <use xlink:href="#DejaVuSans-2d" transform="translate(258.296875 0)"/>
       <use xlink:href="#DejaVuSans-63" transform="translate(294.380859 0)"/>
       <use xlink:href="#DejaVuSans-6f" transform="translate(349.361328 0)"/>
       <use xlink:href="#DejaVuSans-6d" transform="translate(410.542969 0)"/>
       <use xlink:href="#DejaVuSans-70" transform="translate(507.955078 0)"/>
       <use xlink:href="#DejaVuSans-72" transform="translate(571.431641 0)"/>
       <use xlink:href="#DejaVuSans-65" transform="translate(610.294922 0)"/>
       <use xlink:href="#DejaVuSans-73" transform="translate(671.818359 0)"/>
       <use xlink:href="#DejaVuSans-73" transform="translate(723.917969 0)"/>
      </g>
     </g>
    </g>
    <g id="xtick_2">
     <g id="line2d_2">
      <g>
       <use xlink:href="#m90d0e2594a" x="148.280303" y="328.914967" style="stroke: #000000; stroke-width: 0.8"/>
      </g>
     </g>
     <g id="text_2">
      <!-- brotli-decompress -->
      <g transform="translate(83.097211 405.000405) rotate(-45) scale(0.1 -0.1)">
       <defs>
        <path id="DejaVuSans-64" d="M 2906 2969 
L 2906 4863 
L 3481 4863 
L 3481 0 
L 2906 0 
L 2906 525 
Q 2725 213 2448 61 
Q 2172 -91 1784 -91 
Q 1150 -91 751 415 
Q 353 922 353 1747 
Q 353 2572 751 3078 
Q 1150 3584 1784 3584 
Q 2172 3584 2448 3432 
Q 2725 3281 2906 2969 
z
M 947 1747 
Q 947 1113 1208 752 
Q 1469 391 1925 391 
Q 2381 391 2643 752 
Q 2906 1113 2906 1747 
Q 2906 2381 2643 2742 
Q 2381 3103 1925 3103 
Q 1469 3103 1208 2742 
Q 947 2381 947 1747 
z
" transform="scale(0.015625)"/>
       </defs>
       <use xlink:href="#DejaVuSans-62"/>
       <use xlink:href="#DejaVuSans-72" transform="translate(63.476562 0)"/>
       <use xlink:href="#DejaVuSans-6f" transform="translate(102.339844 0)"/>
       <use xlink:href="#DejaVuSans-74" transform="translate(163.521484 0)"/>
       <use xlink:href="#DejaVuSans-6c" transform="translate(202.730469 0)"/>
       <use xlink:href="#DejaVuSans-69" transform="translate(230.513672 0)"/>
       <use xlink:href="#DejaVuSans-2d" transform="translate(258.296875 0)"/>
       <use xlink:href="#DejaVuSans-64" transform="translate(294.380859 0)"/>
       <use xlink:href="#DejaVuSans-65" transform="translate(357.857422 0)"/>
       <use xlink:href="#DejaVuSans-63" transform="translate(419.380859 0)"/>
       <use xlink:href="#DejaVuSans-6f" transform="translate(474.361328 0)"/>
       <use xlink:href="#DejaVuSans-6d" transform="translate(535.542969 0)"/>
       <use xlink:href="#DejaVuSans-70" transform="translate(632.955078 0)"/>
       <use xlink:href="#DejaVuSans-72" transform="translate(696.431641 0)"/>
       <use xlink:href="#DejaVuSans-65" transform="translate(735.294922 0)"/>
       <use xlink:href="#DejaVuSans-73" transform="translate(796.818359 0)"/>
       <use xlink:href="#DejaVuSans-73" transform="translate(848.917969 0)"/>
      </g>
     </g>
    </g>
    <g id="xtick_3">
     <g id="line2d_3">
      <g>
       <use xlink:href="#m90d0e2594a" x="191.686688" y="328.914967" style="stroke: #000000; stroke-width: 0.8"/>
      </g>
     </g>
     <g id="text_3">
      <!-- bufreader_snappy -->
      <g transform="translate(126.184294 405.123043) rotate(-45) scale(0.1 -0.1)">
       <defs>
        <path id="DejaVuSans-75" d="M 544 1381 
L 544 3500 
L 1119 3500 
L 1119 1403 
Q 1119 906 1312 657 
Q 1506 409 1894 409 
Q 2359 409 2629 706 
Q 2900 1003 2900 1516 
L 2900 3500 
L 3475 3500 
L 3475 0 
L 2900 0 
L 2900 538 
Q 2691 219 2414 64 
Q 2138 -91 1772 -91 
Q 1169 -91 856 284 
Q 544 659 544 1381 
z
M 1991 3584 
L 1991 3584 
z
" transform="scale(0.015625)"/>
        <path id="DejaVuSans-66" d="M 2375 4863 
L 2375 4384 
L 1825 4384 
Q 1516 4384 1395 4259 
Q 1275 4134 1275 3809 
L 1275 3500 
L 2222 3500 
L 2222 3053 
L 1275 3053 
L 1275 0 
L 697 0 
L 697 3053 
L 147 3053 
L 147 3500 
L 697 3500 
L 697 3744 
Q 697 4328 969 4595 
Q 1241 4863 1831 4863 
L 2375 4863 
z
" transform="scale(0.015625)"/>
        <path id="DejaVuSans-61" d="M 2194 1759 
Q 1497 1759 1228 1600 
Q 959 1441 959 1056 
Q 959 750 1161 570 
Q 1363 391 1709 391 
Q 2188 391 2477 730 
Q 2766 1069 2766 1631 
L 2766 1759 
L 2194 1759 
z
M 3341 1997 
L 3341 0 
L 2766 0 
L 2766 531 
Q 2569 213 2275 61 
Q 1981 -91 1556 -91 
Q 1019 -91 701 211 
Q 384 513 384 1019 
Q 384 1609 779 1909 
Q 1175 2209 1959 2209 
L 2766 2209 
L 2766 2266 
Q 2766 2663 2505 2880 
Q 2244 3097 1772 3097 
Q 1472 3097 1187 3025 
Q 903 2953 641 2809 
L 641 3341 
Q 956 3463 1253 3523 
Q 1550 3584 1831 3584 
Q 2591 3584 2966 3190 
Q 3341 2797 3341 1997 
z
" transform="scale(0.015625)"/>
        <path id="DejaVuSans-5f" d="M 3263 -1063 
L 3263 -1509 
L -63 -1509 
L -63 -1063 
L 3263 -1063 
z
" transform="scale(0.015625)"/>
        <path id="DejaVuSans-6e" d="M 3513 2113 
L 3513 0 
L 2938 0 
L 2938 2094 
Q 2938 2591 2744 2837 
Q 2550 3084 2163 3084 
Q 1697 3084 1428 2787 
Q 1159 2491 1159 1978 
L 1159 0 
L 581 0 
L 581 3500 
L 1159 3500 
L 1159 2956 
Q 1366 3272 1645 3428 
Q 1925 3584 2291 3584 
Q 2894 3584 3203 3211 
Q 3513 2838 3513 2113 
z
" transform="scale(0.015625)"/>
        <path id="DejaVuSans-79" d="M 2059 -325 
Q 1816 -950 1584 -1140 
Q 1353 -1331 966 -1331 
L 506 -1331 
L 506 -850 
L 844 -850 
Q 1081 -850 1212 -737 
Q 1344 -625 1503 -206 
L 1606 56 
L 191 3500 
L 800 3500 
L 1894 763 
L 2988 3500 
L 3597 3500 
L 2059 -325 
z
" transform="scale(0.015625)"/>
       </defs>
       <use xlink:href="#DejaVuSans-62"/>
       <use xlink:href="#DejaVuSans-75" transform="translate(63.476562 0)"/>
       <use xlink:href="#DejaVuSans-66" transform="translate(126.855469 0)"/>
       <use xlink:href="#DejaVuSans-72" transform="translate(162.060547 0)"/>
       <use xlink:href="#DejaVuSans-65" transform="translate(200.923828 0)"/>
       <use xlink:href="#DejaVuSans-61" transform="translate(262.447266 0)"/>
       <use xlink:href="#DejaVuSans-64" transform="translate(323.726562 0)"/>
       <use xlink:href="#DejaVuSans-65" transform="translate(387.203125 0)"/>
       <use xlink:href="#DejaVuSans-72" transform="translate(448.726562 0)"/>
       <use xlink:href="#DejaVuSans-5f" transform="translate(489.839844 0)"/>
       <use xlink:href="#DejaVuSans-73" transform="translate(539.839844 0)"/>
       <use xlink:href="#DejaVuSans-6e" transform="translate(591.939453 0)"/>
       <use xlink:href="#DejaVuSans-61" transform="translate(655.318359 0)"/>
       <use xlink:href="#DejaVuSans-70" transform="translate(716.597656 0)"/>
       <use xlink:href="#DejaVuSans-70" transform="translate(780.074219 0)"/>
       <use xlink:href="#DejaVuSans-79" transform="translate(843.550781 0)"/>
      </g>
     </g>
    </g>
    <g id="xtick_4">
     <g id="line2d_4">
      <g>
       <use xlink:href="#m90d0e2594a" x="235.093074" y="328.914967" style="stroke: #000000; stroke-width: 0.8"/>
      </g>
     </g>
     <g id="text_4">
      <!-- css-parse-fb -->
      <g transform="translate(190.523249 384.387137) rotate(-45) scale(0.1 -0.1)">
       <use xlink:href="#DejaVuSans-63"/>
       <use xlink:href="#DejaVuSans-73" transform="translate(54.980469 0)"/>
       <use xlink:href="#DejaVuSans-73" transform="translate(107.080078 0)"/>
       <use xlink:href="#DejaVuSans-2d" transform="translate(159.179688 0)"/>
       <use xlink:href="#DejaVuSans-70" transform="translate(195.263672 0)"/>
       <use xlink:href="#DejaVuSans-61" transform="translate(258.740234 0)"/>
       <use xlink:href="#DejaVuSans-72" transform="translate(320.019531 0)"/>
       <use xlink:href="#DejaVuSans-73" transform="translate(361.132812 0)"/>
       <use xlink:href="#DejaVuSans-65" transform="translate(413.232422 0)"/>
       <use xlink:href="#DejaVuSans-2d" transform="translate(474.755859 0)"/>
       <use xlink:href="#DejaVuSans-66" transform="translate(510.839844 0)"/>
       <use xlink:href="#DejaVuSans-62" transform="translate(546.044922 0)"/>
      </g>
     </g>
    </g>
    <g id="xtick_5">
     <g id="line2d_5">
      <g>
       <use xlink:href="#m90d0e2594a" x="278.499459" y="328.914967" style="stroke: #000000; stroke-width: 0.8"/>
      </g>
     </g>
     <g id="text_5">
      <!-- fmt-debug-derive -->
      <g transform="translate(215.23108 403.085692) rotate(-45) scale(0.1 -0.1)">
       <defs>
        <path id="DejaVuSans-67" d="M 2906 1791 
Q 2906 2416 2648 2759 
Q 2391 3103 1925 3103 
Q 1463 3103 1205 2759 
Q 947 2416 947 1791 
Q 947 1169 1205 825 
Q 1463 481 1925 481 
Q 2391 481 2648 825 
Q 2906 1169 2906 1791 
z
M 3481 434 
Q 3481 -459 3084 -895 
Q 2688 -1331 1869 -1331 
Q 1566 -1331 1297 -1286 
Q 1028 -1241 775 -1147 
L 775 -588 
Q 1028 -725 1275 -790 
Q 1522 -856 1778 -856 
Q 2344 -856 2625 -561 
Q 2906 -266 2906 331 
L 2906 616 
Q 2728 306 2450 153 
Q 2172 0 1784 0 
Q 1141 0 747 490 
Q 353 981 353 1791 
Q 353 2603 747 3093 
Q 1141 3584 1784 3584 
Q 2172 3584 2450 3431 
Q 2728 3278 2906 2969 
L 2906 3500 
L 3481 3500 
L 3481 434 
z
" transform="scale(0.015625)"/>
        <path id="DejaVuSans-76" d="M 191 3500 
L 800 3500 
L 1894 563 
L 2988 3500 
L 3597 3500 
L 2284 0 
L 1503 0 
L 191 3500 
z
" transform="scale(0.015625)"/>
       </defs>
       <use xlink:href="#DejaVuSans-66"/>
       <use xlink:href="#DejaVuSans-6d" transform="translate(35.205078 0)"/>
       <use xlink:href="#DejaVuSans-74" transform="translate(132.617188 0)"/>
       <use xlink:href="#DejaVuSans-2d" transform="translate(171.826172 0)"/>
       <use xlink:href="#DejaVuSans-64" transform="translate(207.910156 0)"/>
       <use xlink:href="#DejaVuSans-65" transform="translate(271.386719 0)"/>
       <use xlink:href="#DejaVuSans-62" transform="translate(332.910156 0)"/>
       <use xlink:href="#DejaVuSans-75" transform="translate(396.386719 0)"/>
       <use xlink:href="#DejaVuSans-67" transform="translate(459.765625 0)"/>
       <use xlink:href="#DejaVuSans-2d" transform="translate(523.242188 0)"/>
       <use xlink:href="#DejaVuSans-64" transform="translate(559.326172 0)"/>
       <use xlink:href="#DejaVuSans-65" transform="translate(622.802734 0)"/>
       <use xlink:href="#DejaVuSans-72" transform="translate(684.326172 0)"/>
       <use xlink:href="#DejaVuSans-69" transform="translate(725.439453 0)"/>
       <use xlink:href="#DejaVuSans-76" transform="translate(753.222656 0)"/>
       <use xlink:href="#DejaVuSans-65" transform="translate(812.402344 0)"/>
      </g>
     </g>
    </g>
    <g id="xtick_6">
     <g id="line2d_6">
      <g>
       <use xlink:href="#m90d0e2594a" x="321.905844" y="328.914967" style="stroke: #000000; stroke-width: 0.8"/>
      </g>
     </g>
     <g id="text_6">
      <!-- fmt-write-str -->
      <g transform="translate(276.044445 385.678712) rotate(-45) scale(0.1 -0.1)">
       <defs>
        <path id="DejaVuSans-77" d="M 269 3500 
L 844 3500 
L 1563 769 
L 2278 3500 
L 2956 3500 
L 3675 769 
L 4391 3500 
L 4966 3500 
L 4050 0 
L 3372 0 
L 2619 2869 
L 1863 0 
L 1184 0 
L 269 3500 
z
" transform="scale(0.015625)"/>
       </defs>
       <use xlink:href="#DejaVuSans-66"/>
       <use xlink:href="#DejaVuSans-6d" transform="translate(35.205078 0)"/>
       <use xlink:href="#DejaVuSans-74" transform="translate(132.617188 0)"/>
       <use xlink:href="#DejaVuSans-2d" transform="translate(171.826172 0)"/>
       <use xlink:href="#DejaVuSans-77" transform="translate(207.910156 0)"/>
       <use xlink:href="#DejaVuSans-72" transform="translate(289.697266 0)"/>
       <use xlink:href="#DejaVuSans-69" transform="translate(330.810547 0)"/>
       <use xlink:href="#DejaVuSans-74" transform="translate(358.59375 0)"/>
       <use xlink:href="#DejaVuSans-65" transform="translate(397.802734 0)"/>
       <use xlink:href="#DejaVuSans-2d" transform="translate(459.326172 0)"/>
       <use xlink:href="#DejaVuSans-73" transform="translate(495.410156 0)"/>
       <use xlink:href="#DejaVuSans-74" transform="translate(547.509766 0)"/>
       <use xlink:href="#DejaVuSans-72" transform="translate(586.71875 0)"/>
      </g>
     </g>
    </g>
    <g id="xtick_7">
     <g id="line2d_7">
      <g>
       <use xlink:href="#m90d0e2594a" x="365.312229" y="328.914967" style="stroke: #000000; stroke-width: 0.8"/>
      </g>
     </g>
     <g id="text_7">
      <!-- hashmap_find_1m -->
      <g transform="translate(299.074002 405.858876) rotate(-45) scale(0.1 -0.1)">
       <defs>
        <path id="DejaVuSans-68" d="M 3513 2113 
L 3513 0 
L 2938 0 
L 2938 2094 
Q 2938 2591 2744 2837 
Q 2550 3084 2163 3084 
Q 1697 3084 1428 2787 
Q 1159 2491 1159 1978 
L 1159 0 
L 581 0 
L 581 4863 
L 1159 4863 
L 1159 2956 
Q 1366 3272 1645 3428 
Q 1925 3584 2291 3584 
Q 2894 3584 3203 3211 
Q 3513 2838 3513 2113 
z
" transform="scale(0.015625)"/>
        <path id="DejaVuSans-31" d="M 794 531 
L 1825 531 
L 1825 4091 
L 703 3866 
L 703 4441 
L 1819 4666 
L 2450 4666 
L 2450 531 
L 3481 531 
L 3481 0 
L 794 0 
L 794 531 
z
" transform="scale(0.015625)"/>
       </defs>
       <use xlink:href="#DejaVuSans-68"/>
       <use xlink:href="#DejaVuSans-61" transform="translate(63.378906 0)"/>
       <use xlink:href="#DejaVuSans-73" transform="translate(124.658203 0)"/>
       <use xlink:href="#DejaVuSans-68" transform="translate(176.757812 0)"/>
       <use xlink:href="#DejaVuSans-6d" transform="translate(240.136719 0)"/>
       <use xlink:href="#DejaVuSans-61" transform="translate(337.548828 0)"/>
       <use xlink:href="#DejaVuSans-70" transform="translate(398.828125 0)"/>
       <use xlink:href="#DejaVuSans-5f" transform="translate(462.304688 0)"/>
       <use xlink:href="#DejaVuSans-66" transform="translate(512.304688 0)"/>
       <use xlink:href="#DejaVuSans-69" transform="translate(547.509766 0)"/>
       <use xlink:href="#DejaVuSans-6e" transform="translate(575.292969 0)"/>
       <use xlink:href="#DejaVuSans-64" transform="translate(638.671875 0)"/>
       <use xlink:href="#DejaVuSans-5f" transform="translate(702.148438 0)"/>
       <use xlink:href="#DejaVuSans-31" transform="translate(752.148438 0)"/>
       <use xlink:href="#DejaVuSans-6d" transform="translate(815.771484 0)"/>
      </g>
     </g>
    </g>
    <g id="xtick_8">
     <g id="line2d_8">
      <g>
       <use xlink:href="#m90d0e2594a" x="408.718615" y="328.914967" style="stroke: #000000; stroke-width: 0.8"/>
      </g>
     </g>
     <g id="text_8">
      <!-- hashmap_insert_1m -->
      <g transform="translate(335.745195 412.594069) rotate(-45) scale(0.1 -0.1)">
       <use xlink:href="#DejaVuSans-68"/>
       <use xlink:href="#DejaVuSans-61" transform="translate(63.378906 0)"/>
       <use xlink:href="#DejaVuSans-73" transform="translate(124.658203 0)"/>
       <use xlink:href="#DejaVuSans-68" transform="translate(176.757812 0)"/>
       <use xlink:href="#DejaVuSans-6d" transform="translate(240.136719 0)"/>
       <use xlink:href="#DejaVuSans-61" transform="translate(337.548828 0)"/>
       <use xlink:href="#DejaVuSans-70" transform="translate(398.828125 0)"/>
       <use xlink:href="#DejaVuSans-5f" transform="translate(462.304688 0)"/>
       <use xlink:href="#DejaVuSans-69" transform="translate(512.304688 0)"/>
       <use xlink:href="#DejaVuSans-6e" transform="translate(540.087891 0)"/>
       <use xlink:href="#DejaVuSans-73" transform="translate(603.466797 0)"/>
       <use xlink:href="#DejaVuSans-65" transform="translate(655.566406 0)"/>
       <use xlink:href="#DejaVuSans-72" transform="translate(717.089844 0)"/>
       <use xlink:href="#DejaVuSans-74" transform="translate(758.203125 0)"/>
       <use xlink:href="#DejaVuSans-5f" transform="translate(797.412109 0)"/>
       <use xlink:href="#DejaVuSans-31" transform="translate(847.412109 0)"/>
       <use xlink:href="#DejaVuSans-6d" transform="translate(911.035156 0)"/>
      </g>
     </g>
    </g>
    <g id="xtick_9">
     <g id="line2d_9">
      <g>
       <use xlink:href="#m90d0e2594a" x="452.125" y="328.914967" style="stroke: #000000; stroke-width: 0.8"/>
      </g>
     </g>
     <g id="text_9">
      <!-- hashmap_iterate_1m -->
      <g transform="translate(375.860219 415.88543) rotate(-45) scale(0.1 -0.1)">
       <use xlink:href="#DejaVuSans-68"/>
       <use xlink:href="#DejaVuSans-61" transform="translate(63.378906 0)"/>
       <use xlink:href="#DejaVuSans-73" transform="translate(124.658203 0)"/>
       <use xlink:href="#DejaVuSans-68" transform="translate(176.757812 0)"/>
       <use xlink:href="#DejaVuSans-6d" transform="translate(240.136719 0)"/>
       <use xlink:href="#DejaVuSans-61" transform="translate(337.548828 0)"/>
       <use xlink:href="#DejaVuSans-70" transform="translate(398.828125 0)"/>
       <use xlink:href="#DejaVuSans-5f" transform="translate(462.304688 0)"/>
       <use xlink:href="#DejaVuSans-69" transform="translate(512.304688 0)"/>
       <use xlink:href="#DejaVuSans-74" transform="translate(540.087891 0)"/>
       <use xlink:href="#DejaVuSans-65" transform="translate(579.296875 0)"/>
       <use xlink:href="#DejaVuSans-72" transform="translate(640.820312 0)"/>
       <use xlink:href="#DejaVuSans-61" transform="translate(681.933594 0)"/>
       <use xlink:href="#DejaVuSans-74" transform="translate(743.212891 0)"/>
       <use xlink:href="#DejaVuSans-65" transform="translate(782.421875 0)"/>
       <use xlink:href="#DejaVuSans-5f" transform="translate(843.945312 0)"/>
       <use xlink:href="#DejaVuSans-31" transform="translate(893.945312 0)"/>
       <use xlink:href="#DejaVuSans-6d" transform="translate(957.568359 0)"/>
      </g>
     </g>
    </g>
    <g id="xtick_10">
     <g id="line2d_10">
      <g>
       <use xlink:href="#m90d0e2594a" x="495.531385" y="328.914967" style="stroke: #000000; stroke-width: 0.8"/>
      </g>
     </g>
     <g id="text_10">
      <!-- hashmap_remove_1m -->
      <g transform="translate(415.868072 419.283962) rotate(-45) scale(0.1 -0.1)">
       <use xlink:href="#DejaVuSans-68"/>
       <use xlink:href="#DejaVuSans-61" transform="translate(63.378906 0)"/>
       <use xlink:href="#DejaVuSans-73" transform="translate(124.658203 0)"/>
       <use xlink:href="#DejaVuSans-68" transform="translate(176.757812 0)"/>
       <use xlink:href="#DejaVuSans-6d" transform="translate(240.136719 0)"/>
       <use xlink:href="#DejaVuSans-61" transform="translate(337.548828 0)"/>
       <use xlink:href="#DejaVuSans-70" transform="translate(398.828125 0)"/>
       <use xlink:href="#DejaVuSans-5f" transform="translate(462.304688 0)"/>
       <use xlink:href="#DejaVuSans-72" transform="translate(512.304688 0)"/>
       <use xlink:href="#DejaVuSans-65" transform="translate(551.167969 0)"/>
       <use xlink:href="#DejaVuSans-6d" transform="translate(612.691406 0)"/>
       <use xlink:href="#DejaVuSans-6f" transform="translate(710.103516 0)"/>
       <use xlink:href="#DejaVuSans-76" transform="translate(771.285156 0)"/>
       <use xlink:href="#DejaVuSans-65" transform="translate(830.464844 0)"/>
       <use xlink:href="#DejaVuSans-5f" transform="translate(891.988281 0)"/>
       <use xlink:href="#DejaVuSans-31" transform="translate(941.988281 0)"/>
       <use xlink:href="#DejaVuSans-6d" transform="translate(1005.611328 0)"/>
      </g>
     </g>
    </g>
    <g id="xtick_11">
     <g id="line2d_11">
      <g>
       <use xlink:href="#m90d0e2594a" x="538.937771" y="328.914967" style="stroke: #000000; stroke-width: 0.8"/>
      </g>
     </g>
     <g id="text_11">
      <!-- nbody_5k -->
      <g transform="translate(503.170321 375.388098) rotate(-45) scale(0.1 -0.1)">
       <defs>
        <path id="DejaVuSans-35" d="M 691 4666 
L 3169 4666 
L 3169 4134 
L 1269 4134 
L 1269 2991 
Q 1406 3038 1543 3061 
Q 1681 3084 1819 3084 
Q 2600 3084 3056 2656 
Q 3513 2228 3513 1497 
Q 3513 744 3044 326 
Q 2575 -91 1722 -91 
Q 1428 -91 1123 -41 
Q 819 9 494 109 
L 494 744 
Q 775 591 1075 516 
Q 1375 441 1709 441 
Q 2250 441 2565 725 
Q 2881 1009 2881 1497 
Q 2881 1984 2565 2268 
Q 2250 2553 1709 2553 
Q 1456 2553 1204 2497 
Q 953 2441 691 2322 
L 691 4666 
z
" transform="scale(0.015625)"/>
        <path id="DejaVuSans-6b" d="M 581 4863 
L 1159 4863 
L 1159 1991 
L 2875 3500 
L 3609 3500 
L 1753 1863 
L 3688 0 
L 2938 0 
L 1159 1709 
L 1159 0 
L 581 0 
L 581 4863 
z
" transform="scale(0.015625)"/>
       </defs>
       <use xlink:href="#DejaVuSans-6e"/>
       <use xlink:href="#DejaVuSans-62" transform="translate(63.378906 0)"/>
       <use xlink:href="#DejaVuSans-6f" transform="translate(126.855469 0)"/>
       <use xlink:href="#DejaVuSans-64" transform="translate(188.037109 0)"/>
       <use xlink:href="#DejaVuSans-79" transform="translate(251.513672 0)"/>
       <use xlink:href="#DejaVuSans-5f" transform="translate(310.693359 0)"/>
       <use xlink:href="#DejaVuSans-35" transform="translate(360.693359 0)"/>
       <use xlink:href="#DejaVuSans-6b" transform="translate(424.316406 0)"/>
      </g>
     </g>
    </g>
    <g id="xtick_12">
     <g id="line2d_12">
      <g>
       <use xlink:href="#m90d0e2594a" x="582.344156" y="328.914967" style="stroke: #000000; stroke-width: 0.8"/>
      </g>
     </g>
     <g id="text_12">
      <!-- nom-json -->
      <g transform="translate(548.171011 373.990458) rotate(-45) scale(0.1 -0.1)">
       <defs>
        <path id="DejaVuSans-6a" d="M 603 3500 
L 1178 3500 
L 1178 -63 
Q 1178 -731 923 -1031 
Q 669 -1331 103 -1331 
L -116 -1331 
L -116 -844 
L 38 -844 
Q 366 -844 484 -692 
Q 603 -541 603 -63 
L 603 3500 
z
M 603 4863 
L 1178 4863 
L 1178 4134 
L 603 4134 
L 603 4863 
z
" transform="scale(0.015625)"/>
       </defs>
       <use xlink:href="#DejaVuSans-6e"/>
       <use xlink:href="#DejaVuSans-6f" transform="translate(63.378906 0)"/>
       <use xlink:href="#DejaVuSans-6d" transform="translate(124.560547 0)"/>
       <use xlink:href="#DejaVuSans-2d" transform="translate(221.972656 0)"/>
       <use xlink:href="#DejaVuSans-6a" transform="translate(258.056641 0)"/>
       <use xlink:href="#DejaVuSans-73" transform="translate(285.839844 0)"/>
       <use xlink:href="#DejaVuSans-6f" transform="translate(337.939453 0)"/>
       <use xlink:href="#DejaVuSans-6e" transform="translate(399.121094 0)"/>
      </g>
     </g>
    </g>
    <g id="xtick_13">
     <g id="line2d_13">
      <g>
       <use xlink:href="#m90d0e2594a" x="625.750541" y="328.914967" style="stroke: #000000; stroke-width: 0.8"/>
      </g>
     </g>
     <g id="text_13">
      <!-- pinky-nes15 -->
      <g transform="translate(581.380695 384.187158) rotate(-45) scale(0.1 -0.1)">
       <use xlink:href="#DejaVuSans-70"/>
       <use xlink:href="#DejaVuSans-69" transform="translate(63.476562 0)"/>
       <use xlink:href="#DejaVuSans-6e" transform="translate(91.259766 0)"/>
       <use xlink:href="#DejaVuSans-6b" transform="translate(154.638672 0)"/>
       <use xlink:href="#DejaVuSans-79" transform="translate(208.923828 0)"/>
       <use xlink:href="#DejaVuSans-2d" transform="translate(266.353516 0)"/>
       <use xlink:href="#DejaVuSans-6e" transform="translate(302.4375 0)"/>
       <use xlink:href="#DejaVuSans-65" transform="translate(365.816406 0)"/>
       <use xlink:href="#DejaVuSans-73" transform="translate(427.339844 0)"/>
       <use xlink:href="#DejaVuSans-31" transform="translate(479.439453 0)"/>
       <use xlink:href="#DejaVuSans-35" transform="translate(543.0625 0)"/>
      </g>
     </g>
    </g>
    <g id="xtick_14">
     <g id="line2d_14">
      <g>
       <use xlink:href="#m90d0e2594a" x="669.156926" y="328.914967" style="stroke: #000000; stroke-width: 0.8"/>
      </g>
     </g>
     <g id="text_14">
      <!-- raytracer -->
      <g transform="translate(635.103106 373.871133) rotate(-45) scale(0.1 -0.1)">
       <use xlink:href="#DejaVuSans-72"/>
       <use xlink:href="#DejaVuSans-61" transform="translate(41.113281 0)"/>
       <use xlink:href="#DejaVuSans-79" transform="translate(102.392578 0)"/>
       <use xlink:href="#DejaVuSans-74" transform="translate(161.572266 0)"/>
       <use xlink:href="#DejaVuSans-72" transform="translate(200.78125 0)"/>
       <use xlink:href="#DejaVuSans-61" transform="translate(241.894531 0)"/>
       <use xlink:href="#DejaVuSans-63" transform="translate(303.173828 0)"/>
       <use xlink:href="#DejaVuSans-65" transform="translate(358.154297 0)"/>
       <use xlink:href="#DejaVuSans-72" transform="translate(419.677734 0)"/>
      </g>
     </g>
    </g>
    <g id="xtick_15">
     <g id="line2d_15">
      <g>
       <use xlink:href="#m90d0e2594a" x="712.563312" y="328.914967" style="stroke: #000000; stroke-width: 0.8"/>
      </g>
     </g>
     <g id="text_15">
      <!-- svg-parse-1 -->
      <g transform="translate(669.370136 383.010489) rotate(-45) scale(0.1 -0.1)">
       <use xlink:href="#DejaVuSans-73"/>
       <use xlink:href="#DejaVuSans-76" transform="translate(52.099609 0)"/>
       <use xlink:href="#DejaVuSans-67" transform="translate(111.279297 0)"/>
       <use xlink:href="#DejaVuSans-2d" transform="translate(174.755859 0)"/>
       <use xlink:href="#DejaVuSans-70" transform="translate(210.839844 0)"/>
       <use xlink:href="#DejaVuSans-61" transform="translate(274.316406 0)"/>
       <use xlink:href="#DejaVuSans-72" transform="translate(335.595703 0)"/>
       <use xlink:href="#DejaVuSans-73" transform="translate(376.708984 0)"/>
       <use xlink:href="#DejaVuSans-65" transform="translate(428.808594 0)"/>
       <use xlink:href="#DejaVuSans-2d" transform="translate(490.332031 0)"/>
       <use xlink:href="#DejaVuSans-31" transform="translate(526.416016 0)"/>
      </g>
     </g>
    </g>
    <g id="xtick_16">
     <g id="line2d_16">
      <g>
       <use xlink:href="#m90d0e2594a" x="755.969697" y="328.914967" style="stroke: #000000; stroke-width: 0.8"/>
      </g>
     </g>
     <g id="text_16">
      <!-- svg-render-1 -->
      <g transform="translate(709.664146 386.122863) rotate(-45) scale(0.1 -0.1)">
       <use xlink:href="#DejaVuSans-73"/>
       <use xlink:href="#DejaVuSans-76" transform="translate(52.099609 0)"/>
       <use xlink:href="#DejaVuSans-67" transform="translate(111.279297 0)"/>
       <use xlink:href="#DejaVuSans-2d" transform="translate(174.755859 0)"/>
       <use xlink:href="#DejaVuSans-72" transform="translate(210.839844 0)"/>
       <use xlink:href="#DejaVuSans-65" transform="translate(249.703125 0)"/>
       <use xlink:href="#DejaVuSans-6e" transform="translate(311.226562 0)"/>
       <use xlink:href="#DejaVuSans-64" transform="translate(374.605469 0)"/>
       <use xlink:href="#DejaVuSans-65" transform="translate(438.082031 0)"/>
       <use xlink:href="#DejaVuSans-72" transform="translate(499.605469 0)"/>
       <use xlink:href="#DejaVuSans-2d" transform="translate(534.34375 0)"/>
       <use xlink:href="#DejaVuSans-31" transform="translate(570.427734 0)"/>
      </g>
     </g>
    </g>
    <g id="xtick_17">
     <g id="line2d_17">
      <g>
       <use xlink:href="#m90d0e2594a" x="799.376082" y="328.914967" style="stroke: #000000; stroke-width: 0.8"/>
      </g>
     </g>
     <g id="text_17">
      <!-- GEOMEAN -->
      <g transform="translate(761.69613 377.497265) rotate(-45) scale(0.1 -0.1)">
       <defs>
        <path id="DejaVuSans-47" d="M 3809 666 
L 3809 1919 
L 2778 1919 
L 2778 2438 
L 4434 2438 
L 4434 434 
Q 4069 175 3628 42 
Q 3188 -91 2688 -91 
Q 1594 -91 976 548 
Q 359 1188 359 2328 
Q 359 3472 976 4111 
Q 1594 4750 2688 4750 
Q 3144 4750 3555 4637 
Q 3966 4525 4313 4306 
L 4313 3634 
Q 3963 3931 3569 4081 
Q 3175 4231 2741 4231 
Q 1884 4231 1454 3753 
Q 1025 3275 1025 2328 
Q 1025 1384 1454 906 
Q 1884 428 2741 428 
Q 3075 428 3337 486 
Q 3600 544 3809 666 
z
" transform="scale(0.015625)"/>
        <path id="DejaVuSans-45" d="M 628 4666 
L 3578 4666 
L 3578 4134 
L 1259 4134 
L 1259 2753 
L 3481 2753 
L 3481 2222 
L 1259 2222 
L 1259 531 
L 3634 531 
L 3634 0 
L 628 0 
L 628 4666 
z
" transform="scale(0.015625)"/>
        <path id="DejaVuSans-4f" d="M 2522 4238 
Q 1834 4238 1429 3725 
Q 1025 3213 1025 2328 
Q 1025 1447 1429 934 
Q 1834 422 2522 422 
Q 3209 422 3611 934 
Q 4013 1447 4013 2328 
Q 4013 3213 3611 3725 
Q 3209 4238 2522 4238 
z
M 2522 4750 
Q 3503 4750 4090 4092 
Q 4678 3434 4678 2328 
Q 4678 1225 4090 567 
Q 3503 -91 2522 -91 
Q 1538 -91 948 565 
Q 359 1222 359 2328 
Q 359 3434 948 4092 
Q 1538 4750 2522 4750 
z
" transform="scale(0.015625)"/>
        <path id="DejaVuSans-4d" d="M 628 4666 
L 1569 4666 
L 2759 1491 
L 3956 4666 
L 4897 4666 
L 4897 0 
L 4281 0 
L 4281 4097 
L 3078 897 
L 2444 897 
L 1241 4097 
L 1241 0 
L 628 0 
L 628 4666 
z
" transform="scale(0.015625)"/>
        <path id="DejaVuSans-41" d="M 2188 4044 
L 1331 1722 
L 3047 1722 
L 2188 4044 
z
M 1831 4666 
L 2547 4666 
L 4325 0 
L 3669 0 
L 3244 1197 
L 1141 1197 
L 716 0 
L 50 0 
L 1831 4666 
z
" transform="scale(0.015625)"/>
        <path id="DejaVuSans-4e" d="M 628 4666 
L 1478 4666 
L 3547 763 
L 3547 4666 
L 4159 4666 
L 4159 0 
L 3309 0 
L 1241 3903 
L 1241 0 
L 628 0 
L 628 4666 
z
" transform="scale(0.015625)"/>
       </defs>
       <use xlink:href="#DejaVuSans-47"/>
       <use xlink:href="#DejaVuSans-45" transform="translate(77.490234 0)"/>
       <use xlink:href="#DejaVuSans-4f" transform="translate(140.673828 0)"/>
       <use xlink:href="#DejaVuSans-4d" transform="translate(219.384766 0)"/>
       <use xlink:href="#DejaVuSans-45" transform="translate(305.664062 0)"/>
       <use xlink:href="#DejaVuSans-41" transform="translate(368.847656 0)"/>
       <use xlink:href="#DejaVuSans-4e" transform="translate(437.255859 0)"/>
      </g>
     </g>
    </g>
   </g>
   <g id="matplotlib.axis_2">
    <g id="ytick_1">
     <g id="line2d_18">
      <path d="M 51.05 328.914967 
L 853.2 328.914967 
" clip-path="url(#p85fc561b74)" style="fill: none; stroke-dasharray: 2.96,1.28; stroke-dashoffset: 0; stroke: #b0b0b0; stroke-opacity: 0.4; stroke-width: 0.8"/>
     </g>
     <g id="line2d_19">
      <defs>
       <path id="mc0315197b4" d="M 0 0 
L -3.5 0 
" style="stroke: #000000; stroke-width: 0.8"/>
      </defs>
      <g>
       <use xlink:href="#mc0315197b4" x="51.05" y="328.914967" style="stroke: #000000; stroke-width: 0.8"/>
      </g>
     </g>
     <g id="text_18">
      <!-- 0 -->
      <g transform="translate(37.6875 332.714186) scale(0.1 -0.1)">
       <defs>
        <path id="DejaVuSans-30" d="M 2034 4250 
Q 1547 4250 1301 3770 
Q 1056 3291 1056 2328 
Q 1056 1369 1301 889 
Q 1547 409 2034 409 
Q 2525 409 2770 889 
Q 3016 1369 3016 2328 
Q 3016 3291 2770 3770 
Q 2525 4250 2034 4250 
z
M 2034 4750 
Q 2819 4750 3233 4129 
Q 3647 3509 3647 2328 
Q 3647 1150 3233 529 
Q 2819 -91 2034 -91 
Q 1250 -91 836 529 
Q 422 1150 422 2328 
Q 422 3509 836 4129 
Q 1250 4750 2034 4750 
z
" transform="scale(0.015625)"/>
       </defs>
       <use xlink:href="#DejaVuSans-30"/>
      </g>
     </g>
    </g>
    <g id="ytick_2">
     <g id="line2d_20">
      <path d="M 51.05 287.080615 
L 853.2 287.080615 
" clip-path="url(#p85fc561b74)" style="fill: none; stroke-dasharray: 2.96,1.28; stroke-dashoffset: 0; stroke: #b0b0b0; stroke-opacity: 0.4; stroke-width: 0.8"/>
     </g>
     <g id="line2d_21">
      <g>
       <use xlink:href="#mc0315197b4" x="51.05" y="287.080615" style="stroke: #000000; stroke-width: 0.8"/>
      </g>
     </g>
     <g id="text_19">
      <!-- 25 -->
      <g transform="translate(31.325 290.879833) scale(0.1 -0.1)">
       <defs>
        <path id="DejaVuSans-32" d="M 1228 531 
L 3431 531 
L 3431 0 
L 469 0 
L 469 531 
Q 828 903 1448 1529 
Q 2069 2156 2228 2338 
Q 2531 2678 2651 2914 
Q 2772 3150 2772 3378 
Q 2772 3750 2511 3984 
Q 2250 4219 1831 4219 
Q 1534 4219 1204 4116 
Q 875 4013 500 3803 
L 500 4441 
Q 881 4594 1212 4672 
Q 1544 4750 1819 4750 
Q 2544 4750 2975 4387 
Q 3406 4025 3406 3419 
Q 3406 3131 3298 2873 
Q 3191 2616 2906 2266 
Q 2828 2175 2409 1742 
Q 1991 1309 1228 531 
z
" transform="scale(0.015625)"/>
       </defs>
       <use xlink:href="#DejaVuSans-32"/>
       <use xlink:href="#DejaVuSans-35" transform="translate(63.623047 0)"/>
      </g>
     </g>
    </g>
    <g id="ytick_3">
     <g id="line2d_22">
      <path d="M 51.05 245.246262 
L 853.2 245.246262 
" clip-path="url(#p85fc561b74)" style="fill: none; stroke-dasharray: 2.96,1.28; stroke-dashoffset: 0; stroke: #b0b0b0; stroke-opacity: 0.4; stroke-width: 0.8"/>
     </g>
     <g id="line2d_23">
      <g>
       <use xlink:href="#mc0315197b4" x="51.05" y="245.246262" style="stroke: #000000; stroke-width: 0.8"/>
      </g>
     </g>
     <g id="text_20">
      <!-- 50 -->
      <g transform="translate(31.325 249.045481) scale(0.1 -0.1)">
       <use xlink:href="#DejaVuSans-35"/>
       <use xlink:href="#DejaVuSans-30" transform="translate(63.623047 0)"/>
      </g>
     </g>
    </g>
    <g id="ytick_4">
     <g id="line2d_24">
      <path d="M 51.05 203.41191 
L 853.2 203.41191 
" clip-path="url(#p85fc561b74)" style="fill: none; stroke-dasharray: 2.96,1.28; stroke-dashoffset: 0; stroke: #b0b0b0; stroke-opacity: 0.4; stroke-width: 0.8"/>
     </g>
     <g id="line2d_25">
      <g>
       <use xlink:href="#mc0315197b4" x="51.05" y="203.41191" style="stroke: #000000; stroke-width: 0.8"/>
      </g>
     </g>
     <g id="text_21">
      <!-- 75 -->
      <g transform="translate(31.325 207.211128) scale(0.1 -0.1)">
       <defs>
        <path id="DejaVuSans-37" d="M 525 4666 
L 3525 4666 
L 3525 4397 
L 1831 0 
L 1172 0 
L 2766 4134 
L 525 4134 
L 525 4666 
z
" transform="scale(0.015625)"/>
       </defs>
       <use xlink:href="#DejaVuSans-37"/>
       <use xlink:href="#DejaVuSans-35" transform="translate(63.623047 0)"/>
      </g>
     </g>
    </g>
    <g id="ytick_5">
     <g id="line2d_26">
      <path d="M 51.05 161.577557 
L 853.2 161.577557 
" clip-path="url(#p85fc561b74)" style="fill: none; stroke-dasharray: 2.96,1.28; stroke-dashoffset: 0; stroke: #b0b0b0; stroke-opacity: 0.4; stroke-width: 0.8"/>
     </g>
     <g id="line2d_27">
      <g>
       <use xlink:href="#mc0315197b4" x="51.05" y="161.577557" style="stroke: #000000; stroke-width: 0.8"/>
      </g>
     </g>
     <g id="text_22">
      <!-- 100 -->
      <g transform="translate(24.9625 165.376776) scale(0.1 -0.1)">
       <use xlink:href="#DejaVuSans-31"/>
       <use xlink:href="#DejaVuSans-30" transform="translate(63.623047 0)"/>
       <use xlink:href="#DejaVuSans-30" transform="translate(127.246094 0)"/>
      </g>
     </g>
    </g>
    <g id="ytick_6">
     <g id="line2d_28">
      <path d="M 51.05 119.743204 
L 853.2 119.743204 
" clip-path="url(#p85fc561b74)" style="fill: none; stroke-dasharray: 2.96,1.28; stroke-dashoffset: 0; stroke: #b0b0b0; stroke-opacity: 0.4; stroke-width: 0.8"/>
     </g>
     <g id="line2d_29">
      <g>
       <use xlink:href="#mc0315197b4" x="51.05" y="119.743204" style="stroke: #000000; stroke-width: 0.8"/>
      </g>
     </g>
     <g id="text_23">
      <!-- 125 -->
      <g transform="translate(24.9625 123.542423) scale(0.1 -0.1)">
       <use xlink:href="#DejaVuSans-31"/>
       <use xlink:href="#DejaVuSans-32" transform="translate(63.623047 0)"/>
       <use xlink:href="#DejaVuSans-35" transform="translate(127.246094 0)"/>
      </g>
     </g>
    </g>
    <g id="ytick_7">
     <g id="line2d_30">
      <path d="M 51.05 77.908852 
L 853.2 77.908852 
" clip-path="url(#p85fc561b74)" style="fill: none; stroke-dasharray: 2.96,1.28; stroke-dashoffset: 0; stroke: #b0b0b0; stroke-opacity: 0.4; stroke-width: 0.8"/>
     </g>
     <g id="line2d_31">
      <g>
       <use xlink:href="#mc0315197b4" x="51.05" y="77.908852" style="stroke: #000000; stroke-width: 0.8"/>
      </g>
     </g>
     <g id="text_24">
      <!-- 150 -->
      <g transform="translate(24.9625 81.708071) scale(0.1 -0.1)">
       <use xlink:href="#DejaVuSans-31"/>
       <use xlink:href="#DejaVuSans-35" transform="translate(63.623047 0)"/>
       <use xlink:href="#DejaVuSans-30" transform="translate(127.246094 0)"/>
      </g>
     </g>
    </g>
    <g id="ytick_8">
     <g id="line2d_32">
      <path d="M 51.05 36.074499 
L 853.2 36.074499 
" clip-path="url(#p85fc561b74)" style="fill: none; stroke-dasharray: 2.96,1.28; stroke-dashoffset: 0; stroke: #b0b0b0; stroke-opacity: 0.4; stroke-width: 0.8"/>
     </g>
     <g id="line2d_33">
      <g>
       <use xlink:href="#mc0315197b4" x="51.05" y="36.074499" style="stroke: #000000; stroke-width: 0.8"/>
      </g>
     </g>
     <g id="text_25">
      <!-- 175 -->
      <g transform="translate(24.9625 39.873718) scale(0.1 -0.1)">
       <use xlink:href="#DejaVuSans-31"/>
       <use xlink:href="#DejaVuSans-37" transform="translate(63.623047 0)"/>
       <use xlink:href="#DejaVuSans-35" transform="translate(127.246094 0)"/>
      </g>
     </g>
    </g>
    <g id="text_26">
     <!-- runtime as percent of native (%) -->
     <g transform="translate(18.882813 258.71889) rotate(-90) scale(0.1 -0.1)">
      <defs>
       <path id="DejaVuSans-20" transform="scale(0.015625)"/>
       <path id="DejaVuSans-28" d="M 1984 4856 
Q 1566 4138 1362 3434 
Q 1159 2731 1159 2009 
Q 1159 1288 1364 580 
Q 1569 -128 1984 -844 
L 1484 -844 
Q 1016 -109 783 600 
Q 550 1309 550 2009 
Q 550 2706 781 3412 
Q 1013 4119 1484 4856 
L 1984 4856 
z
" transform="scale(0.015625)"/>
       <path id="DejaVuSans-25" d="M 4653 2053 
Q 4381 2053 4226 1822 
Q 4072 1591 4072 1178 
Q 4072 772 4226 539 
Q 4381 306 4653 306 
Q 4919 306 5073 539 
Q 5228 772 5228 1178 
Q 5228 1588 5073 1820 
Q 4919 2053 4653 2053 
z
M 4653 2450 
Q 5147 2450 5437 2106 
Q 5728 1763 5728 1178 
Q 5728 594 5436 251 
Q 5144 -91 4653 -91 
Q 4153 -91 3862 251 
Q 3572 594 3572 1178 
Q 3572 1766 3864 2108 
Q 4156 2450 4653 2450 
z
M 1428 4353 
Q 1159 4353 1004 4120 
Q 850 3888 850 3481 
Q 850 3069 1003 2837 
Q 1156 2606 1428 2606 
Q 1700 2606 1854 2837 
Q 2009 3069 2009 3481 
Q 2009 3884 1853 4118 
Q 1697 4353 1428 4353 
z
M 4250 4750 
L 4750 4750 
L 1831 -91 
L 1331 -91 
L 4250 4750 
z
M 1428 4750 
Q 1922 4750 2215 4408 
Q 2509 4066 2509 3481 
Q 2509 2891 2217 2550 
Q 1925 2209 1428 2209 
Q 931 2209 642 2551 
Q 353 2894 353 3481 
Q 353 4063 643 4406 
Q 934 4750 1428 4750 
z
" transform="scale(0.015625)"/>
       <path id="DejaVuSans-29" d="M 513 4856 
L 1013 4856 
Q 1481 4119 1714 3412 
Q 1947 2706 1947 2009 
Q 1947 1309 1714 600 
Q 1481 -109 1013 -844 
L 513 -844 
Q 928 -128 1133 580 
Q 1338 1288 1338 2009 
Q 1338 2731 1133 3434 
Q 928 4138 513 4856 
z
" transform="scale(0.015625)"/>
      </defs>
      <use xlink:href="#DejaVuSans-72"/>
      <use xlink:href="#DejaVuSans-75" transform="translate(41.113281 0)"/>
      <use xlink:href="#DejaVuSans-6e" transform="translate(104.492188 0)"/>
      <use xlink:href="#DejaVuSans-74" transform="translate(167.871094 0)"/>
      <use xlink:href="#DejaVuSans-69" transform="translate(207.080078 0)"/>
      <use xlink:href="#DejaVuSans-6d" transform="translate(234.863281 0)"/>
      <use xlink:href="#DejaVuSans-65" transform="translate(332.275391 0)"/>
      <use xlink:href="#DejaVuSans-20" transform="translate(393.798828 0)"/>
      <use xlink:href="#DejaVuSans-61" transform="translate(425.585938 0)"/>
      <use xlink:href="#DejaVuSans-73" transform="translate(486.865234 0)"/>
      <use xlink:href="#DejaVuSans-20" transform="translate(538.964844 0)"/>
      <use xlink:href="#DejaVuSans-70" transform="translate(570.751953 0)"/>
      <use xlink:href="#DejaVuSans-65" transform="translate(634.228516 0)"/>
      <use xlink:href="#DejaVuSans-72" transform="translate(695.751953 0)"/>
      <use xlink:href="#DejaVuSans-63" transform="translate(734.615234 0)"/>
      <use xlink:href="#DejaVuSans-65" transform="translate(789.595703 0)"/>
      <use xlink:href="#DejaVuSans-6e" transform="translate(851.119141 0)"/>
      <use xlink:href="#DejaVuSans-74" transform="translate(914.498047 0)"/>
      <use xlink:href="#DejaVuSans-20" transform="translate(953.707031 0)"/>
      <use xlink:href="#DejaVuSans-6f" transform="translate(985.494141 0)"/>
      <use xlink:href="#DejaVuSans-66" transform="translate(1046.675781 0)"/>
      <use xlink:href="#DejaVuSans-20" transform="translate(1081.880859 0)"/>
      <use xlink:href="#DejaVuSans-6e" transform="translate(1113.667969 0)"/>
      <use xlink:href="#DejaVuSans-61" transform="translate(1177.046875 0)"/>
      <use xlink:href="#DejaVuSans-74" transform="translate(1238.326172 0)"/>
      <use xlink:href="#DejaVuSans-69" transform="translate(1277.535156 0)"/>
      <use xlink:href="#DejaVuSans-76" transform="translate(1305.318359 0)"/>
      <use xlink:href="#DejaVuSans-65" transform="translate(1364.498047 0)"/>
      <use xlink:href="#DejaVuSans-20" transform="translate(1426.021484 0)"/>
      <use xlink:href="#DejaVuSans-28" transform="translate(1457.808594 0)"/>
      <use xlink:href="#DejaVuSans-25" transform="translate(1496.822266 0)"/>
      <use xlink:href="#DejaVuSans-29" transform="translate(1591.841797 0)"/>
     </g>
    </g>
   </g>
   <g id="patch_88">
    <path d="M 51.05 328.914967 
L 51.05 25.44 
" style="fill: none; stroke: #000000; stroke-width: 0.8; stroke-linejoin: miter; stroke-linecap: square"/>
   </g>
   <g id="patch_89">
    <path d="M 853.2 328.914967 
L 853.2 25.44 
" style="fill: none; stroke: #000000; stroke-width: 0.8; stroke-linejoin: miter; stroke-linecap: square"/>
   </g>
   <g id="patch_90">
    <path d="M 51.05 328.914967 
L 853.2 328.914967 
" style="fill: none; stroke: #000000; stroke-width: 0.8; stroke-linejoin: miter; stroke-linecap: square"/>
   </g>
   <g id="patch_91">
    <path d="M 51.05 25.44 
L 853.2 25.44 
" style="fill: none; stroke: #000000; stroke-width: 0.8; stroke-linejoin: miter; stroke-linecap: square"/>
   </g>
   <g id="text_27">
    <!-- rustc-perf: Wasmer vs Native -->
    <g transform="translate(364.850312 19.44) scale(0.12 -0.12)">
     <defs>
      <path id="DejaVuSans-3a" d="M 750 794 
L 1409 794 
L 1409 0 
L 750 0 
L 750 794 
z
M 750 3309 
L 1409 3309 
L 1409 2516 
L 750 2516 
L 750 3309 
z
" transform="scale(0.015625)"/>
      <path id="DejaVuSans-57" d="M 213 4666 
L 850 4666 
L 1831 722 
L 2809 4666 
L 3519 4666 
L 4500 722 
L 5478 4666 
L 6119 4666 
L 4947 0 
L 4153 0 
L 3169 4050 
L 2175 0 
L 1381 0 
L 213 4666 
z
" transform="scale(0.015625)"/>
     </defs>
     <use xlink:href="#DejaVuSans-72"/>
     <use xlink:href="#DejaVuSans-75" transform="translate(41.113281 0)"/>
     <use xlink:href="#DejaVuSans-73" transform="translate(104.492188 0)"/>
     <use xlink:href="#DejaVuSans-74" transform="translate(156.591797 0)"/>
     <use xlink:href="#DejaVuSans-63" transform="translate(195.800781 0)"/>
     <use xlink:href="#DejaVuSans-2d" transform="translate(250.78125 0)"/>
     <use xlink:href="#DejaVuSans-70" transform="translate(286.865234 0)"/>
     <use xlink:href="#DejaVuSans-65" transform="translate(350.341797 0)"/>
     <use xlink:href="#DejaVuSans-72" transform="translate(411.865234 0)"/>
     <use xlink:href="#DejaVuSans-66" transform="translate(452.978516 0)"/>
     <use xlink:href="#DejaVuSans-3a" transform="translate(484.558594 0)"/>
     <use xlink:href="#DejaVuSans-20" transform="translate(518.25 0)"/>
     <use xlink:href="#DejaVuSans-57" transform="translate(550.037109 0)"/>
     <use xlink:href="#DejaVuSans-61" transform="translate(642.539062 0)"/>
     <use xlink:href="#DejaVuSans-73" transform="translate(703.818359 0)"/>
     <use xlink:href="#DejaVuSans-6d" transform="translate(755.917969 0)"/>
     <use xlink:href="#DejaVuSans-65" transform="translate(853.330078 0)"/>
     <use xlink:href="#DejaVuSans-72" transform="translate(914.853516 0)"/>
     <use xlink:href="#DejaVuSans-20" transform="translate(955.966797 0)"/>
     <use xlink:href="#DejaVuSans-76" transform="translate(987.753906 0)"/>
     <use xlink:href="#DejaVuSans-73" transform="translate(1046.933594 0)"/>
     <use xlink:href="#DejaVuSans-20" transform="translate(1099.033203 0)"/>
     <use xlink:href="#DejaVuSans-4e" transform="translate(1130.820312 0)"/>
     <use xlink:href="#DejaVuSans-61" transform="translate(1205.625 0)"/>
     <use xlink:href="#DejaVuSans-74" transform="translate(1266.904297 0)"/>
     <use xlink:href="#DejaVuSans-69" transform="translate(1306.113281 0)"/>
     <use xlink:href="#DejaVuSans-76" transform="translate(1333.896484 0)"/>
     <use xlink:href="#DejaVuSans-65" transform="translate(1393.076172 0)"/>
    </g>
   </g>
   <g id="legend_1">
    <g id="patch_92">
     <path d="M 58.05 106.830625 
L 312.89375 106.830625 
Q 314.89375 106.830625 314.89375 104.830625 
L 314.89375 32.44 
Q 314.89375 30.44 312.89375 30.44 
L 58.05 30.44 
Q 56.05 30.44 56.05 32.44 
L 56.05 104.830625 
Q 56.05 106.830625 58.05 106.830625 
z
" style="fill: #ffffff; opacity: 0.8; stroke: #cccccc; stroke-linejoin: miter"/>
    </g>
    <g id="patch_93">
     <path d="M 60.05 42.038437 
L 80.05 42.038437 
L 80.05 35.038437 
L 60.05 35.038437 
z
" style="fill: #1f77b4"/>
    </g>
    <g id="text_28">
     <!-- native -->
     <g transform="translate(88.05 42.038437) scale(0.1 -0.1)">
      <use xlink:href="#DejaVuSans-6e"/>
      <use xlink:href="#DejaVuSans-61" transform="translate(63.378906 0)"/>
      <use xlink:href="#DejaVuSans-74" transform="translate(124.658203 0)"/>
      <use xlink:href="#DejaVuSans-69" transform="translate(163.867188 0)"/>
      <use xlink:href="#DejaVuSans-76" transform="translate(191.650391 0)"/>
      <use xlink:href="#DejaVuSans-65" transform="translate(250.830078 0)"/>
     </g>
    </g>
    <g id="patch_94">
     <path d="M 60.05 56.716563 
L 80.05 56.716563 
L 80.05 49.716563 
L 60.05 49.716563 
z
" style="fill: #ff7f0e"/>
    </g>
    <g id="text_29">
     <!-- Wasmer 7 LLVM (w/ pass-params) [default] -->
     <g transform="translate(88.05 56.716563) scale(0.1 -0.1)">
      <defs>
       <path id="DejaVuSans-4c" d="M 628 4666 
L 1259 4666 
L 1259 531 
L 3531 531 
L 3531 0 
L 628 0 
L 628 4666 
z
" transform="scale(0.015625)"/>
       <path id="DejaVuSans-56" d="M 1831 0 
L 50 4666 
L 709 4666 
L 2188 738 
L 3669 4666 
L 4325 4666 
L 2547 0 
L 1831 0 
z
" transform="scale(0.015625)"/>
       <path id="DejaVuSans-2f" d="M 1625 4666 
L 2156 4666 
L 531 -594 
L 0 -594 
L 1625 4666 
z
" transform="scale(0.015625)"/>
       <path id="DejaVuSans-5b" d="M 550 4863 
L 1875 4863 
L 1875 4416 
L 1125 4416 
L 1125 -397 
L 1875 -397 
L 1875 -844 
L 550 -844 
L 550 4863 
z
" transform="scale(0.015625)"/>
       <path id="DejaVuSans-5d" d="M 1947 4863 
L 1947 -844 
L 622 -844 
L 622 -397 
L 1369 -397 
L 1369 4416 
L 622 4416 
L 622 4863 
L 1947 4863 
z
" transform="scale(0.015625)"/>
      </defs>
      <use xlink:href="#DejaVuSans-57"/>
      <use xlink:href="#DejaVuSans-61" transform="translate(92.501953 0)"/>
      <use xlink:href="#DejaVuSans-73" transform="translate(153.78125 0)"/>
      <use xlink:href="#DejaVuSans-6d" transform="translate(205.880859 0)"/>
      <use xlink:href="#DejaVuSans-65" transform="translate(303.292969 0)"/>
      <use xlink:href="#DejaVuSans-72" transform="translate(364.816406 0)"/>
      <use xlink:href="#DejaVuSans-20" transform="translate(405.929688 0)"/>
      <use xlink:href="#DejaVuSans-37" transform="translate(437.716797 0)"/>
      <use xlink:href="#DejaVuSans-20" transform="translate(501.339844 0)"/>
      <use xlink:href="#DejaVuSans-4c" transform="translate(533.126953 0)"/>
      <use xlink:href="#DejaVuSans-4c" transform="translate(588.839844 0)"/>
      <use xlink:href="#DejaVuSans-56" transform="translate(633.552734 0)"/>
      <use xlink:href="#DejaVuSans-4d" transform="translate(701.960938 0)"/>
      <use xlink:href="#DejaVuSans-20" transform="translate(788.240234 0)"/>
      <use xlink:href="#DejaVuSans-28" transform="translate(820.027344 0)"/>
      <use xlink:href="#DejaVuSans-77" transform="translate(859.041016 0)"/>
      <use xlink:href="#DejaVuSans-2f" transform="translate(940.828125 0)"/>
      <use xlink:href="#DejaVuSans-20" transform="translate(974.519531 0)"/>
      <use xlink:href="#DejaVuSans-70" transform="translate(1006.306641 0)"/>
      <use xlink:href="#DejaVuSans-61" transform="translate(1069.783203 0)"/>
      <use xlink:href="#DejaVuSans-73" transform="translate(1131.0625 0)"/>
      <use xlink:href="#DejaVuSans-73" transform="translate(1183.162109 0)"/>
      <use xlink:href="#DejaVuSans-2d" transform="translate(1235.261719 0)"/>
      <use xlink:href="#DejaVuSans-70" transform="translate(1271.345703 0)"/>
      <use xlink:href="#DejaVuSans-61" transform="translate(1334.822266 0)"/>
      <use xlink:href="#DejaVuSans-72" transform="translate(1396.101562 0)"/>
      <use xlink:href="#DejaVuSans-61" transform="translate(1437.214844 0)"/>
      <use xlink:href="#DejaVuSans-6d" transform="translate(1498.494141 0)"/>
      <use xlink:href="#DejaVuSans-73" transform="translate(1595.90625 0)"/>
      <use xlink:href="#DejaVuSans-29" transform="translate(1648.005859 0)"/>
      <use xlink:href="#DejaVuSans-20" transform="translate(1687.019531 0)"/>
      <use xlink:href="#DejaVuSans-5b" transform="translate(1718.806641 0)"/>
      <use xlink:href="#DejaVuSans-64" transform="translate(1757.820312 0)"/>
      <use xlink:href="#DejaVuSans-65" transform="translate(1821.296875 0)"/>
      <use xlink:href="#DejaVuSans-66" transform="translate(1882.820312 0)"/>
      <use xlink:href="#DejaVuSans-61" transform="translate(1918.025391 0)"/>
      <use xlink:href="#DejaVuSans-75" transform="translate(1979.304688 0)"/>
      <use xlink:href="#DejaVuSans-6c" transform="translate(2042.683594 0)"/>
      <use xlink:href="#DejaVuSans-74" transform="translate(2070.466797 0)"/>
      <use xlink:href="#DejaVuSans-5d" transform="translate(2109.675781 0)"/>
     </g>
    </g>
    <g id="patch_95">
     <path d="M 60.05 71.394687 
L 80.05 71.394687 
L 80.05 64.394687 
L 60.05 64.394687 
z
" style="fill: #2ca02c"/>
    </g>
    <g id="text_30">
     <!-- Wasmer LLVM [default] -->
     <g transform="translate(88.05 71.394687) scale(0.1 -0.1)">
      <use xlink:href="#DejaVuSans-57"/>
      <use xlink:href="#DejaVuSans-61" transform="translate(92.501953 0)"/>
      <use xlink:href="#DejaVuSans-73" transform="translate(153.78125 0)"/>
      <use xlink:href="#DejaVuSans-6d" transform="translate(205.880859 0)"/>
      <use xlink:href="#DejaVuSans-65" transform="translate(303.292969 0)"/>
      <use xlink:href="#DejaVuSans-72" transform="translate(364.816406 0)"/>
      <use xlink:href="#DejaVuSans-20" transform="translate(405.929688 0)"/>
      <use xlink:href="#DejaVuSans-4c" transform="translate(437.716797 0)"/>
      <use xlink:href="#DejaVuSans-4c" transform="translate(493.429688 0)"/>
      <use xlink:href="#DejaVuSans-56" transform="translate(538.142578 0)"/>
      <use xlink:href="#DejaVuSans-4d" transform="translate(606.550781 0)"/>
      <use xlink:href="#DejaVuSans-20" transform="translate(692.830078 0)"/>
      <use xlink:href="#DejaVuSans-5b" transform="translate(724.617188 0)"/>
      <use xlink:href="#DejaVuSans-64" transform="translate(763.630859 0)"/>
      <use xlink:href="#DejaVuSans-65" transform="translate(827.107422 0)"/>
      <use xlink:href="#DejaVuSans-66" transform="translate(888.630859 0)"/>
      <use xlink:href="#DejaVuSans-61" transform="translate(923.835938 0)"/>
      <use xlink:href="#DejaVuSans-75" transform="translate(985.115234 0)"/>
      <use xlink:href="#DejaVuSans-6c" transform="translate(1048.494141 0)"/>
      <use xlink:href="#DejaVuSans-74" transform="translate(1076.277344 0)"/>
      <use xlink:href="#DejaVuSans-5d" transform="translate(1115.486328 0)"/>
     </g>
    </g>
    <g id="patch_96">
     <path d="M 60.05 86.072812 
L 80.05 86.072812 
L 80.05 79.072812 
L 60.05 79.072812 
z
" style="fill: #d62728"/>
    </g>
    <g id="text_31">
     <!-- Wasmer 7 LLVM (w/ pass-params) [simd128] -->
     <g transform="translate(88.05 86.072812) scale(0.1 -0.1)">
      <defs>
       <path id="DejaVuSans-38" d="M 2034 2216 
Q 1584 2216 1326 1975 
Q 1069 1734 1069 1313 
Q 1069 891 1326 650 
Q 1584 409 2034 409 
Q 2484 409 2743 651 
Q 3003 894 3003 1313 
Q 3003 1734 2745 1975 
Q 2488 2216 2034 2216 
z
M 1403 2484 
Q 997 2584 770 2862 
Q 544 3141 544 3541 
Q 544 4100 942 4425 
Q 1341 4750 2034 4750 
Q 2731 4750 3128 4425 
Q 3525 4100 3525 3541 
Q 3525 3141 3298 2862 
Q 3072 2584 2669 2484 
Q 3125 2378 3379 2068 
Q 3634 1759 3634 1313 
Q 3634 634 3220 271 
Q 2806 -91 2034 -91 
Q 1263 -91 848 271 
Q 434 634 434 1313 
Q 434 1759 690 2068 
Q 947 2378 1403 2484 
z
M 1172 3481 
Q 1172 3119 1398 2916 
Q 1625 2713 2034 2713 
Q 2441 2713 2670 2916 
Q 2900 3119 2900 3481 
Q 2900 3844 2670 4047 
Q 2441 4250 2034 4250 
Q 1625 4250 1398 4047 
Q 1172 3844 1172 3481 
z
" transform="scale(0.015625)"/>
      </defs>
      <use xlink:href="#DejaVuSans-57"/>
      <use xlink:href="#DejaVuSans-61" transform="translate(92.501953 0)"/>
      <use xlink:href="#DejaVuSans-73" transform="translate(153.78125 0)"/>
      <use xlink:href="#DejaVuSans-6d" transform="translate(205.880859 0)"/>
      <use xlink:href="#DejaVuSans-65" transform="translate(303.292969 0)"/>
      <use xlink:href="#DejaVuSans-72" transform="translate(364.816406 0)"/>
      <use xlink:href="#DejaVuSans-20" transform="translate(405.929688 0)"/>
      <use xlink:href="#DejaVuSans-37" transform="translate(437.716797 0)"/>
      <use xlink:href="#DejaVuSans-20" transform="translate(501.339844 0)"/>
      <use xlink:href="#DejaVuSans-4c" transform="translate(533.126953 0)"/>
      <use xlink:href="#DejaVuSans-4c" transform="translate(588.839844 0)"/>
      <use xlink:href="#DejaVuSans-56" transform="translate(633.552734 0)"/>
      <use xlink:href="#DejaVuSans-4d" transform="translate(701.960938 0)"/>
      <use xlink:href="#DejaVuSans-20" transform="translate(788.240234 0)"/>
      <use xlink:href="#DejaVuSans-28" transform="translate(820.027344 0)"/>
      <use xlink:href="#DejaVuSans-77" transform="translate(859.041016 0)"/>
      <use xlink:href="#DejaVuSans-2f" transform="translate(940.828125 0)"/>
      <use xlink:href="#DejaVuSans-20" transform="translate(974.519531 0)"/>
      <use xlink:href="#DejaVuSans-70" transform="translate(1006.306641 0)"/>
      <use xlink:href="#DejaVuSans-61" transform="translate(1069.783203 0)"/>
      <use xlink:href="#DejaVuSans-73" transform="translate(1131.0625 0)"/>
      <use xlink:href="#DejaVuSans-73" transform="translate(1183.162109 0)"/>
      <use xlink:href="#DejaVuSans-2d" transform="translate(1235.261719 0)"/>
      <use xlink:href="#DejaVuSans-70" transform="translate(1271.345703 0)"/>
      <use xlink:href="#DejaVuSans-61" transform="translate(1334.822266 0)"/>
      <use xlink:href="#DejaVuSans-72" transform="translate(1396.101562 0)"/>
      <use xlink:href="#DejaVuSans-61" transform="translate(1437.214844 0)"/>
      <use xlink:href="#DejaVuSans-6d" transform="translate(1498.494141 0)"/>
      <use xlink:href="#DejaVuSans-73" transform="translate(1595.90625 0)"/>
      <use xlink:href="#DejaVuSans-29" transform="translate(1648.005859 0)"/>
      <use xlink:href="#DejaVuSans-20" transform="translate(1687.019531 0)"/>
      <use xlink:href="#DejaVuSans-5b" transform="translate(1718.806641 0)"/>
      <use xlink:href="#DejaVuSans-73" transform="translate(1757.820312 0)"/>
      <use xlink:href="#DejaVuSans-69" transform="translate(1809.919922 0)"/>
      <use xlink:href="#DejaVuSans-6d" transform="translate(1837.703125 0)"/>
      <use xlink:href="#DejaVuSans-64" transform="translate(1935.115234 0)"/>
      <use xlink:href="#DejaVuSans-31" transform="translate(1998.591797 0)"/>
      <use xlink:href="#DejaVuSans-32" transform="translate(2062.214844 0)"/>
      <use xlink:href="#DejaVuSans-38" transform="translate(2125.837891 0)"/>
      <use xlink:href="#DejaVuSans-5d" transform="translate(2189.460938 0)"/>
     </g>
    </g>
    <g id="patch_97">
     <path d="M 60.05 100.750937 
L 80.05 100.750937 
L 80.05 93.750937 
L 60.05 93.750937 
z
" style="fill: #9467bd"/>
    </g>
    <g id="text_32">
     <!-- Wasmer LLVM [simd128] -->
     <g transform="translate(88.05 100.750937) scale(0.1 -0.1)">
      <use xlink:href="#DejaVuSans-57"/>
      <use xlink:href="#DejaVuSans-61" transform="translate(92.501953 0)"/>
      <use xlink:href="#DejaVuSans-73" transform="translate(153.78125 0)"/>
      <use xlink:href="#DejaVuSans-6d" transform="translate(205.880859 0)"/>
      <use xlink:href="#DejaVuSans-65" transform="translate(303.292969 0)"/>
      <use xlink:href="#DejaVuSans-72" transform="translate(364.816406 0)"/>
      <use xlink:href="#DejaVuSans-20" transform="translate(405.929688 0)"/>
      <use xlink:href="#DejaVuSans-4c" transform="translate(437.716797 0)"/>
      <use xlink:href="#DejaVuSans-4c" transform="translate(493.429688 0)"/>
      <use xlink:href="#DejaVuSans-56" transform="translate(538.142578 0)"/>
      <use xlink:href="#DejaVuSans-4d" transform="translate(606.550781 0)"/>
      <use xlink:href="#DejaVuSans-20" transform="translate(692.830078 0)"/>
      <use xlink:href="#DejaVuSans-5b" transform="translate(724.617188 0)"/>
      <use xlink:href="#DejaVuSans-73" transform="translate(763.630859 0)"/>
      <use xlink:href="#DejaVuSans-69" transform="translate(815.730469 0)"/>
      <use xlink:href="#DejaVuSans-6d" transform="translate(843.513672 0)"/>
      <use xlink:href="#DejaVuSans-64" transform="translate(940.925781 0)"/>
      <use xlink:href="#DejaVuSans-31" transform="translate(1004.402344 0)"/>
      <use xlink:href="#DejaVuSans-32" transform="translate(1068.025391 0)"/>
      <use xlink:href="#DejaVuSans-38" transform="translate(1131.648438 0)"/>
      <use xlink:href="#DejaVuSans-5d" transform="translate(1195.271484 0)"/>
     </g>
    </g>
   </g>
  </g>
 </g>
 <defs>
  <clipPath id="p85fc561b74">
   <rect x="51.05" y="25.44" width="802.15" height="303.474967"/>
  </clipPath>
 </defs>
</svg>
