<svg width="216" height="216" viewBox="0 0 216 216" fill="none" xmlns="http://www.w3.org/2000/svg">
<path fill-rule="evenodd" clip-rule="evenodd" d="M105.474 7.68493C107.021 6.77962 108.933 6.77123 110.488 7.66293L176.988 44.9878L167.5 51L108.025 17.7788L31 62.8668V152.618L103 194.325V108.5C103 106.744 103.921 105.116 105.428 104.213L187.928 54.7125C189.472 53.7857 191.396 53.7615 192.964 54.649C194.531 55.5365 195.5 57.1986 195.5 59V155C195.5 156.794 194.539 158.451 192.981 159.341L126.481 197.341V185.824L185.5 152.098V67.831L113 111.331V203C113 204.788 112.046 206.439 110.497 207.332C108.948 208.225 107.041 208.223 105.494 207.327L23.4938 159.827C21.9503 158.932 21 157.284 21 155.5V60C21 58.2244 21.9417 56.5819 23.4741 55.6849L105.474 7.68493Z" fill="black" stroke="black"/>
</svg>
