<?xml version="1.0" encoding="UTF-8" standalone="no"?>
<!DOCTYPE svg PUBLIC "-//W3C//DTD SVG 1.1//EN"
 "http://www.w3.org/Graphics/SVG/1.1/DTD/svg11.dtd">
<!-- Generated by graphviz version 2.47.1 (20210417.1919)
 -->
<!-- Title: dependencies Pages: 1 -->
<svg width="1111pt" height="554pt"
 viewBox="0.00 0.00 1111.00 554.00" xmlns="http://www.w3.org/2000/svg" xmlns:xlink="http://www.w3.org/1999/xlink">
<g id="graph0" class="graph" transform="scale(1 1) rotate(0) translate(4 550)">
<title>dependencies</title>
<polygon fill="white" stroke="transparent" points="-4,4 -4,-550 1107,-550 1107,4 -4,4"/>
<g id="clust1" class="cluster">
<title>cluster_compiler</title>
<polygon fill="none" stroke="brown" points="422,-280 422,-355 1095,-355 1095,-280 422,-280"/>
<text text-anchor="middle" x="758.5" y="-339.8" font-family="Times,serif" font-size="14.00">Compilers</text>
</g>
<g id="clust2" class="cluster">
<title>cluster_engine</title>
<polygon fill="none" stroke="brown" points="8,-280 8,-355 414,-355 414,-280 8,-280"/>
<text text-anchor="middle" x="211" y="-339.8" font-family="Times,serif" font-size="14.00">Engines</text>
</g>
<g id="clust4" class="cluster">
<title>cluster_abi</title>
<polygon fill="none" stroke="brown" points="301,-427 301,-502 612,-502 612,-427 301,-427"/>
<text text-anchor="middle" x="456.5" y="-486.8" font-family="Times,serif" font-size="14.00">Provided ABIs</text>
</g>
<!-- n0 -->
<g id="node1" class="node">
<title>n0</title>
<ellipse fill="none" stroke="orange" cx="523" cy="-381" rx="38.19" ry="18"/>
<text text-anchor="middle" x="523" y="-377.3" font-family="Times,serif" font-size="14.00">wasmer</text>
</g>
<!-- n6 -->
<g id="node4" class="node">
<title>n6</title>
<ellipse fill="none" stroke="orange" cx="306" cy="-306" rx="100.18" ry="18"/>
<text text-anchor="middle" x="306" y="-302.3" font-family="Times,serif" font-size="14.00">wasmer&#45;engine&#45;universal</text>
</g>
<!-- n0&#45;&gt;n6 -->
<g id="edge12" class="edge">
<title>n0&#45;&gt;n6</title>
<path fill="none" stroke="orange" stroke-dasharray="5,2" d="M488.06,-373.25C467.43,-368.88 440.95,-362.59 418,-355 394.49,-347.23 369.06,-336.52 348.38,-327.2"/>
<polygon fill="orange" stroke="orange" points="349.79,-323.99 339.24,-323.02 346.88,-330.36 349.79,-323.99"/>
</g>
<!-- n2 -->
<g id="node13" class="node">
<title>n2</title>
<ellipse fill="none" stroke="orange" cx="982" cy="-306" rx="105.08" ry="18"/>
<text text-anchor="middle" x="982" y="-302.3" font-family="Times,serif" font-size="14.00">wasmer&#45;compiler&#45;cranelift</text>
</g>
<!-- n0&#45;&gt;n2 -->
<g id="edge9" class="edge">
<title>n0&#45;&gt;n2</title>
<path fill="none" stroke="orange" stroke-dasharray="5,2" d="M561.13,-378.78C638.16,-376.05 809.84,-368.62 867,-355 892.67,-348.88 919.98,-337.7 941.54,-327.67"/>
<polygon fill="orange" stroke="orange" points="943.18,-330.76 950.71,-323.31 940.18,-324.44 943.18,-330.76"/>
</g>
<!-- n3 -->
<g id="node14" class="node">
<title>n3</title>
<ellipse fill="none" stroke="orange" cx="523" cy="-306" rx="92.88" ry="18"/>
<text text-anchor="middle" x="523" y="-302.3" font-family="Times,serif" font-size="14.00">wasmer&#45;compiler&#45;llvm</text>
</g>
<!-- n0&#45;&gt;n3 -->
<g id="edge10" class="edge">
<title>n0&#45;&gt;n3</title>
<path fill="none" stroke="orange" stroke-dasharray="5,2" d="M523,-362.7C523,-354.25 523,-343.87 523,-334.37"/>
<polygon fill="orange" stroke="orange" points="526.5,-334.18 523,-324.18 519.5,-334.18 526.5,-334.18"/>
</g>
<!-- n4 -->
<g id="node15" class="node">
<title>n4</title>
<ellipse fill="none" stroke="orange" cx="746" cy="-306" rx="112.38" ry="18"/>
<text text-anchor="middle" x="746" y="-302.3" font-family="Times,serif" font-size="14.00">wasmer&#45;compiler&#45;singlepass</text>
</g>
<!-- n0&#45;&gt;n4 -->
<g id="edge11" class="edge">
<title>n0&#45;&gt;n4</title>
<path fill="none" stroke="orange" stroke-dasharray="5,2" d="M557.33,-372.82C577.27,-368.35 602.77,-362.1 625,-355 650.24,-346.94 677.75,-336.2 700.14,-326.91"/>
<polygon fill="orange" stroke="orange" points="701.53,-330.13 709.41,-323.04 698.83,-323.67 701.53,-330.13"/>
</g>
<!-- n1 -->
<g id="node2" class="node">
<title>n1</title>
<ellipse fill="none" stroke="orange" cx="634" cy="-162" rx="73.39" ry="18"/>
<text text-anchor="middle" x="634" y="-158.3" font-family="Times,serif" font-size="14.00">wasmer&#45;compiler</text>
</g>
<!-- n9 -->
<g id="node7" class="node">
<title>n9</title>
<ellipse fill="none" stroke="orange" cx="634" cy="-90" rx="53.09" ry="18"/>
<text text-anchor="middle" x="634" y="-86.3" font-family="Times,serif" font-size="14.00">wasmer&#45;vm</text>
</g>
<!-- n1&#45;&gt;n9 -->
<g id="edge20" class="edge">
<title>n1&#45;&gt;n9</title>
<path fill="none" stroke="orange" stroke-dasharray="5,2" d="M634,-143.7C634,-135.98 634,-126.71 634,-118.11"/>
<polygon fill="orange" stroke="orange" points="637.5,-118.1 634,-108.1 630.5,-118.1 637.5,-118.1"/>
</g>
<!-- n5 -->
<g id="node3" class="node">
<title>n5</title>
<ellipse fill="none" stroke="orange" cx="306" cy="-234" rx="64.99" ry="18"/>
<text text-anchor="middle" x="306" y="-230.3" font-family="Times,serif" font-size="14.00">wasmer&#45;engine</text>
</g>
<!-- n5&#45;&gt;n1 -->
<g id="edge19" class="edge">
<title>n5&#45;&gt;n1</title>
<path fill="none" stroke="orange" stroke-dasharray="5,2" d="M355.82,-222.37C413.2,-210.12 507.6,-189.98 570.28,-176.6"/>
<polygon fill="orange" stroke="orange" points="571.39,-179.94 580.44,-174.43 569.93,-173.09 571.39,-179.94"/>
</g>
<!-- n6&#45;&gt;n5 -->
<g id="edge17" class="edge">
<title>n6&#45;&gt;n5</title>
<path fill="none" stroke="orange" stroke-dasharray="5,2" d="M306,-287.7C306,-279.98 306,-270.71 306,-262.11"/>
<polygon fill="orange" stroke="orange" points="309.5,-262.1 306,-252.1 302.5,-262.1 309.5,-262.1"/>
</g>
<!-- n7&#45;&gt;n5 -->
<g id="edge18" class="edge">
<title>n7&#45;&gt;n5</title>
<path fill="none" stroke="orange" stroke-dasharray="5,2" d="M144.77,-290.33C177.52,-279.09 222.74,-263.57 256.96,-251.83"/>
<polygon fill="orange" stroke="orange" points="258.42,-255.03 266.75,-248.47 256.15,-248.4 258.42,-255.03"/>
</g>
<!-- n8 -->
<g id="node6" class="node">
<title>n8</title>
<ellipse fill="none" stroke="orange" cx="634" cy="-18" rx="59.59" ry="18"/>
<text text-anchor="middle" x="634" y="-14.3" font-family="Times,serif" font-size="14.00">wasmer&#45;types</text>
</g>
<!-- n9&#45;&gt;n8 -->
<g id="edge21" class="edge">
<title>n9&#45;&gt;n8</title>
<path fill="none" stroke="orange" stroke-dasharray="5,2" d="M634,-71.7C634,-63.98 634,-54.71 634,-46.11"/>
<polygon fill="orange" stroke="orange" points="637.5,-46.1 634,-36.1 630.5,-46.1 637.5,-46.1"/>
</g>
<!-- n10 -->
<g id="node8" class="node">
<title>n10</title>
<ellipse fill="none" stroke="orange" cx="382" cy="-528" rx="59.29" ry="18"/>
<text text-anchor="middle" x="382" y="-524.3" font-family="Times,serif" font-size="14.00">wasmer&#45;c&#45;api</text>
</g>
<!-- n11 -->
<g id="node9" class="node">
<title>n11</title>
<ellipse fill="none" stroke="orange" cx="523" cy="-453" rx="80.69" ry="18"/>
<text text-anchor="middle" x="523" y="-449.3" font-family="Times,serif" font-size="14.00">wasmer&#45;emscripten</text>
</g>
<!-- n10&#45;&gt;n11 -->
<g id="edge5" class="edge">
<title>n10&#45;&gt;n11</title>
<path fill="none" stroke="orange" stroke-dasharray="5,2" d="M412.64,-512.56C419.69,-509.16 427.13,-505.5 434,-502 451,-493.34 469.6,-483.38 485.39,-474.79"/>
<polygon fill="orange" stroke="orange" points="487.22,-477.77 494.32,-469.91 483.87,-471.63 487.22,-477.77"/>
</g>
<!-- n12 -->
<g id="node10" class="node">
<title>n12</title>
<ellipse fill="none" stroke="orange" cx="367" cy="-453" rx="57.69" ry="18"/>
<text text-anchor="middle" x="367" y="-449.3" font-family="Times,serif" font-size="14.00">wasmer&#45;wasi</text>
</g>
<!-- n10&#45;&gt;n12 -->
<g id="edge6" class="edge">
<title>n10&#45;&gt;n12</title>
<path fill="none" stroke="orange" stroke-dasharray="5,2" d="M378.45,-509.7C376.69,-501.15 374.53,-490.65 372.56,-481.07"/>
<polygon fill="orange" stroke="orange" points="375.97,-480.27 370.53,-471.18 369.11,-481.68 375.97,-480.27"/>
</g>
<!-- n11&#45;&gt;n0 -->
<g id="edge7" class="edge">
<title>n11&#45;&gt;n0</title>
<path fill="none" stroke="orange" stroke-dasharray="5,2" d="M523,-434.7C523,-426.98 523,-417.71 523,-409.11"/>
<polygon fill="orange" stroke="orange" points="526.5,-409.1 523,-399.1 519.5,-409.1 526.5,-409.1"/>
</g>
<!-- n12&#45;&gt;n0 -->
<g id="edge8" class="edge">
<title>n12&#45;&gt;n0</title>
<path fill="none" stroke="orange" stroke-dasharray="5,2" d="M398.57,-437.83C424.1,-426.38 460.07,-410.24 486.77,-398.26"/>
<polygon fill="orange" stroke="orange" points="488.46,-401.33 496.15,-394.05 485.6,-394.95 488.46,-401.33"/>
</g>
<!-- n13 -->
<g id="node11" class="node">
<title>n13</title>
<ellipse fill="none" stroke="orange" cx="683" cy="-453" rx="61.99" ry="18"/>
<text text-anchor="middle" x="683" y="-449.3" font-family="Times,serif" font-size="14.00">wasmer&#45;cache</text>
</g>
<!-- n13&#45;&gt;n0 -->
<g id="edge4" class="edge">
<title>n13&#45;&gt;n0</title>
<path fill="none" stroke="orange" stroke-dasharray="5,2" d="M650.24,-437.67C623.82,-426.11 586.7,-409.87 559.37,-397.91"/>
<polygon fill="orange" stroke="orange" points="560.71,-394.68 550.14,-393.87 557.9,-401.09 560.71,-394.68"/>
</g>
<!-- n14 -->
<g id="node12" class="node">
<title>n14</title>
<ellipse fill="none" stroke="orange" cx="523" cy="-528" rx="50.09" ry="18"/>
<text text-anchor="middle" x="523" y="-524.3" font-family="Times,serif" font-size="14.00">wasmer&#45;cli</text>
</g>
<!-- n14&#45;&gt;n11 -->
<g id="edge3" class="edge">
<title>n14&#45;&gt;n11</title>
<path fill="none" stroke="orange" stroke-dasharray="5,2" d="M523,-509.7C523,-501.25 523,-490.87 523,-481.37"/>
<polygon fill="orange" stroke="orange" points="526.5,-481.18 523,-471.18 519.5,-481.18 526.5,-481.18"/>
</g>
<!-- n14&#45;&gt;n12 -->
<g id="edge2" class="edge">
<title>n14&#45;&gt;n12</title>
<path fill="none" stroke="orange" stroke-dasharray="5,2" d="M480.19,-518.44C464.87,-514.52 447.75,-509.12 433,-502 419.04,-495.26 404.95,-485.51 393.4,-476.55"/>
<polygon fill="orange" stroke="orange" points="395.47,-473.73 385.47,-470.23 391.11,-479.2 395.47,-473.73"/>
</g>
<!-- n14&#45;&gt;n13 -->
<g id="edge1" class="edge">
<title>n14&#45;&gt;n13</title>
<path fill="none" stroke="orange" stroke-dasharray="5,2" d="M566.27,-518.78C582.34,-514.85 600.44,-509.37 616,-502 630.15,-495.3 644.45,-485.56 656.18,-476.6"/>
<polygon fill="orange" stroke="orange" points="658.53,-479.2 664.23,-470.26 654.21,-473.7 658.53,-479.2"/>
</g>
<!-- n2&#45;&gt;n1 -->
<g id="edge14" class="edge">
<title>n2&#45;&gt;n1</title>
<path fill="none" stroke="orange" stroke-dasharray="5,2" d="M943.09,-289.12C878.21,-262.65 748.27,-209.63 679.35,-181.5"/>
<polygon fill="orange" stroke="orange" points="680.62,-178.24 670.04,-177.71 677.98,-184.72 680.62,-178.24"/>
</g>
<!-- n3&#45;&gt;n1 -->
<g id="edge15" class="edge">
<title>n3&#45;&gt;n1</title>
<path fill="none" stroke="orange" stroke-dasharray="5,2" d="M536.17,-288.15C555.61,-263.28 592.12,-216.57 614.62,-187.79"/>
<polygon fill="orange" stroke="orange" points="617.45,-189.86 620.85,-179.82 611.93,-185.55 617.45,-189.86"/>
</g>
<!-- n4&#45;&gt;n1 -->
<g id="edge16" class="edge">
<title>n4&#45;&gt;n1</title>
<path fill="none" stroke="orange" stroke-dasharray="5,2" d="M732.49,-287.87C712.79,-262.9 676.08,-216.35 653.46,-187.68"/>
<polygon fill="orange" stroke="orange" points="656.15,-185.43 647.21,-179.75 650.65,-189.77 656.15,-185.43"/>
</g>
</g>
</svg>
