<?xml version="1.0" encoding="UTF-8" standalone="no"?>
<!DOCTYPE svg PUBLIC "-//W3C//DTD SVG 1.1//EN"
 "http://www.w3.org/Graphics/SVG/1.1/DTD/svg11.dtd">
<!-- Generated by graphviz version 2.47.1 (20210417.1919)
 -->
<!-- Title: dependencies Pages: 1 -->
<svg width="1117pt" height="554pt"
 viewBox="0.00 0.00 1117.00 554.00" xmlns="http://www.w3.org/2000/svg" xmlns:xlink="http://www.w3.org/1999/xlink">
<g id="graph0" class="graph" transform="scale(1 1) rotate(0) translate(4 550)">
<title>dependencies</title>
<polygon fill="white" stroke="transparent" points="-4,4 -4,-550 1113,-550 1113,4 -4,4"/>
<g id="clust1" class="cluster">
<title>cluster_compiler</title>
<polygon fill="none" stroke="brown" points="428,-280 428,-355 1101,-355 1101,-280 428,-280"/>
<text text-anchor="middle" x="764.5" y="-339.8" font-family="Times,serif" font-size="14.00">Compilers</text>
</g>
<g id="clust2" class="cluster">
<title>cluster_engine</title>
<polygon fill="none" stroke="brown" points="8,-280 8,-355 420,-355 420,-280 8,-280"/>
<text text-anchor="middle" x="214" y="-339.8" font-family="Times,serif" font-size="14.00">Engines</text>
</g>
<g id="clust4" class="cluster">
<title>cluster_abi</title>
<polygon fill="none" stroke="brown" points="307,-427 307,-502 618,-502 618,-427 307,-427"/>
<text text-anchor="middle" x="462.5" y="-486.8" font-family="Times,serif" font-size="14.00">Provided ABIs</text>
</g>
<!-- n0 -->
<g id="node1" class="node">
<title>n0</title>
<ellipse fill="none" stroke="orange" cx="529" cy="-381" rx="38.19" ry="18"/>
<text text-anchor="middle" x="529" y="-377.3" font-family="Times,serif" font-size="14.00">wasmer</text>
</g>
<!-- n6 -->
<g id="node4" class="node">
<title>n6</title>
<ellipse fill="none" stroke="orange" cx="312" cy="-306" rx="100.18" ry="18"/>
<text text-anchor="middle" x="312" y="-302.3" font-family="Times,serif" font-size="14.00">wasmer&#45;engine&#45;universal</text>
</g>
<!-- n0&#45;&gt;n6 -->
<g id="edge12" class="edge">
<title>n0&#45;&gt;n6</title>
<path fill="none" stroke="orange" stroke-dasharray="5,2" d="M494.06,-373.25C473.43,-368.88 446.95,-362.59 424,-355 400.49,-347.23 375.06,-336.52 354.38,-327.2"/>
<polygon fill="orange" stroke="orange" points="355.79,-323.99 345.24,-323.02 352.88,-330.36 355.79,-323.99"/>
</g>
<!-- n7 -->
<g id="node5" class="node">
<title>n7</title>
<ellipse fill="none" stroke="orange" cx="105" cy="-306" rx="89.08" ry="18"/>
<text text-anchor="middle" x="105" y="-302.3" font-family="Times,serif" font-size="14.00">wasmer&#45;engine&#45;native</text>
</g>
<!-- n0&#45;&gt;n7 -->
<g id="edge13" class="edge">
<title>n0&#45;&gt;n7</title>
<path fill="none" stroke="orange" stroke-dasharray="5,2" d="M490.82,-378.88C416.77,-376.4 256.26,-369.51 203,-355 181.21,-349.06 158.46,-338.25 140.37,-328.38"/>
<polygon fill="orange" stroke="orange" points="141.8,-325.17 131.37,-323.34 138.38,-331.28 141.8,-325.17"/>
</g>
<!-- n2 -->
<g id="node13" class="node">
<title>n2</title>
<ellipse fill="none" stroke="orange" cx="988" cy="-306" rx="105.08" ry="18"/>
<text text-anchor="middle" x="988" y="-302.3" font-family="Times,serif" font-size="14.00">wasmer&#45;compiler&#45;cranelift</text>
</g>
<!-- n0&#45;&gt;n2 -->
<g id="edge9" class="edge">
<title>n0&#45;&gt;n2</title>
<path fill="none" stroke="orange" stroke-dasharray="5,2" d="M567.13,-378.78C644.16,-376.05 815.84,-368.62 873,-355 898.67,-348.88 925.98,-337.7 947.54,-327.67"/>
<polygon fill="orange" stroke="orange" points="949.18,-330.76 956.71,-323.31 946.18,-324.44 949.18,-330.76"/>
</g>
<!-- n3 -->
<g id="node14" class="node">
<title>n3</title>
<ellipse fill="none" stroke="orange" cx="529" cy="-306" rx="92.88" ry="18"/>
<text text-anchor="middle" x="529" y="-302.3" font-family="Times,serif" font-size="14.00">wasmer&#45;compiler&#45;llvm</text>
</g>
<!-- n0&#45;&gt;n3 -->
<g id="edge10" class="edge">
<title>n0&#45;&gt;n3</title>
<path fill="none" stroke="orange" stroke-dasharray="5,2" d="M529,-362.7C529,-354.25 529,-343.87 529,-334.37"/>
<polygon fill="orange" stroke="orange" points="532.5,-334.18 529,-324.18 525.5,-334.18 532.5,-334.18"/>
</g>
<!-- n4 -->
<g id="node15" class="node">
<title>n4</title>
<ellipse fill="none" stroke="orange" cx="752" cy="-306" rx="112.38" ry="18"/>
<text text-anchor="middle" x="752" y="-302.3" font-family="Times,serif" font-size="14.00">wasmer&#45;compiler&#45;singlepass</text>
</g>
<!-- n0&#45;&gt;n4 -->
<g id="edge11" class="edge">
<title>n0&#45;&gt;n4</title>
<path fill="none" stroke="orange" stroke-dasharray="5,2" d="M563.33,-372.82C583.27,-368.35 608.77,-362.1 631,-355 656.24,-346.94 683.75,-336.2 706.14,-326.91"/>
<polygon fill="orange" stroke="orange" points="707.53,-330.13 715.41,-323.04 704.83,-323.67 707.53,-330.13"/>
</g>
<!-- n1 -->
<g id="node2" class="node">
<title>n1</title>
<ellipse fill="none" stroke="orange" cx="640" cy="-162" rx="73.39" ry="18"/>
<text text-anchor="middle" x="640" y="-158.3" font-family="Times,serif" font-size="14.00">wasmer&#45;compiler</text>
</g>
<!-- n9 -->
<g id="node7" class="node">
<title>n9</title>
<ellipse fill="none" stroke="orange" cx="640" cy="-90" rx="53.09" ry="18"/>
<text text-anchor="middle" x="640" y="-86.3" font-family="Times,serif" font-size="14.00">wasmer&#45;vm</text>
</g>
<!-- n1&#45;&gt;n9 -->
<g id="edge20" class="edge">
<title>n1&#45;&gt;n9</title>
<path fill="none" stroke="orange" stroke-dasharray="5,2" d="M640,-143.7C640,-135.98 640,-126.71 640,-118.11"/>
<polygon fill="orange" stroke="orange" points="643.5,-118.1 640,-108.1 636.5,-118.1 643.5,-118.1"/>
</g>
<!-- n5 -->
<g id="node3" class="node">
<title>n5</title>
<ellipse fill="none" stroke="orange" cx="312" cy="-234" rx="64.99" ry="18"/>
<text text-anchor="middle" x="312" y="-230.3" font-family="Times,serif" font-size="14.00">wasmer&#45;engine</text>
</g>
<!-- n5&#45;&gt;n1 -->
<g id="edge19" class="edge">
<title>n5&#45;&gt;n1</title>
<path fill="none" stroke="orange" stroke-dasharray="5,2" d="M361.82,-222.37C419.2,-210.12 513.6,-189.98 576.28,-176.6"/>
<polygon fill="orange" stroke="orange" points="577.39,-179.94 586.44,-174.43 575.93,-173.09 577.39,-179.94"/>
</g>
<!-- n6&#45;&gt;n5 -->
<g id="edge17" class="edge">
<title>n6&#45;&gt;n5</title>
<path fill="none" stroke="orange" stroke-dasharray="5,2" d="M312,-287.7C312,-279.98 312,-270.71 312,-262.11"/>
<polygon fill="orange" stroke="orange" points="315.5,-262.1 312,-252.1 308.5,-262.1 315.5,-262.1"/>
</g>
<!-- n7&#45;&gt;n5 -->
<g id="edge18" class="edge">
<title>n7&#45;&gt;n5</title>
<path fill="none" stroke="orange" stroke-dasharray="5,2" d="M148.65,-290.24C182.01,-278.96 228,-263.4 262.69,-251.67"/>
<polygon fill="orange" stroke="orange" points="264.26,-254.84 272.61,-248.32 262.02,-248.21 264.26,-254.84"/>
</g>
<!-- n8 -->
<g id="node6" class="node">
<title>n8</title>
<ellipse fill="none" stroke="orange" cx="640" cy="-18" rx="59.59" ry="18"/>
<text text-anchor="middle" x="640" y="-14.3" font-family="Times,serif" font-size="14.00">wasmer&#45;types</text>
</g>
<!-- n9&#45;&gt;n8 -->
<g id="edge21" class="edge">
<title>n9&#45;&gt;n8</title>
<path fill="none" stroke="orange" stroke-dasharray="5,2" d="M640,-71.7C640,-63.98 640,-54.71 640,-46.11"/>
<polygon fill="orange" stroke="orange" points="643.5,-46.1 640,-36.1 636.5,-46.1 643.5,-46.1"/>
</g>
<!-- n10 -->
<g id="node8" class="node">
<title>n10</title>
<ellipse fill="none" stroke="orange" cx="388" cy="-528" rx="59.29" ry="18"/>
<text text-anchor="middle" x="388" y="-524.3" font-family="Times,serif" font-size="14.00">wasmer&#45;c&#45;api</text>
</g>
<!-- n11 -->
<g id="node9" class="node">
<title>n11</title>
<ellipse fill="none" stroke="orange" cx="529" cy="-453" rx="80.69" ry="18"/>
<text text-anchor="middle" x="529" y="-449.3" font-family="Times,serif" font-size="14.00">wasmer&#45;emscripten</text>
</g>
<!-- n10&#45;&gt;n11 -->
<g id="edge5" class="edge">
<title>n10&#45;&gt;n11</title>
<path fill="none" stroke="orange" stroke-dasharray="5,2" d="M418.64,-512.56C425.69,-509.16 433.13,-505.5 440,-502 457,-493.34 475.6,-483.38 491.39,-474.79"/>
<polygon fill="orange" stroke="orange" points="493.22,-477.77 500.32,-469.91 489.87,-471.63 493.22,-477.77"/>
</g>
<!-- n12 -->
<g id="node10" class="node">
<title>n12</title>
<ellipse fill="none" stroke="orange" cx="373" cy="-453" rx="57.69" ry="18"/>
<text text-anchor="middle" x="373" y="-449.3" font-family="Times,serif" font-size="14.00">wasmer&#45;wasi</text>
</g>
<!-- n10&#45;&gt;n12 -->
<g id="edge6" class="edge">
<title>n10&#45;&gt;n12</title>
<path fill="none" stroke="orange" stroke-dasharray="5,2" d="M384.45,-509.7C382.69,-501.15 380.53,-490.65 378.56,-481.07"/>
<polygon fill="orange" stroke="orange" points="381.97,-480.27 376.53,-471.18 375.11,-481.68 381.97,-480.27"/>
</g>
<!-- n11&#45;&gt;n0 -->
<g id="edge7" class="edge">
<title>n11&#45;&gt;n0</title>
<path fill="none" stroke="orange" stroke-dasharray="5,2" d="M529,-434.7C529,-426.98 529,-417.71 529,-409.11"/>
<polygon fill="orange" stroke="orange" points="532.5,-409.1 529,-399.1 525.5,-409.1 532.5,-409.1"/>
</g>
<!-- n12&#45;&gt;n0 -->
<g id="edge8" class="edge">
<title>n12&#45;&gt;n0</title>
<path fill="none" stroke="orange" stroke-dasharray="5,2" d="M404.57,-437.83C430.1,-426.38 466.07,-410.24 492.77,-398.26"/>
<polygon fill="orange" stroke="orange" points="494.46,-401.33 502.15,-394.05 491.6,-394.95 494.46,-401.33"/>
</g>
<!-- n13 -->
<g id="node11" class="node">
<title>n13</title>
<ellipse fill="none" stroke="orange" cx="689" cy="-453" rx="61.99" ry="18"/>
<text text-anchor="middle" x="689" y="-449.3" font-family="Times,serif" font-size="14.00">wasmer&#45;cache</text>
</g>
<!-- n13&#45;&gt;n0 -->
<g id="edge4" class="edge">
<title>n13&#45;&gt;n0</title>
<path fill="none" stroke="orange" stroke-dasharray="5,2" d="M656.24,-437.67C629.82,-426.11 592.7,-409.87 565.37,-397.91"/>
<polygon fill="orange" stroke="orange" points="566.71,-394.68 556.14,-393.87 563.9,-401.09 566.71,-394.68"/>
</g>
<!-- n14 -->
<g id="node12" class="node">
<title>n14</title>
<ellipse fill="none" stroke="orange" cx="529" cy="-528" rx="50.09" ry="18"/>
<text text-anchor="middle" x="529" y="-524.3" font-family="Times,serif" font-size="14.00">wasmer&#45;cli</text>
</g>
<!-- n14&#45;&gt;n11 -->
<g id="edge3" class="edge">
<title>n14&#45;&gt;n11</title>
<path fill="none" stroke="orange" stroke-dasharray="5,2" d="M529,-509.7C529,-501.25 529,-490.87 529,-481.37"/>
<polygon fill="orange" stroke="orange" points="532.5,-481.18 529,-471.18 525.5,-481.18 532.5,-481.18"/>
</g>
<!-- n14&#45;&gt;n12 -->
<g id="edge2" class="edge">
<title>n14&#45;&gt;n12</title>
<path fill="none" stroke="orange" stroke-dasharray="5,2" d="M486.19,-518.44C470.87,-514.52 453.75,-509.12 439,-502 425.04,-495.26 410.95,-485.51 399.4,-476.55"/>
<polygon fill="orange" stroke="orange" points="401.47,-473.73 391.47,-470.23 397.11,-479.2 401.47,-473.73"/>
</g>
<!-- n14&#45;&gt;n13 -->
<g id="edge1" class="edge">
<title>n14&#45;&gt;n13</title>
<path fill="none" stroke="orange" stroke-dasharray="5,2" d="M572.27,-518.78C588.34,-514.85 606.44,-509.37 622,-502 636.15,-495.3 650.45,-485.56 662.18,-476.6"/>
<polygon fill="orange" stroke="orange" points="664.53,-479.2 670.23,-470.26 660.21,-473.7 664.53,-479.2"/>
</g>
<!-- n2&#45;&gt;n1 -->
<g id="edge14" class="edge">
<title>n2&#45;&gt;n1</title>
<path fill="none" stroke="orange" stroke-dasharray="5,2" d="M949.09,-289.12C884.21,-262.65 754.27,-209.63 685.35,-181.5"/>
<polygon fill="orange" stroke="orange" points="686.62,-178.24 676.04,-177.71 683.98,-184.72 686.62,-178.24"/>
</g>
<!-- n3&#45;&gt;n1 -->
<g id="edge15" class="edge">
<title>n3&#45;&gt;n1</title>
<path fill="none" stroke="orange" stroke-dasharray="5,2" d="M542.17,-288.15C561.61,-263.28 598.12,-216.57 620.62,-187.79"/>
<polygon fill="orange" stroke="orange" points="623.45,-189.86 626.85,-179.82 617.93,-185.55 623.45,-189.86"/>
</g>
<!-- n4&#45;&gt;n1 -->
<g id="edge16" class="edge">
<title>n4&#45;&gt;n1</title>
<path fill="none" stroke="orange" stroke-dasharray="5,2" d="M738.49,-287.87C718.79,-262.9 682.08,-216.35 659.46,-187.68"/>
<polygon fill="orange" stroke="orange" points="662.15,-185.43 653.21,-179.75 656.65,-189.77 662.15,-185.43"/>
</g>
</g>
</svg>
