<?xml version="1.0" encoding="UTF-8" standalone="no"?>
<!DOCTYPE svg PUBLIC "-//W3C//DTD SVG 1.1//EN"
 "http://www.w3.org/Graphics/SVG/1.1/DTD/svg11.dtd">
<!-- Generated by graphviz version 2.47.1 (20210417.1919)
 -->
<!-- Title: dependencies Pages: 1 -->
<svg width="1169pt" height="554pt"
 viewBox="0.00 0.00 1169.00 554.00" xmlns="http://www.w3.org/2000/svg" xmlns:xlink="http://www.w3.org/1999/xlink">
<g id="graph0" class="graph" transform="scale(1 1) rotate(0) translate(4 550)">
<title>dependencies</title>
<polygon fill="white" stroke="transparent" points="-4,4 -4,-550 1165,-550 1165,4 -4,4"/>
<g id="clust1" class="cluster">
<title>cluster_compiler</title>
<polygon fill="none" stroke="brown" points="480,-280 480,-355 1153,-355 1153,-280 480,-280"/>
<text text-anchor="middle" x="816.5" y="-339.8" font-family="Times,serif" font-size="14.00">Compilers</text>
</g>
<g id="clust2" class="cluster">
<title>cluster_engine</title>
<polygon fill="none" stroke="brown" points="8,-280 8,-355 472,-355 472,-280 8,-280"/>
<text text-anchor="middle" x="240" y="-339.8" font-family="Times,serif" font-size="14.00">Engines</text>
</g>
<g id="clust4" class="cluster">
<title>cluster_abi</title>
<polygon fill="none" stroke="brown" points="359,-427 359,-502 670,-502 670,-427 359,-427"/>
<text text-anchor="middle" x="514.5" y="-486.8" font-family="Times,serif" font-size="14.00">Provided ABIs</text>
</g>
<!-- n0 -->
<g id="node1" class="node">
<title>n0</title>
<ellipse fill="none" stroke="orange" cx="581" cy="-381" rx="38.19" ry="18"/>
<text text-anchor="middle" x="581" y="-377.3" font-family="Times,serif" font-size="14.00">wasmer</text>
</g>
<!-- n6 -->
<g id="node4" class="node">
<title>n6</title>
<ellipse fill="none" stroke="orange" cx="364" cy="-306" rx="100.18" ry="18"/>
<text text-anchor="middle" x="364" y="-302.3" font-family="Times,serif" font-size="14.00">wasmer&#45;engine&#45;universal</text>
</g>
<!-- n0&#45;&gt;n6 -->
<g id="edge12" class="edge">
<title>n0&#45;&gt;n6</title>
<path fill="none" stroke="orange" stroke-dasharray="5,2" d="M546.06,-373.25C525.43,-368.88 498.95,-362.59 476,-355 452.49,-347.23 427.06,-336.52 406.38,-327.2"/>
<polygon fill="orange" stroke="orange" points="407.79,-323.99 397.24,-323.02 404.88,-330.36 407.79,-323.99"/>
</g>
<!-- n7 -->
<g id="node5" class="node">
<title>n7</title>
<ellipse fill="none" stroke="orange" cx="131" cy="-306" rx="115.08" ry="18"/>
<text text-anchor="middle" x="131" y="-302.3" font-family="Times,serif" font-size="14.00">wasmer&#45;engine&#45;shared&#45;object</text>
</g>
<!-- n0&#45;&gt;n7 -->
<g id="edge13" class="edge">
<title>n0&#45;&gt;n7</title>
<path fill="none" stroke="orange" stroke-dasharray="5,2" d="M542.32,-380.66C480.71,-380.9 356.86,-378.09 255,-355 227.3,-348.72 197.58,-337.39 174.18,-327.31"/>
<polygon fill="orange" stroke="orange" points="175.46,-324.05 164.89,-323.23 172.64,-330.46 175.46,-324.05"/>
</g>
<!-- n2 -->
<g id="node13" class="node">
<title>n2</title>
<ellipse fill="none" stroke="orange" cx="1040" cy="-306" rx="105.08" ry="18"/>
<text text-anchor="middle" x="1040" y="-302.3" font-family="Times,serif" font-size="14.00">wasmer&#45;compiler&#45;cranelift</text>
</g>
<!-- n0&#45;&gt;n2 -->
<g id="edge9" class="edge">
<title>n0&#45;&gt;n2</title>
<path fill="none" stroke="orange" stroke-dasharray="5,2" d="M619.13,-378.78C696.16,-376.05 867.84,-368.62 925,-355 950.67,-348.88 977.98,-337.7 999.54,-327.67"/>
<polygon fill="orange" stroke="orange" points="1001.18,-330.76 1008.71,-323.31 998.18,-324.44 1001.18,-330.76"/>
</g>
<!-- n3 -->
<g id="node14" class="node">
<title>n3</title>
<ellipse fill="none" stroke="orange" cx="581" cy="-306" rx="92.88" ry="18"/>
<text text-anchor="middle" x="581" y="-302.3" font-family="Times,serif" font-size="14.00">wasmer&#45;compiler&#45;llvm</text>
</g>
<!-- n0&#45;&gt;n3 -->
<g id="edge10" class="edge">
<title>n0&#45;&gt;n3</title>
<path fill="none" stroke="orange" stroke-dasharray="5,2" d="M581,-362.7C581,-354.25 581,-343.87 581,-334.37"/>
<polygon fill="orange" stroke="orange" points="584.5,-334.18 581,-324.18 577.5,-334.18 584.5,-334.18"/>
</g>
<!-- n4 -->
<g id="node15" class="node">
<title>n4</title>
<ellipse fill="none" stroke="orange" cx="804" cy="-306" rx="112.38" ry="18"/>
<text text-anchor="middle" x="804" y="-302.3" font-family="Times,serif" font-size="14.00">wasmer&#45;compiler&#45;singlepass</text>
</g>
<!-- n0&#45;&gt;n4 -->
<g id="edge11" class="edge">
<title>n0&#45;&gt;n4</title>
<path fill="none" stroke="orange" stroke-dasharray="5,2" d="M615.33,-372.82C635.27,-368.35 660.77,-362.1 683,-355 708.24,-346.94 735.75,-336.2 758.14,-326.91"/>
<polygon fill="orange" stroke="orange" points="759.53,-330.13 767.41,-323.04 756.83,-323.67 759.53,-330.13"/>
</g>
<!-- n1 -->
<g id="node2" class="node">
<title>n1</title>
<ellipse fill="none" stroke="orange" cx="692" cy="-162" rx="73.39" ry="18"/>
<text text-anchor="middle" x="692" y="-158.3" font-family="Times,serif" font-size="14.00">wasmer&#45;compiler</text>
</g>
<!-- n9 -->
<g id="node7" class="node">
<title>n9</title>
<ellipse fill="none" stroke="orange" cx="692" cy="-90" rx="53.09" ry="18"/>
<text text-anchor="middle" x="692" y="-86.3" font-family="Times,serif" font-size="14.00">wasmer&#45;vm</text>
</g>
<!-- n1&#45;&gt;n9 -->
<g id="edge20" class="edge">
<title>n1&#45;&gt;n9</title>
<path fill="none" stroke="orange" stroke-dasharray="5,2" d="M692,-143.7C692,-135.98 692,-126.71 692,-118.11"/>
<polygon fill="orange" stroke="orange" points="695.5,-118.1 692,-108.1 688.5,-118.1 695.5,-118.1"/>
</g>
<!-- n5 -->
<g id="node3" class="node">
<title>n5</title>
<ellipse fill="none" stroke="orange" cx="364" cy="-234" rx="64.99" ry="18"/>
<text text-anchor="middle" x="364" y="-230.3" font-family="Times,serif" font-size="14.00">wasmer&#45;engine</text>
</g>
<!-- n5&#45;&gt;n1 -->
<g id="edge19" class="edge">
<title>n5&#45;&gt;n1</title>
<path fill="none" stroke="orange" stroke-dasharray="5,2" d="M413.82,-222.37C471.2,-210.12 565.6,-189.98 628.28,-176.6"/>
<polygon fill="orange" stroke="orange" points="629.39,-179.94 638.44,-174.43 627.93,-173.09 629.39,-179.94"/>
</g>
<!-- n6&#45;&gt;n5 -->
<g id="edge17" class="edge">
<title>n6&#45;&gt;n5</title>
<path fill="none" stroke="orange" stroke-dasharray="5,2" d="M364,-287.7C364,-279.98 364,-270.71 364,-262.11"/>
<polygon fill="orange" stroke="orange" points="367.5,-262.1 364,-252.1 360.5,-262.1 367.5,-262.1"/>
</g>
<!-- n7&#45;&gt;n5 -->
<g id="edge18" class="edge">
<title>n7&#45;&gt;n5</title>
<path fill="none" stroke="orange" stroke-dasharray="5,2" d="M181.56,-289.81C220.18,-278.21 273.21,-262.28 312.15,-250.58"/>
<polygon fill="orange" stroke="orange" points="313.16,-253.93 321.73,-247.7 311.14,-247.23 313.16,-253.93"/>
</g>
<!-- n8 -->
<g id="node6" class="node">
<title>n8</title>
<ellipse fill="none" stroke="orange" cx="692" cy="-18" rx="59.59" ry="18"/>
<text text-anchor="middle" x="692" y="-14.3" font-family="Times,serif" font-size="14.00">wasmer&#45;types</text>
</g>
<!-- n9&#45;&gt;n8 -->
<g id="edge21" class="edge">
<title>n9&#45;&gt;n8</title>
<path fill="none" stroke="orange" stroke-dasharray="5,2" d="M692,-71.7C692,-63.98 692,-54.71 692,-46.11"/>
<polygon fill="orange" stroke="orange" points="695.5,-46.1 692,-36.1 688.5,-46.1 695.5,-46.1"/>
</g>
<!-- n10 -->
<g id="node8" class="node">
<title>n10</title>
<ellipse fill="none" stroke="orange" cx="440" cy="-528" rx="59.29" ry="18"/>
<text text-anchor="middle" x="440" y="-524.3" font-family="Times,serif" font-size="14.00">wasmer&#45;c&#45;api</text>
</g>
<!-- n11 -->
<g id="node9" class="node">
<title>n11</title>
<ellipse fill="none" stroke="orange" cx="581" cy="-453" rx="80.69" ry="18"/>
<text text-anchor="middle" x="581" y="-449.3" font-family="Times,serif" font-size="14.00">wasmer&#45;emscripten</text>
</g>
<!-- n10&#45;&gt;n11 -->
<g id="edge5" class="edge">
<title>n10&#45;&gt;n11</title>
<path fill="none" stroke="orange" stroke-dasharray="5,2" d="M470.64,-512.56C477.69,-509.16 485.13,-505.5 492,-502 509,-493.34 527.6,-483.38 543.39,-474.79"/>
<polygon fill="orange" stroke="orange" points="545.22,-477.77 552.32,-469.91 541.87,-471.63 545.22,-477.77"/>
</g>
<!-- n12 -->
<g id="node10" class="node">
<title>n12</title>
<ellipse fill="none" stroke="orange" cx="425" cy="-453" rx="57.69" ry="18"/>
<text text-anchor="middle" x="425" y="-449.3" font-family="Times,serif" font-size="14.00">wasmer&#45;wasi</text>
</g>
<!-- n10&#45;&gt;n12 -->
<g id="edge6" class="edge">
<title>n10&#45;&gt;n12</title>
<path fill="none" stroke="orange" stroke-dasharray="5,2" d="M436.45,-509.7C434.69,-501.15 432.53,-490.65 430.56,-481.07"/>
<polygon fill="orange" stroke="orange" points="433.97,-480.27 428.53,-471.18 427.11,-481.68 433.97,-480.27"/>
</g>
<!-- n11&#45;&gt;n0 -->
<g id="edge7" class="edge">
<title>n11&#45;&gt;n0</title>
<path fill="none" stroke="orange" stroke-dasharray="5,2" d="M581,-434.7C581,-426.98 581,-417.71 581,-409.11"/>
<polygon fill="orange" stroke="orange" points="584.5,-409.1 581,-399.1 577.5,-409.1 584.5,-409.1"/>
</g>
<!-- n12&#45;&gt;n0 -->
<g id="edge8" class="edge">
<title>n12&#45;&gt;n0</title>
<path fill="none" stroke="orange" stroke-dasharray="5,2" d="M456.57,-437.83C482.1,-426.38 518.07,-410.24 544.77,-398.26"/>
<polygon fill="orange" stroke="orange" points="546.46,-401.33 554.15,-394.05 543.6,-394.95 546.46,-401.33"/>
</g>
<!-- n13 -->
<g id="node11" class="node">
<title>n13</title>
<ellipse fill="none" stroke="orange" cx="741" cy="-453" rx="61.99" ry="18"/>
<text text-anchor="middle" x="741" y="-449.3" font-family="Times,serif" font-size="14.00">wasmer&#45;cache</text>
</g>
<!-- n13&#45;&gt;n0 -->
<g id="edge4" class="edge">
<title>n13&#45;&gt;n0</title>
<path fill="none" stroke="orange" stroke-dasharray="5,2" d="M708.24,-437.67C681.82,-426.11 644.7,-409.87 617.37,-397.91"/>
<polygon fill="orange" stroke="orange" points="618.71,-394.68 608.14,-393.87 615.9,-401.09 618.71,-394.68"/>
</g>
<!-- n14 -->
<g id="node12" class="node">
<title>n14</title>
<ellipse fill="none" stroke="orange" cx="581" cy="-528" rx="50.09" ry="18"/>
<text text-anchor="middle" x="581" y="-524.3" font-family="Times,serif" font-size="14.00">wasmer&#45;cli</text>
</g>
<!-- n14&#45;&gt;n11 -->
<g id="edge3" class="edge">
<title>n14&#45;&gt;n11</title>
<path fill="none" stroke="orange" stroke-dasharray="5,2" d="M581,-509.7C581,-501.25 581,-490.87 581,-481.37"/>
<polygon fill="orange" stroke="orange" points="584.5,-481.18 581,-471.18 577.5,-481.18 584.5,-481.18"/>
</g>
<!-- n14&#45;&gt;n12 -->
<g id="edge2" class="edge">
<title>n14&#45;&gt;n12</title>
<path fill="none" stroke="orange" stroke-dasharray="5,2" d="M538.19,-518.44C522.87,-514.52 505.75,-509.12 491,-502 477.04,-495.26 462.95,-485.51 451.4,-476.55"/>
<polygon fill="orange" stroke="orange" points="453.47,-473.73 443.47,-470.23 449.11,-479.2 453.47,-473.73"/>
</g>
<!-- n14&#45;&gt;n13 -->
<g id="edge1" class="edge">
<title>n14&#45;&gt;n13</title>
<path fill="none" stroke="orange" stroke-dasharray="5,2" d="M624.27,-518.78C640.34,-514.85 658.44,-509.37 674,-502 688.15,-495.3 702.45,-485.56 714.18,-476.6"/>
<polygon fill="orange" stroke="orange" points="716.53,-479.2 722.23,-470.26 712.21,-473.7 716.53,-479.2"/>
</g>
<!-- n2&#45;&gt;n1 -->
<g id="edge14" class="edge">
<title>n2&#45;&gt;n1</title>
<path fill="none" stroke="orange" stroke-dasharray="5,2" d="M1001.09,-289.12C936.21,-262.65 806.27,-209.63 737.35,-181.5"/>
<polygon fill="orange" stroke="orange" points="738.62,-178.24 728.04,-177.71 735.98,-184.72 738.62,-178.24"/>
</g>
<!-- n3&#45;&gt;n1 -->
<g id="edge15" class="edge">
<title>n3&#45;&gt;n1</title>
<path fill="none" stroke="orange" stroke-dasharray="5,2" d="M594.17,-288.15C613.61,-263.28 650.12,-216.57 672.62,-187.79"/>
<polygon fill="orange" stroke="orange" points="675.45,-189.86 678.85,-179.82 669.93,-185.55 675.45,-189.86"/>
</g>
<!-- n4&#45;&gt;n1 -->
<g id="edge16" class="edge">
<title>n4&#45;&gt;n1</title>
<path fill="none" stroke="orange" stroke-dasharray="5,2" d="M790.49,-287.87C770.79,-262.9 734.08,-216.35 711.46,-187.68"/>
<polygon fill="orange" stroke="orange" points="714.15,-185.43 705.21,-179.75 708.65,-189.77 714.15,-185.43"/>
</g>
</g>
</svg>
